<?xml version="1.0" encoding="utf-8"?>
<!-- Generator: Adobe Illustrator 16.0.1, SVG Export Plug-In . SVG Version: 6.00 Build 0)  -->
<!DOCTYPE svg PUBLIC "-//W3C//DTD SVG 1.1//EN" "http://www.w3.org/Graphics/SVG/1.1/DTD/svg11.dtd">
<svg version="1.1" xmlns="http://www.w3.org/2000/svg" xmlns:xlink="http://www.w3.org/1999/xlink" x="0px" y="0px" width="528px"
	 height="240px" viewBox="0 0 528 240" enable-background="new 0 0 528 240" xml:space="preserve">
<g id="background">
	<g id="logo">
		<g>
			<path fill="#BC2328" d="M69.18,18.52c0,0.23-0.188,0.418-0.418,0.418h-5.407c-0.229,0-0.417-0.188-0.417-0.418v-5.407
				c0-0.229,0.188-0.417,0.417-0.417h5.407c0.229,0,0.418,0.188,0.418,0.417V18.52z"/>
			<path fill="#FFFFFF" d="M67.975,15.195h-1.291V13.9c0-0.116-0.086-0.209-0.201-0.209h-0.834c-0.115,0-0.209,0.093-0.209,0.209
				v1.295h-1.29c-0.115,0-0.208,0.081-0.208,0.196v0.835c0,0.114,0.093,0.208,0.208,0.208h1.29v1.286
				c0,0.115,0.094,0.209,0.209,0.209h0.834c0.115,0,0.201-0.094,0.201-0.209v-1.286h1.291c0.115,0,0.209-0.094,0.209-0.208v-0.835
				C68.184,15.276,68.09,15.195,67.975,15.195z"/>
		</g>
		<path d="M34.538,18.103c-0.456,0.589-1.054,0.813-1.626,0.813c-1.834,0-2.912-1.369-2.912-3.078c0-1.76,1.078-3.129,2.912-3.129
			c1.211,0,2.356,0.747,2.497,2.092h-1.244c-0.149-0.656-0.64-0.996-1.253-0.996c-1.17,0-1.609,0.996-1.609,2.033
			c0,0.986,0.439,1.982,1.609,1.982c0.846,0,1.336-0.456,1.41-1.277h-1.311v-0.971H35.5v3.202h-0.829L34.538,18.103z M36.141,12.851
			h1.303v4.829h2.887v1.095h-4.189V12.851z M40.937,16.468l-2.183-3.617h1.469l1.386,2.34l1.378-2.34h1.451l-2.198,3.651v2.272
			h-1.303V16.468z M44.521,12.851h2.672c1.477,0,2.049,0.938,2.049,1.899c0,0.963-0.572,1.9-2.049,1.9h-1.369v2.124h-1.303V12.851z
			 M45.824,15.639h1.012c0.605,0,1.145-0.133,1.145-0.889c0-0.754-0.539-0.887-1.145-0.887h-1.012V15.639z M49.642,12.851h1.302
			v2.273h2.398v-2.273h1.303v5.924h-1.303v-2.556h-2.398v2.556h-1.302V12.851z M55.375,12.851h1.303v5.924h-1.303V12.851z
			 M61.357,14.842c-0.082-0.589-0.646-1.037-1.294-1.037c-1.17,0-1.609,0.996-1.609,2.033c0,0.986,0.439,1.982,1.609,1.982
			c0.797,0,1.245-0.547,1.345-1.327h1.261c-0.133,1.477-1.153,2.423-2.605,2.423c-1.834,0-2.912-1.369-2.912-3.078
			c0-1.76,1.078-3.129,2.912-3.129c1.303,0,2.397,0.764,2.556,2.133H61.357z M69.451,12.861h1.295l2.473,3.975h0.017v-3.975h1.22
			v5.924h-1.303l-2.465-3.966h-0.016v3.966h-1.221V12.861z M76.074,16.818c0,0.789,0.613,1.096,1.311,1.096
			c0.456,0,1.153-0.133,1.153-0.738c0-0.639-0.888-0.747-1.759-0.979c-0.88-0.232-1.768-0.572-1.768-1.685
			c0-1.211,1.145-1.792,2.215-1.792c1.236,0,2.373,0.54,2.373,1.908h-1.261c-0.042-0.714-0.548-0.896-1.17-0.896
			c-0.415,0-0.896,0.174-0.896,0.672c0,0.456,0.281,0.514,1.767,0.896c0.432,0.107,1.759,0.381,1.759,1.725
			c0,1.088-0.854,1.9-2.464,1.9c-1.312,0-2.539-0.646-2.522-2.107H76.074z M79.951,18.932v-0.477h0.377v0.477H79.951z
			 M82.448,17.338c-0.076-0.346-0.288-0.558-0.657-0.558c-0.545,0-0.814,0.495-0.814,0.99s0.27,0.99,0.814,0.99
			c0.352,0,0.64-0.274,0.676-0.661h0.283c-0.076,0.558-0.441,0.9-0.959,0.9c-0.711,0-1.098-0.563-1.098-1.229
			s0.387-1.229,1.098-1.229c0.495,0,0.878,0.266,0.941,0.797H82.448z M85,17.771C85,18.437,84.613,19,83.902,19
			c-0.712,0-1.099-0.563-1.099-1.229s0.387-1.229,1.099-1.229C84.613,16.541,85,17.104,85,17.771z M83.087,17.771
			c0,0.495,0.271,0.99,0.815,0.99c0.544,0,0.814-0.495,0.814-0.99s-0.271-0.99-0.814-0.99C83.357,16.78,83.087,17.275,83.087,17.771
			z M85.197,16.609h0.262v0.392h0.014c0.148-0.279,0.391-0.46,0.76-0.46c0.307,0,0.581,0.149,0.666,0.455
			c0.141-0.306,0.433-0.455,0.738-0.455c0.51,0,0.77,0.266,0.77,0.815v1.575h-0.283V17.37c0-0.383-0.144-0.59-0.549-0.59
			c-0.49,0-0.631,0.405-0.631,0.837v1.314H86.66v-1.575c0.005-0.315-0.126-0.576-0.486-0.576c-0.49,0-0.688,0.369-0.693,0.855v1.296
			h-0.283V16.609z"/>
	</g>
</g>
<g id="GLYPHICONS_Halflings">
	<g id="collapse-top">
		<path id="collapse_x5F_top" fill="#1D1D1B" d="M498,206v-3c0-2.2-1.8-4-4-4h-3c-2.2,0-4,1.8-4,4v3c0,2.156,1.781,4,4,4
			c0,0,2,0,3,0C496.172,210,498,208.156,498,206z M496,207c0,0.55-0.45,1-1,1h-5c-0.55,0-1-0.45-1-1v-5c0-0.55,0.45-1,1-1h5
			c0.55,0,1,0.45,1,1V207z M495,206h-5l2.5-3.333L495,206z"/>
	</g>
	<g id="collapse_1_">
		<path id="collapse" fill="#1D1D1B" d="M470,199c-1,0-3,0-3,0c-2.219,0-4,1.844-4,4v3c0,2.2,1.8,4,4,4h3c2.2,0,4-1.8,4-4v-3
			C474,200.844,472.172,199,470,199z M472,207c0,0.55-0.45,1-1,1h-5c-0.55,0-1-0.45-1-1v-5c0-0.55,0.45-1,1-1h5c0.55,0,1,0.45,1,1
			V207z M468.5,206.333L466,203h5L468.5,206.333z"/>
	</g>
	<g id="expand_1_">
		<path id="expand" fill="#1D1D1B" d="M438,203c0,1,0,3,0,3c0,2.219,1.844,4,4,4h3c2.2,0,4-1.8,4-4v-3c0-2.2-1.8-4-4-4h-3
			C439.844,199,438,200.828,438,203z M446,201c0.55,0,1,0.45,1,1v5c0,0.55-0.45,1-1,1h-5c-0.55,0-1-0.45-1-1v-5c0-0.55,0.45-1,1-1
			H446z M445.333,204.5L442,207v-5L445.333,204.5z"/>
	</g>
	<g id="unchecked_1_">
		<path id="unchecked" fill="#1D1D1B" d="M421,199h-3c-2.2,0-4,1.8-4,4v3c0,2.2,1.8,4,4,4h3c2.156,0,4-1.781,4-4c0,0,0-2,0-3
			C425,200.828,423.156,199,421,199z M422,201c0.55,0,1,0.45,1,1v5c0,0.55-0.45,1-1,1h-5c-0.55,0-1-0.45-1-1v-5c0-0.55,0.45-1,1-1
			H422z"/>
	</g>
	<g id="sort-by-attributes-alt">
		<path fill="#1D1D1B" d="M390.024,207H392v-9h2v9h1.976L393,210L390.024,207z M399,207h-2v2h2V207z M400,204h-3v2h3V204z M402,198
			h-5v2h5V198z M401,201h-4v2h4V201z"/>
	</g>
	<g id="sort-by-attributes">
		<path fill="#1D1D1B" d="M366.024,207H368v-9h2v9h1.976L369,210L366.024,207z M375,198h-2v2h2V198z M376,201h-3v2h3V201z M378,207
			h-5v2h5V207z M377,204h-4v2h4V204z"/>
	</g>
	<g id="sort-by-order-alt">
		<path fill="#1D1D1B" d="M342.024,207H344v-9h2v9h1.976L345,210L342.024,207z M350,198v4h2v1h1v-5H350z M352.008,201h-1v-2h1V201z
			 M351,210h1v-5h-2v1h1V210z"/>
	</g>
	<g id="sort-by-order">
		<path fill="#1D1D1B" d="M318.024,207H320v-9h2v9h1.976L321,210L318.024,207z M326,205v4h2v1h1v-5H326z M328.008,208h-1v-2h1V208z
			 M327,203h1v-5h-2v1h1V203z"/>
	</g>
	<g id="sort-by-alphabet-alt">
		<path fill="#1D1D1B" d="M294.024,207H296v-9h2v9h1.976L297,210L294.024,207z M301,205v5h1v-1h1v1h1v-5H301z M303.008,208h-1v-2h1
			V208z M301,198v1h2v1h1v-2H301z M301,203h3v-1h-2v-1h-1V203z M302.008,201h1v-1h-1V201z"/>
	</g>
	<g id="sort-by-alphabet">
		<path fill="#1D1D1B" d="M270.024,207H272v-9h2v9h1.976L273,210L270.024,207z M277,198v5h1v-1h1v1h1v-5H277z M279.008,201h-1v-2h1
			V201z M277,205v1h2v1h1v-2H277z M277,210h3v-1h-2v-1h-1V210z M278.008,208h1v-1h-1V208z"/>
	</g>
	<g id="sort">
		<path fill="#1D1D1B" d="M246.024,207H248v-9h2v9h1.976L249,210L246.024,207z M252.024,201H254v9h2v-9h1.976L255,198L252.024,201z"
			/>
	</g>
	<g id="gbp">
		<path fill="#1D1D1B" d="M230.655,207c-0.074,0.042-0.524,0.3-1.358,0.3c-0.672,0-1.422-0.347-2.057-0.332
			c-0.218,0.005-1.021,0.095-1.542,0.255c0.543-0.5,0.812-0.873,0.995-1.127c0.273-0.386,0.446-1.424,0.336-2.096H229v-1h-2.415
			c-0.376-0.65-0.853-1.424-0.853-2.042c0-0.377,0.137-0.716,0.409-1.005c0.273-0.291,0.926-0.5,1.406-0.5
			c0.63,0,1.844,0.422,1.844,1.547h1.531c0-1.609-1.609-2.97-3.315-2.97c-1.099,0-1.983,0.297-2.629,0.881
			c-1.274,1.152-0.955,2.515-0.759,3.047c0.116,0.313,0.255,0.661,0.442,1.042H223v1h2.208c0.472,0.951,0.405,1.955-0.239,2.688
			c-0.37,0.421-0.562,0.516-0.922,0.75l0.551,1.454c0,0,0.839-0.454,1.724-0.526s2.24,0.619,2.828,0.618s1.137,0.02,2.012-0.517
			L230.655,207z"/>
	</g>
	<g id="usd_1_">
		<path id="usd" fill="#1D1D1B" d="M208.327,205.853c0-2.185-1.765-2.743-2.684-2.929c0,0-0.269-0.043-0.643-0.138v-3.067
			c1.062,0.188,1.266,0.752,1.364,1.6h1.589c-0.097-2.31-1.86-2.882-2.953-3.014v-0.789h-1v0.779
			c-1.497,0.142-2.973,1.091-2.973,3.013c0,1.893,1.394,2.465,2.7,2.854c0.087,0.026,0.174,0.051,0.272,0.079v3.346
			c-0.984-0.202-1.59-0.878-1.658-1.909h-1.389c0.028,0.957,0.095,1.741,0.679,2.331c0.578,0.583,1.41,0.932,2.368,1.034v0.786h1
			v-0.771C207.058,208.907,208.327,207.717,208.327,205.853z M202.656,201.112c0-1.065,0.671-1.307,1.344-1.395v2.741
			C203.344,202.281,202.656,202.178,202.656,201.112z M205,207.635v-3.109c0.937,0.291,1.699,0.672,1.699,1.597
			C206.699,207.291,205.646,207.57,205,207.635z"/>
	</g>
	<g id="euro">
		<path fill="#1D1D1B" d="M181.529,208.141c-0.613,0-2.199-0.544-2.528-3.141H182l1-1h-4.062c0-0.365,0.024-0.693,0.062-1h3l1-1
			h-3.793c0.541-1.748,1.758-2.156,2.314-2.156c0.716,0,2.307,0.594,2.307,2.156h1.81c-0.036-0.701-0.255-1.397-0.661-2.093
			c-0.748-1.258-1.924-1.887-3.532-1.887c-1.206,0-2.198,0.47-2.976,1.407c-0.354,0.425-0.844,1.308-1.124,2.572H176l-1,1h2.182
			c-0.033,0.317-0.056,0.647-0.057,1H176l-1,1h2.173c0.172,1.794,0.781,2.899,1.134,3.37c0.788,1.052,1.87,1.577,3.246,1.577
			c1.113,0,2.025-0.39,2.736-1.168c0.661-0.723,1.081-1.655,1.278-2.779h-1.738C183.828,207.516,182.23,208.141,181.529,208.141z"/>
	</g>
	<g id="pushpin">
		<path fill="#1D1D1B" d="M161.853,200.975l-2.829-2.828c-0.195-0.195-0.512-0.195-0.707,0s-0.195,0.512,0,0.707l0.354,0.354
			L156,202h-3l2.101,2.122l-2.075,2.075L150,210l3.803-3.025l2.075-2.075L158,207v-3l2.792-2.671l0.354,0.354
			c0.195,0.194,0.512,0.195,0.708,0C162.049,201.486,162.048,201.17,161.853,200.975z"/>
	</g>
	<g id="phone_1_">
		<g opacity="0.3">
			<rect x="129" y="200" fill="#1D1D1B" width="6" height="7"/>
		</g>
		<path fill="#1D1D1B" d="M132.031,198c-2.391,0-4.031,0.919-4.031,1.469V209c0,0.55,0.45,1,1,1h6c0.55,0,1-0.45,1-1v-9.531
			C136,198.919,134.422,198,132.031,198z M132,209.536c-0.573,0-1.037-0.464-1.037-1.036c0-0.574,0.464-1.038,1.037-1.038
			s1.037,0.464,1.037,1.038C133.037,209.072,132.573,209.536,132,209.536z M135,207h-6v-7h6V207z"/>
	</g>
	<g id="link">
		<path fill="#1D1D1B" d="M106.232,210.139c-0.601,0-1.166-0.233-1.591-0.658l-1.415-1.415c-0.425-0.425-0.659-0.989-0.659-1.591
			c0-0.601,0.234-1.166,0.659-1.591l0.551-0.551c0.192,0.363,0.445,0.703,0.755,1.013l0.177,0.177l-0.953,0.952l2.475,2.476
			l3.889-3.89L108,202.939l1.05-1.051c0.064,0.052,0.127,0.107,0.187,0.167l1.414,1.414c0.877,0.877,0.877,2.305,0,3.182
			l-2.829,2.829C107.398,209.905,106.833,210.139,106.232,210.139z M106.763,205.944l-1.414-1.414
			c-0.425-0.425-0.659-0.99-0.659-1.591s0.234-1.166,0.659-1.591l2.828-2.829c0.425-0.425,0.99-0.658,1.591-0.658
			s1.166,0.233,1.591,0.658l1.415,1.415c0.425,0.425,0.659,0.989,0.659,1.591c0,0.601-0.481,1.413-0.907,1.838l-0.284,0.284
			c-0.21-0.353-0.47-0.685-0.776-0.991l-0.177-0.177l0.955-0.954l-2.475-2.475l-3.889,3.889l2.121,2.121l-1.054,1.055
			C106.889,206.065,106.821,206.003,106.763,205.944z"/>
	</g>
	<g id="heart-empty">
		<path fill="#1D1D1B" d="M84.495,200.511c-1.859-2.847-5.5-0.98-5.5,1.646c0,2.023,3.165,3.768,5.5,6.96
			c2.334-3.192,5.499-4.937,5.499-6.96C89.994,199.53,86.47,197.664,84.495,200.511z M86.578,204.906
			c-0.669,0.654-1.371,1.369-2.083,2.19c-0.713-0.821-1.373-1.52-2.042-2.175c-1.125-1.102-2.158-2.059-2.158-2.766
			c0-1.055,0.916-1.872,1.79-1.872c0.55,0,1.022,0.297,1.405,0.883l0.975,1.492l1.016-1.464c0.414-0.596,0.923-0.911,1.475-0.911
			c0.868,0,1.738,0.8,1.738,1.872C88.693,202.863,87.703,203.805,86.578,204.906z"/>
	</g>
	<g id="paperclip">
		<path fill="#1D1D1B" d="M59.175,208.691l-0.073-0.07l2.537-2.557l2.515-2.495c0.61-0.609,0.931-1.237,0.982-1.918
			c0.099-1.309-0.785-2.47-2.055-2.699c-0.165-0.03-0.322-0.041-0.474-0.041c-1.153,0-1.963,0.815-2.746,1.604l-3.476,3.477
			c-0.132,0.133-0.282,0.271-0.438,0.415c-0.754,0.694-1.463,1.349-1.321,2.331c0.128,0.884,0.864,1.28,1.536,1.28
			c0.469,0,0.924-0.187,1.249-0.512l5.477-5.478c0.224-0.225,0.297-0.504,0.197-0.747c-0.091-0.22-0.3-0.362-0.532-0.362
			c-0.175,0-0.349,0.081-0.502,0.234c-0.137,0.118-0.262,0.25-0.387,0.381l-3.768,3.731l-0.693-0.673l0.07-0.072
			c0,0,3.504-3.572,3.886-3.954c0.42-0.42,0.811-0.68,1.463-0.68c0.092,0,0.189,0.005,0.292,0.016
			c0.579,0.108,1.004,0.486,1.174,1.04c0.195,0.629,0.019,1.337-0.448,1.803l-3.931,3.933c-0.188,0.188-0.379,0.396-0.576,0.612
			c-0.623,0.68-1.071,1.17-1.766,1.507c-0.367,0.18-0.781,0.274-1.197,0.274c-0.929,0-1.761-0.452-2.226-1.211
			c-0.637-1.043-0.443-2.456,0.461-3.359l5.115-5.115c0.396-0.397,0.708-0.712,1.113-0.957c0.591-0.358,1.274-0.548,1.974-0.548
			c0.526,0,1.052,0.113,1.52,0.327c1.044,0.479,1.761,1.416,1.967,2.569c0.223,1.244-0.172,2.517-1.058,3.401l-5.169,5.113
			C59.868,209.292,59.209,208.724,59.175,208.691z"/>
	</g>
	<g id="dashboard">
		<path opacity="0.3" fill="#1D1D1B" d="M32.668,206c0.683,1.134,1.914,1.901,3.332,1.901s2.648-0.768,3.332-1.901H32.668z"/>
		<g>
			<path fill="#1D1D1B" d="M37.547,200.952c-0.301,0-0.547,0.246-0.547,0.547c0,0.104,0.038,0.197,0.089,0.28
				c-0.003,0.004-0.009,0.005-0.012,0.01l-1.217,1.263c-0.411,0.066-0.725,0.425-0.725,0.855c0,0.48,0.39,0.872,0.872,0.872
				c0.48,0,0.87-0.392,0.87-0.872c0-0.189-0.061-0.365-0.166-0.508l0.548-1.447c0.085,0.055,0.18,0.094,0.288,0.094
				c0.301,0,0.547-0.246,0.547-0.547S37.848,200.952,37.547,200.952z"/>
			<circle fill="#1D1D1B" cx="38.547" cy="203.452" r="0.547"/>
			<circle fill="#1D1D1B" cx="34.547" cy="201.499" r="0.547"/>
			<circle fill="#1D1D1B" cx="33.454" cy="203.452" r="0.547"/>
			<path fill="#1D1D1B" d="M36,198.228c-3.188,0-5.771,2.584-5.771,5.771s2.583,5.771,5.771,5.771c3.187,0,5.771-2.584,5.771-5.771
				S39.188,198.228,36,198.228z M36,208.271c-2.355,0-4.271-1.916-4.271-4.271s1.916-4.271,4.271-4.271s4.271,1.916,4.271,4.271
				S38.355,208.271,36,208.271z"/>
		</g>
	</g>
	<g id="fullscreen">
		<path fill="#1D1D1B" d="M487.292,176.708L486,178v-4h4l-1.292,1.292l2,2l-1.416,1.416L487.292,176.708z M490.708,182.708
			l-1.416-1.416l-2,2L486,182v4h4l-1.292-1.292L490.708,182.708z M494.708,181.292l-1.416,1.416l2,2L494,186h4v-4l-1.292,1.292
			L494.708,181.292z M494,174l1.292,1.292l-2,2l1.416,1.416l2-2L498,178v-4H494z"/>
	</g>
	<g id="briefcase">
		<rect x="467" y="180" opacity="0.5" fill="#1D1D1B" width="2" height="1"/>
		<rect x="462" y="181" opacity="0.3" fill="#1D1D1B" width="12" height="1"/>
		<g>
			<path fill="#1D1D1B" d="M467,182h-5v2c0,0.55,0.45,1,1,1h10c0.55,0,1-0.45,1-1v-2h-5H467z"/>
			<path fill="#1D1D1B" d="M473,176h-3v-1c0-0.551-0.448-1-1-1h-2c-0.552,0-1,0.449-1,1v1h-3c-0.55,0-1,0.45-1,1v4h5v-1h2v1h5v-4
				C474,176.45,473.55,176,473,176z M467,175h2v1h-2V175z"/>
		</g>
	</g>
	<g id="filter">
		<g>
			<path fill="#1D1D1B" d="M443,181v5l2-2v-3l3.5-5h-9L443,181z"/>
			<rect x="439" y="174" fill="#1D1D1B" width="10" height="1"/>
		</g>
	</g>
	<g id="tasks">
		<g id="tasks_x5F_alt">
			<path fill="#1D1D1B" d="M426,180c0-0.553-0.447-1-1-1h-10c-0.553,0-1,0.447-1,1v1c0,0.553,0.447,1,1,1h10c0.553,0,1-0.447,1-1
				V180z M425,181h-10v-1h10V181z M426,184c0-0.553-0.447-1-1-1h-10c-0.553,0-1,0.447-1,1v1c0,0.553,0.447,1,1,1h10
				c0.553,0,1-0.447,1-1V184z M425,185h-10v-1h10V185z M426,176c0-0.553-0.447-1-1-1h-10c-0.553,0-1,0.447-1,1v1
				c0,0.553,0.447,1,1,1h10c0.553,0,1-0.447,1-1V176z M425,177h-10v-1h10V177z"/>
		</g>
		<rect x="415" y="176" opacity="0.5" fill="#1D1D1B" width="8" height="1"/>
		<rect x="415" y="180" opacity="0.5" fill="#1D1D1B" width="5" height="1"/>
		<rect x="415" y="184" opacity="0.5" fill="#1D1D1B" width="7" height="1"/>
	</g>
	<g id="wrench">
		<path fill="#1D1D1B" d="M401.989,176.955l-2.513,1.267l-1.447-2.32l2.589-1.383c-1.005-0.716-2.083-0.639-3.062-0.088
			c-1.284,0.724-1.85,2.219-1.41,3.562l-5.994,5.992c-0.201,0.203-0.201,0.534,0,0.736l1.104,1.104c0.202,0.202,0.534,0.202,0.736,0
			l5.959-5.96c0.798,0.284,1.718,0.224,2.529-0.233C401.459,179.081,402.079,178.189,401.989,176.955z"/>
	</g>
	<g id="globe">
		<path fill="#1D1D1B" d="M372.473,177.163c-0.057-0.385-0.343-0.708-0.347-1.104c-0.245,0.122-0.332,0.525-0.623,0.233
			c-0.074,0.181-0.269,0.342-0.321,0.553C371.527,177.074,372.076,177.085,372.473,177.163
			C372.455,177.043,372.403,177.149,372.473,177.163z"/>
		<path fill="#1D1D1B" d="M372,174.24c-3.14,0-5.76,2.62-5.76,5.76s2.62,5.76,5.76,5.76s5.76-2.62,5.76-5.76
			S375.14,174.24,372,174.24z M375.148,183.885c-0.563,0.548-1.393,1.135-2.208,1.115c-0.121-0.203,0.017-0.289,0.017-0.468
			c-0.409-0.086-0.665-0.465-0.867-0.798c-0.066-0.418,0.507-0.772,0.354-1.121c-0.67,0.076-1.117-0.579-1.706-0.81
			c-0.359-0.139-0.73-0.249-1.073-0.426c-0.229-0.118-0.39-0.351-0.664-0.336c0.018-0.444-0.344-0.808-0.328-1.042
			c0.125-0.594-0.294-1.155-0.136-1.796c0.145-0.59,0.521-1.092,0.577-1.708c0.023-0.146-0.2-0.197-0.154-0.406
			c0.05-0.225,0.664-0.544,0.858-0.605c0.327-0.104,0.586,0.046,0.915-0.021c0.534-0.108,1.094-0.128,1.541-0.479
			c0.115,0.025,0.251,0.026,0.367,0.002c0.438,0.366,1.515,0.231,1.369,1.055c0,0-0.387,0.216-1.088-0.075
			c0.115,0.048,0.014,0.331-0.014,0.441c0.575,0.328,1.319,0.574,1.613,1.223c-0.249,0.308-0.56,0.17-0.891,0.17
			c-0.104,0.115-0.149,0.213-0.104,0.364c-0.617,0.261-0.478,0.579-0.675,1.108c-0.123,0.33-0.44,0.354-0.368,0.758
			c0.056,0.359-0.101,0.63-0.15,0.969c0,0-0.546-0.304-0.803-0.729c-0.13-0.216-0.558-0.147-0.796-0.194
			c-0.517,0.199-0.133,1.288,0.284,0.841c0.523-0.557,0.599,0.145,0.566,0.489c0.167,0.101,0.409,0.026,0.514,0.243
			c0.017,0.102-0.043,0.409,0.031,0.509c0.145,0.221,0.555-0.046,0.663-0.119c0.457-0.308,1.119-0.229,1.64-0.246
			c0.307,0.203,0.684,0.172,1.003,0.34c0.269,0.141,0.477-0.008,0.732,0.162C376.097,182.963,375.607,183.443,375.148,183.885z"/>
	</g>
	<g id="circle-arrow-down">
		<g id="arrow_4_">
			<path fill="#1D1D1B" d="M348,174.219c-3.191,0-5.781,2.588-5.781,5.781s2.59,5.781,5.781,5.781c3.193,0,5.781-2.588,5.781-5.781
				S351.193,174.219,348,174.219z M349.012,176.984v3h1.973L348,184l-2.938-4.016L347,180v-3L349.012,176.984z"/>
		</g>
	</g>
	<g id="circle-arrow-top">
		<g id="arrow_3_">
			<path fill="#1D1D1B" d="M324,185.781c3.191,0,5.781-2.588,5.781-5.781s-2.59-5.781-5.781-5.781c-3.193,0-5.781,2.588-5.781,5.781
				S320.807,185.781,324,185.781z M322.988,183.016v-3h-1.973L324,176l2.938,4.016L325,180v3L322.988,183.016z"/>
		</g>
	</g>
	<g id="circle-arrow-left">
		<g id="arrow_2_">
			<path fill="#1D1D1B" d="M300,174.219c-3.193,0-5.781,2.588-5.781,5.781c0,3.191,2.588,5.781,5.781,5.781s5.781-2.59,5.781-5.781
				C305.781,176.807,303.193,174.219,300,174.219z M303,181h-3l0.016,1.938L296,180l4.016-2.984v1.973h3L303,181z"/>
		</g>
	</g>
	<g id="circle-arrow-right">
		<g id="arrow_1_">
			<path fill="#1D1D1B" d="M270.219,180c0,3.191,2.588,5.781,5.781,5.781s5.781-2.59,5.781-5.781c0-3.193-2.588-5.781-5.781-5.781
				S270.219,176.807,270.219,180z M272.984,178.988h3v-1.973L280,180l-4.016,2.938L276,181h-3L272.984,178.988z"/>
		</g>
	</g>
	<g id="hand-down">
		<g id="hand_x5F_top_1_">
			<g id="hand_x5F_right_2_">
				<rect x="249" y="173" fill="#1D1D1B" width="6" height="2"/>
				<path opacity="0.3" fill="#1D1D1B" d="M251.608,182.242c-0.216,0.061-0.608,0.258-0.608,0.482v-1.537l4-1.656v1.403
					L251.608,182.242z"/>
				<rect x="249" y="175" opacity="0.5" fill="#1D1D1B" width="6" height="1"/>
				<path fill="#1D1D1B" d="M255.391,181.63L252,182.938V184c0,1.07-0.5,1.938-1.5,1.938s-1.484-0.852-1.484-1.922
					c0-0.941,0.004-2.015,0.008-3.02l-1.211,0.848c-0.199,0.153-0.481,0.15-0.66-0.028l-1.121-1.097
					c-0.151-0.152-0.157-0.339-0.062-0.531l2.299-3.624c0,0,0.342-0.563,0.732-0.563s5.252,0,5.252,0c0.19,0,1.748,1.65,1.748,1.729
					v3.419C256,181.371,255.607,181.568,255.391,181.63z M254.109,177h-5.026l-2.364,3.391l0.828,0.859l1.835-1.463
					c0.151-0.116,0.294-0.136,0.464-0.051c0.172,0.084,0.154,0.259,0.154,0.449v0.002c0,0,0,4.094,0,4.562s1,0.453,1,0
					s0-2.025,0-2.025c0-0.225,0.393-0.422,0.608-0.482l3.392-1.308V178L254.109,177z"/>
			</g>
		</g>
	</g>
	<g id="hand-top">
		<g id="hand_x5F_right_1_">
			<rect x="226" y="184" fill="#1D1D1B" width="6" height="2"/>
			<path opacity="0.3" fill="#1D1D1B" d="M228.608,176.758c-0.216-0.061-0.608-0.258-0.608-0.482v1.537l4,1.656v-1.403
				L228.608,176.758z"/>
			<rect x="226" y="183" opacity="0.5" fill="#1D1D1B" width="6" height="1"/>
			<path fill="#1D1D1B" d="M233,177.853v3.419c0,0.078-1.558,1.729-1.748,1.729c0,0-4.861,0-5.252,0s-0.732-0.563-0.732-0.563
				l-2.299-3.624c-0.095-0.192-0.089-0.379,0.062-0.531l1.121-1.097c0.179-0.179,0.461-0.182,0.66-0.028l1.211,0.848
				c-0.004-1.005-0.008-2.078-0.008-3.02c0-1.07,0.484-1.922,1.484-1.922S229,173.93,229,175v1.062l3.391,1.308
				C232.607,177.432,233,177.629,233,177.853z M232,181v-2.935l-3.392-1.308c-0.216-0.061-0.608-0.258-0.608-0.482
				c0,0,0-1.572,0-2.025s-1-0.469-1,0s0,4.562,0,4.562v0.002c0,0.19,0.018,0.365-0.154,0.449c-0.17,0.085-0.312,0.065-0.464-0.051
				l-1.835-1.463l-0.828,0.859l2.364,3.391h5.026L232,181z"/>
		</g>
	</g>
	<g id="hand-left">
		<rect x="208" y="178" fill="#1D1D1B" width="2" height="6"/>
		<path opacity="0.3" fill="#1D1D1B" d="M200.696,180.608c-0.062-0.216-0.258-0.608-0.482-0.608h1.537l1.656,4h-1.403
			L200.696,180.608z"/>
		<rect x="207" y="178" opacity="0.5" fill="#1D1D1B" width="1" height="6"/>
		<path fill="#1D1D1B" d="M201.308,184.391L200,181h-1.062c-1.07,0-1.938-0.5-1.938-1.5s0.852-1.484,1.922-1.484
			c0.941,0,2.015,0.004,3.02,0.008l-0.848-1.211c-0.153-0.199-0.15-0.481,0.028-0.66l1.097-1.121
			c0.152-0.151,0.339-0.157,0.531-0.062l3.655,2.299c0,0,0.595,0.342,0.595,0.732s0,5.252,0,5.252c0,0.19-1.713,1.748-1.792,1.748
			h-3.418C201.566,185,201.369,184.607,201.308,184.391z M206,183.109v-5.026l-3.422-2.364l-0.875,0.828l1.455,1.835
			c0.117,0.151,0.132,0.294,0.047,0.464c-0.084,0.172-0.263,0.154-0.454,0.154c0,0-0.001,0-0.001,0c0,0-3.75,0-4.75,0v1
			c1,0,2.213,0,2.213,0c0.224,0,0.421,0.393,0.482,0.608l1.307,3.392h2.935L206,183.109z"/>
	</g>
	<g id="hand-right">
		<rect x="174" y="178" fill="#1D1D1B" width="2" height="6"/>
		<path opacity="0.3" fill="#1D1D1B" d="M183.242,180.608c0.062-0.216,0.258-0.608,0.482-0.608h-1.537l-1.656,4h1.403
			L183.242,180.608z"/>
		<rect x="176" y="178" opacity="0.5" fill="#1D1D1B" width="1" height="6"/>
		<path fill="#1D1D1B" d="M182.147,185h-3.418c-0.078,0-1.729-1.558-1.729-1.748c0,0,0-4.861,0-5.252s0.563-0.732,0.563-0.732
			l3.624-2.299c0.192-0.095,0.379-0.089,0.531,0.062l1.097,1.121c0.178,0.179,0.182,0.461,0.028,0.66l-0.848,1.211
			c1.005-0.004,2.079-0.008,3.02-0.008c1.07,0,1.922,0.484,1.922,1.484S186.07,181,185,181h-1.062l-1.308,3.391
			C182.568,184.607,182.372,185,182.147,185z M179,184h2.935l1.307-3.392c0.062-0.216,0.258-0.608,0.482-0.608c0,0,1.573,0,2.026,0
			s0.469-1,0-1s-4.562,0-4.562,0c0,0-0.001,0-0.001,0c-0.191,0-0.365,0.018-0.45-0.154c-0.085-0.17-0.065-0.312,0.051-0.464
			l1.462-1.835l-0.859-0.828L178,178.083v5.026L179,184z"/>
	</g>
	<g id="thumbs-down">
		<g id="thumbs_x5F_up_3_">
			<polygon opacity="0.3" fill="#1D1D1B" points="161,179.75 161,181 160,181 156.5,176 158.5,176 			"/>
			<path fill="#1D1D1B" d="M157,185h-0.5l-1-2.125l-1.5-2.125V177h1l1.357-1h2.143l2.5,3.75V181h-4.5l0.5,2.25V185 M157,186
				c0.552,0,1-0.697,1-1.25v-1.5c0-0.066-0.28-1.25-0.28-1.25H161c0.552,0,1-0.697,1-1.25v-1c0-0.266-0.105-0.551-0.293-0.738
				l-2.375-3.441c-0.186-0.278-0.498-0.57-0.832-0.57H156c-0.155,0-1.393,1-1.393,1H154c-0.552,0-1,0.197-1,0.75v4
				c0,0.217,0.07,0.458,0.2,0.631l1.446,1.959l0.959,1.982c0.169,0.339,0.516,0.678,0.895,0.678H157L157,186z M152,176h-2v6h2V176z"
				/>
		</g>
		<rect x="152" y="176" opacity="0.5" fill="#1D1D1B" width="1" height="6"/>
	</g>
	<g id="thumbs-up">
		<g id="thumbs_x5F_up">
			<polygon opacity="0.3" fill="#1D1D1B" points="137,180.25 137,179 136,179 132.5,184 134.5,184 			"/>
			<path fill="#1D1D1B" d="M133,175v1.75l-0.5,2.25h4.5v1.25l-2.5,3.75h-2.143L131,183h-1v-3.75l1.5-2.125l1-2.125H133 M133,174
				h-0.5c-0.379,0-0.725,0.339-0.895,0.678l-0.959,1.982l-1.446,1.959c-0.13,0.173-0.2,0.414-0.2,0.631v4c0,0.553,0.448,0.75,1,0.75
				h0.607c0,0,1.238,1,1.393,1h2.5c0.334,0,0.646-0.292,0.832-0.57l2.375-3.441c0.188-0.188,0.293-0.473,0.293-0.738v-1
				c0-0.553-0.448-1.25-1-1.25h-3.28c0,0,0.28-1.184,0.28-1.25v-1.5C134,174.697,133.552,174,133,174L133,174z M128,178h-2v6h2V178z
				"/>
		</g>
		<rect x="128" y="178" opacity="0.5" fill="#1D1D1B" width="1" height="6"/>
	</g>
	<g id="certificate">
		<polygon fill="#1D1D1B" points="108,176 109.553,174.204 110,176.536 112.243,175.758 111.464,178 113.795,178.447 112,180 
			113.795,181.553 111.464,182 112.243,184.242 110,183.464 109.553,185.796 108,184 106.447,185.796 106,183.464 103.757,184.242 
			104.536,182 102.205,181.553 104,180 102.205,178.447 104.536,178 103.757,175.758 106,176.536 106.447,174.204 		"/>
	</g>
	<g id="bell">
		<path fill="#1D1D1B" d="M88.792,182h-0.176l-1.173-1.731L86.816,177H86.81c-0.191-1-1.07-1.967-2.2-2.23
			c0.002-0.006,0.18-0.373,0.18-0.373c0.082-0.261-0.062-0.396-0.321-0.396h-0.938c-0.258,0-0.402,0.193-0.321,0.453
			c0,0,0.178,0.315,0.18,0.321c-1.129,0.264-2.009,1.226-2.2,2.226h-0.006l-0.626,3.269L79.385,182h-0.176
			c-0.258,0-0.469,0.224-0.469,0.497c0,0.275,0.197,0.581,0.438,0.679c0,0,2.007,0.819,4.823,0.819s4.823-0.82,4.823-0.82
			c0.241-0.098,0.438-0.402,0.438-0.677S89.049,182,88.792,182z M84,184.96c0.359,0,0.7-0.021,1.024-0.062
			C84.868,185.541,84.47,186,84,186s-0.869-0.459-1.025-1.103C83.3,184.938,83.641,184.96,84,184.96z"/>
	</g>
	<g id="bullhorn">
		<g>
			<path fill="#1D1D1B" d="M53,179.5v0.5c0,0.553,1,1,1,1v-2.5C54,178.5,53,178.947,53,179.5z"/>
			<path fill="#1D1D1B" d="M65.5,175c-0.275,0-0.5,0.225-0.5,0.5v8.5c0,0.275,0.225,0.5,0.5,0.5s0.5-0.225,0.5-0.5v-8.5
				C66,175.225,65.775,175,65.5,175z"/>
			<path fill="#1D1D1B" d="M55.25,178c-0.275,0-0.25,0.225-0.25,0.5v2.5c0,0.143,0.555,3.508,0.555,3.508
				c0.05,0.271,0.253,0.492,0.528,0.492h0.834c0.275,0,0.465,0.027,0.423-0.244L56.873,182h0.377l6.75,2v-8.5l-6.75,2.5H55.25z"/>
		</g>
	</g>
	<g id="hdd">
		<path fill="#1D1D1B" d="M41.69,182l-1.717-7.324c-0.06-0.269-0.334-0.676-0.61-0.676h-6.727c-0.275,0-0.549,0.345-0.61,0.613
			L30.311,182H41.69z"/>
		<path fill="#1D1D1B" d="M41,183H31c-0.552,0-1,0.447-1,1v1c0,0.553,0.448,1,1,1h10c0.552,0,1-0.447,1-1v-1
			C42,183.447,41.552,183,41,183z M39,185h-1v-1h1V185z M41,185h-1v-1h1V185z"/>
		<rect x="40" y="184" opacity="0.3" fill="#1D1D1B" width="1" height="1"/>
	</g>
	<g id="resize-horizontal">
		<polygon fill="#1D1D1B" points="498,156 495,153.024 495,155 489,155 489,153.024 486,156 489,158.976 489,157 495,157 
			495,158.976 		"/>
	</g>
	<g id="resize-vertical">
		<polygon fill="#1D1D1B" points="468,162 470.976,159 469,159 469,153 470.976,153 468,150 465.024,153 467,153 467,159 
			465.024,159 		"/>
	</g>
	<g id="folder-open">
		<polygon fill="#1D1D1B" points="441,155 438,162 450,162 453,155 		"/>
		<path fill="#1D1D1B" d="M450,154v-2h-5c0-0.55-0.45-1-1-1h-3c-0.55,0-1,0.45-1,1h-2v6l2-4H450z"/>
	</g>
	<g id="folder-close">
		<rect x="414" y="154" fill="#1D1D1B" width="12" height="8"/>
		<path fill="#1D1D1B" d="M421,152c0-0.55-0.45-1-1-1h-3c-0.55,0-1,0.45-1,1h-2v1h12v-1H421z"/>
	</g>
	<g id="shopping-cart">
		<path fill="#1D1D1B" d="M400.333,153.704 M401.438,150H400.5c-0.231,0-0.434,0.159-0.486,0.385L399.631,152h-8.964
			c-0.151,0-0.295,0.068-0.391,0.188c-0.095,0.118-0.131,0.273-0.098,0.421l1,4.75c0.051,0.229,0.337,0.642,0.821,0.642h6.328
			l-0.474,2H392.5c-0.275,0-0.5,0.225-0.5,0.5s0.225,0.5,0.5,0.5h0.5v0.5c0,0.275,0.225,0.5,0.5,0.5s0.5-0.225,0.5-0.5V161h3v0.5
			c0,0.275,0.225,0.5,0.5,0.5s0.5-0.225,0.5-0.5V161h0.312c0.406,0,0.578-0.391,0.578-0.391l2.005-9.609h0.542
			c0.276,0,0.5-0.224,0.5-0.5S401.714,150,401.438,150z"/>
	</g>
	<g id="retweet">
		<path fill="#1D1D1B" d="M380,158l-2.992,2.829L374.015,158H376v-4h-3.807l-2.154-2H378v6H380z M366,155v6h8l-2.154-2H368v-4h2.024
			l-2.993-2.829L364.039,155H366z"/>
	</g>
	<g id="chevron-down">
		<polygon fill-rule="evenodd" clip-rule="evenodd" fill="#1D1D1B" points="344.965,152.046 348.492,155.573 352.021,152.046 
			354,154.026 348.5,159.54 348.495,159.536 348.487,159.542 342.985,154.026 		"/>
	</g>
	<g id="chevron-up">
		<polygon fill-rule="evenodd" clip-rule="evenodd" fill="#1D1D1B" points="327.021,159.875 323.493,156.348 319.965,159.875 
			317.985,157.895 323.485,152.381 323.49,152.385 323.498,152.379 329,157.895 		"/>
	</g>
	<g id="magnet">
		<path fill="#1D1D1B" d="M302,154c0,0,0,1.154,0,2.5s0.154,2.73-2,2.73s-2-1.315-2-2.73V154h-3v2c0,1.57,0.333,6,5,6s5-4.43,5-6v-2
			H302z"/>
		<path opacity="0.5" fill="#1D1D1B" d="M298,153h-3v-3h3V153z M305,150h-3v3h3V150z"/>
	</g>
	<g id="comments">
		<path fill="#1D1D1B" d="M281,151h-10c-0.55,0-1,0.45-1,1v6c0,0.55,0.45,1,1,1h1v3l3.037-3H281c0.55,0,1-0.45,1-1v-6
			C282,151.45,281.55,151,281,151z"/>
	</g>
	<g id="random">
		<path fill="#1D1D1B" d="M248.586,154H246v-2h3.414l1.809,1.809l-1.414,1.414L248.586,154z M257,154v1.976l3-3l-3-2.951V152h-2.414
			l-6,6H246v2h3.414l6-6H257z M257,158h-1.586l-1.223-1.223l-1.414,1.414l1.809,1.809H257v1.976l3-3l-3-2.951V158z"/>
	</g>
	<g id="calendar_1_">
		<path fill="#1D1D1B" d="M233,151.5v1.5h-11v-1.5c0-0.275,0.225-0.5,0.5-0.5h1.5v-1h1v1h5v-1h1v1h1.5
			C232.775,151,233,151.225,233,151.5z M222,154h11v7.5c0,0.275-0.225,0.5-0.5,0.5h-10c-0.275,0-0.5-0.225-0.5-0.5V154z M231,157h1
			v-1h-1V157z M231,159h1v-1h-1V159z M231,161h1v-1h-1V161z M229,157h1v-1h-1V157z M229,159h1v-1h-1V159z M229,161h1v-1h-1V161z
			 M227,157h1v-1h-1V157z M227,159h1v-1h-1V159z M227,161h1v-1h-1V161z M225,157h1v-1h-1V157z M225,159h1v-1h-1V159z M225,161h1v-1
			h-1V161z M223,157h1v-1h-1V157z M223,159h1v-1h-1V159z M223,161h1v-1h-1V161z"/>
	</g>
	<g id="plane">
		<path fill="#1D1D1B" d="M209.627,158.139L206,154.894V151.5c0-0.828-0.671-1.5-1.5-1.5s-1.5,0.672-1.5,1.5v3.394l-3.627,3.245
			c-0.205,0.184-0.373,0.559-0.373,0.834v0.404c0,0.275,0.185,0.371,0.411,0.215l3.589-2.496V159v0.726
			c-0.446,0.418-1,0.969-1,1.134v0.641c0,0.275,0.201,0.399,0.447,0.276l0.945-0.776h2.215l0.945,0.776
			c0.246,0.123,0.447-0.001,0.447-0.276v-0.641c0-0.165-0.554-0.716-1-1.134V159v-1.904l3.589,2.496
			c0.226,0.156,0.411,0.061,0.411-0.215v-0.404C210,158.697,209.833,158.322,209.627,158.139z"/>
	</g>
	<g id="warning-sign">
		<path fill="#1D1D1B" d="M181,156l-1,3l-1-3v-1h2V156z M186.467,162h-12.934c-0.506,0-0.704-0.571-0.438-1.002l6.422-10.654
			c0.266-0.432,0.699-0.369,0.965,0.062l6.422,10.561C187.17,161.397,186.973,162,186.467,162z M184.448,160L180,152.773
			L175.552,160H179v-1h1h1v1H184.448z"/>
	</g>
	<g id="eye-close">
		<path fill="#1D1D1B" d="M162.351,155.596c-0.067-0.105-1.044-1.6-2.556-2.808l-0.384,1.465c0.62,0.683,1.109,1.368,1.394,1.751
			c-0.519,0.703-1.556,2.228-2.62,2.936l-0.381,1.453c2.61-1.01,4.454-3.842,4.547-3.988l0.259-0.404L162.351,155.596z"/>
		<path fill="#1D1D1B" d="M157.579,150l-0.372,1.419c-0.39-0.104-0.792-0.169-1.208-0.169c-3.528,0-6.237,4.168-6.351,4.346
			L149.391,156l0.259,0.404c0.101,0.157,2.233,3.413,5.162,4.17L154.438,162h1.481l3.142-12H157.579z M154.835,154.377
			c0,0,0.508,0.996,1.172,1.63l-0.228,0.872l-0.468,0.468c-0.704-0.448-1.23-1.124-1.539-1.906L154.835,154.377z M151.196,155.996
			c0.483-0.655,1.297-1.742,2.266-2.579c-0.288,0.46-0.461,1-0.461,1.583c0,1.484,1.082,2.709,2.498,2.949l-0.368,1.406
			C153.33,158.832,151.808,156.818,151.196,155.996z"/>
	</g>
	<g id="eye-open">
		<path fill="#1D1D1B" d="M138.351,155.596c-0.114-0.178-2.822-4.346-6.351-4.346s-6.237,4.168-6.351,4.346L125.391,156l0.259,0.404
			c0.114,0.178,2.822,4.346,6.351,4.346s6.237-4.168,6.351-4.346l0.259-0.404L138.351,155.596z M130.835,154.377
			c0,0,0.696,1.373,1.524,1.92l-1.048,1.05c-0.704-0.448-1.23-1.124-1.539-1.906L130.835,154.377z M132,159.604
			c-2.688,0-4.098-2.658-4.804-3.607c0.483-0.655,1.297-1.742,2.266-2.579c-0.288,0.46-0.461,1-0.461,1.583c0,1.656,1.343,3,3,3
			s3-1.344,3-3c0-0.603-0.182-1.161-0.487-1.631c1.048,0.896,1.88,2.082,2.292,2.635C135.934,157.184,134.688,159.604,132,159.604z"
			/>
	</g>
	<g id="fire">
		<path fill="#1D1D1B" d="M106.001,154.462c-0.546-2.983,2.624-5.004,2.624-5.004c-1,3-0.377,4.682,1.167,5.334
			s0.345-2.479,0.222-2.747c2.124,1.424,3.431,3.866,2.91,6.205c-0.521,2.339-2.348,3.023-3.783,3.526
			c-2.188,0.552-0.335-1.192-0.087-2.672c0.249-1.479-0.633-2.612-1.479-3.479c0.247,0.562,0.182,2.498-0.266,3.42
			c-0.448,0.922-1.612,2.461-2.659,1.789s-1.396-1.728-1.49-2.279s-0.253-2.242,1.249-3.555c-0.294,0.825,0.045,2.578,1.125,2.312
			S106.233,155.729,106.001,154.462z"/>
	</g>
	<g id="leaf">
		<path fill="#1D1D1B" d="M81.188,153.576c-1.606,2.061-1.241,4.073-1.032,5.283L78,160.793v1.414v0.011l2.006-2.017L81,159.646
			c1.314-0.017,8.993,3.38,8.993-9.646C85.101,151.419,83.103,151.119,81.188,153.576z M84.922,155.891
			c-1.344,0.723-3.138,1.696-3.673,2.34c-0.874,1.051-1.249,1.129-0.577-0.413c0.797-1.829,2.986-3.155,4.579-4.006
			c0,0,2.359-1.157,3.134-2.298c0.368-0.542,0.666-0.621,0.775-0.496s0.109,0.125-0.178,0.796
			C87.851,154.134,86.56,155.013,84.922,155.891z"/>
	</g>
	<g id="gift">
		<g>
			<path fill="#1D1D1B" d="M55,158h4v4h-4V158z M61,162h4v-4h-4V162z M66,153v1h-1v2h-4v-3h-2v3h-4v-2h-1v-1h1.112
				c-0.017,0-0.005-0.217,0.042-0.385l0.342-1.772c0.146-0.521,0.589-0.843,1.104-0.843c0.21,0,0.422,0.071,0.614,0.183l2.387,1.439
				c0.158,0.091,0.292,0.215,0.398,0.357c0.106-0.143,0.24-0.261,0.397-0.353l2.392-1.437c0.192-0.11,0.405-0.17,0.615-0.17
				c0.515,0,0.958,0.348,1.104,0.869l0.339,1.72c0.047,0.171,0.06,0.391,0.042,0.391H66z M56.675,151.095
				c0,0-0.732,1.905-0.675,1.905c0,0,2.677,0,2.814,0L56.675,151.095z M63.326,151.031L61.314,153c0.138,0,2.686,0,2.686,0
				C64.061,153,63.326,151.031,63.326,151.031z"/>
		</g>
		<g opacity="0.3">
			<path fill="#1D1D1B" d="M65,158h-4v4h-2v-4h-4v-2h4v-3h2v3h4V158z"/>
		</g>
	</g>
	<g id="exclamation-sign">
		<path id="circle_x5F_exclamation_x5F_mark" fill="#1D1D1B" d="M36,150.229c-3.187,0-5.771,2.584-5.771,5.771
			s2.584,5.771,5.771,5.771s5.771-2.584,5.771-5.771S39.187,150.229,36,150.229z M37,159h-2v-1h2V159z M36.862,156.509
			C36.81,156.779,36.542,157,36.268,157h-0.535c-0.275,0-0.542-0.221-0.594-0.491l-0.579-3.018C34.507,153.221,34.69,153,34.965,153
			h2.07c0.275,0,0.458,0.221,0.406,0.491L36.862,156.509z"/>
	</g>
	<g id="asterisk">
		<polygon fill="#1D1D1B" points="497,131 494.414,131 496.242,129.172 494.828,127.758 493,129.586 493,127 491,127 491,129.586 
			489.172,127.758 487.757,129.172 489.585,131 487,131 487,133 489.586,133 487.758,134.828 489.172,136.242 491,134.414 491,137 
			493,137 493,134.415 494.827,136.242 496.242,134.828 494.414,133 497,133 		"/>
	</g>
	<g id="minus_1_">
		<rect id="minus" x="464" y="131" fill="#1D1D1B" width="9" height="3"/>
	</g>
	<g id="plus">
		<polygon fill="#1D1D1B" points="449,131 445,131 445,127 442,127 442,131 438,131 438,134 442,134 442,138 445,138 445,134 
			449,134 		"/>
	</g>
	<g id="resize-small">
		<polygon fill="#1D1D1B" points="417.293,133.293 414.343,136.242 415.758,137.657 418.707,134.707 420,136 420,132 416,132 		"/>
		<polygon fill="#1D1D1B" points="425.657,127.758 424.242,126.343 421.293,129.293 420,128 420,132 424,132 422.707,130.707 		"/>
	</g>
	<g id="resize-full">
		<path fill="#1D1D1B" d="M402,130l-1.292-1.292l-2.938,2.938l-1.416-1.416l2.938-2.938L398,126h4V130z M394.232,132.354
			l-2.939,2.939L390,134v4h4l-1.293-1.293l2.939-2.939L394.232,132.354z"/>
	</g>
	<g id="share-alt">
		<path fill="#1D1D1B" d="M372,136.008l6-4.479L372,127v2.708c-4.292,0.229-5.844,2.917-6,6.292c0.984-2.125,3.594-2.938,6-3
			V136.008z"/>
	</g>
	<g id="arrow-down">
		<polygon fill="#1D1D1B" points="349,132 349,126 346,126 346,132 343.038,132 347.486,138 351.983,132 		"/>
	</g>
	<g id="arrow-up">
		<polygon fill="#1D1D1B" points="324.535,126 320.038,132 323,132 323,138 326,138 326,132 328.983,132 		"/>
	</g>
	<g id="arrow-right">
		<polygon fill="#1D1D1B" points="300,137.008 306,132.528 300,128 300,131 294,131 294,134 300,134 		"/>
	</g>
	<g id="arrow-left">
		<polygon fill="#1D1D1B" points="282,131 276,131 276,128 270,132.528 276,137.008 276,134 282,134 		"/>
	</g>
	<g id="ban-circle">
		<path fill="#1D1D1B" d="M252,126.229c-3.187,0-5.771,2.584-5.771,5.771s2.584,5.771,5.771,5.771s5.771-2.584,5.771-5.771
			S255.187,126.229,252,126.229z M247.729,132c0-2.355,1.916-4.271,4.271-4.271c0.827,0,1.594,0.247,2.249,0.656l-5.865,5.863
			C247.976,133.594,247.729,132.827,247.729,132z M252,136.271c-0.803,0-1.546-0.236-2.188-0.623l5.837-5.836
			c0.386,0.643,0.622,1.385,0.622,2.188C256.271,134.355,254.355,136.271,252,136.271z"/>
	</g>
	<g id="ok-circle">
		<path fill="#1D1D1B" d="M228,127.729c2.355,0,4.271,1.916,4.271,4.271s-1.916,4.271-4.271,4.271s-4.271-1.916-4.271-4.271
			S225.645,127.729,228,127.729 M228,126.229c-3.187,0-5.771,2.584-5.771,5.771s2.584,5.771,5.771,5.771s5.771-2.584,5.771-5.771
			S231.187,126.229,228,126.229L228,126.229z"/>
		<polygon fill="#1D1D1B" points="225.501,132.635 226.633,131.504 227.499,132.37 229.543,130.326 230.674,131.457 227.5,134.631 
					"/>
	</g>
	<g id="remove-circle">
		<path fill="#1D1D1B" d="M204,127.729c2.355,0,4.271,1.916,4.271,4.271s-1.916,4.271-4.271,4.271s-4.271-1.916-4.271-4.271
			S201.645,127.729,204,127.729 M204,126.229c-3.187,0-5.771,2.584-5.771,5.771s2.584,5.771,5.771,5.771s5.771-2.584,5.771-5.771
			S207.187,126.229,204,126.229L204,126.229z"/>
		<polygon fill="#1D1D1B" points="203.999,132.806 202.647,134.157 201.842,133.353 203.194,132 201.841,130.647 202.646,129.842 
			203.999,131.194 205.352,129.842 206.157,130.647 204.804,132 206.156,133.353 205.352,134.158 		"/>
	</g>
	<g id="screenshot">
		<path fill="#1D1D1B" d="M185.678,131h-1.65h-0.062c-0.374-1.478-1.966-2.636-2.966-3.004v-0.073v-1.104V126h-2v0.818v1.104v0.076
			c-2,0.371-2.682,1.526-3.055,3.001h-0.071h-1.65H174v2h0.224h1.65h0.063c0.366,1.487,1.063,2.653,3.063,3.026v0.051v1.104V138h2
			v-0.818v-1.104v-0.048c1-0.371,2.607-1.539,2.974-3.029h0.054h1.65H186v-2H185.678z M181,135.062V133h-2v2.061
			c-1-0.322-1.78-1.087-2.097-2.061H179v-2h-2.089c0.321-0.962,1.089-1.715,2.089-2.034V131h2v-2.037c1,0.317,1.678,1.072,2,2.037
			h-2v2h2.008C182.69,133.977,182,134.743,181,135.062z"/>
	</g>
	<g id="info-sign">
		<path fill="#1D1D1B" d="M156,126.229c-3.187,0-5.771,2.584-5.771,5.771s2.584,5.771,5.771,5.771s5.771-2.584,5.771-5.771
			S159.187,126.229,156,126.229z M155,129h2v1h-2V129z M158,135h-4v-1h1v-2h-1v-1h3v3h1V135z"/>
	</g>
	<g id="question-sign">
		<path fill="#1D1D1B" d="M132,126.229c-3.187,0-5.771,2.584-5.771,5.771s2.584,5.771,5.771,5.771s5.771-2.584,5.771-5.771
			S135.187,126.229,132,126.229z M133,135h-2v-1h2V135z M133,133c0,0-1.375,0-2,0c-0.031-1.359,1.106-1.585,1.106-1.585
			c0.296-0.193,0.312-0.2,0.312-0.493c0-0.222-0.157-0.365-0.406-0.365c-0.404,0-0.601-0.033-0.623,0.346
			c-0.01,0.173-0.151,0.098-0.323,0.098c0,0-0.813,0-1.432,0c0-1.833,1.136-2.391,2.382-2.391c0.71,0,2.28,0.172,2.28,1.969
			S133,133,133,133z"/>
	</g>
	<g id="ok-sign">
		<path fill="#1D1D1B" d="M108,126.229c-3.187,0-5.771,2.584-5.771,5.771s2.584,5.771,5.771,5.771s5.771-2.584,5.771-5.771
			S111.187,126.229,108,126.229z M107.463,135.26l-2.766-2.77l1.745-1.744l1.021,1.021l2.361-2.361l1.743,1.745L107.463,135.26z"/>
	</g>
	<g id="remove-sign">
		<path fill="#1D1D1B" d="M84,126.229c-3.187,0-5.771,2.584-5.771,5.771s2.584,5.771,5.771,5.771s5.771-2.584,5.771-5.771
			S87.187,126.229,84,126.229z M87.535,133.414l-2.121,2.121L84,134.121l-1.414,1.414l-2.122-2.121L81.879,132l-1.414-1.414
			l2.121-2.122L84,129.878l1.414-1.413l2.122,2.121L86.122,132L87.535,133.414z"/>
	</g>
	<g id="minus-sign">
		<path fill="#1D1D1B" d="M60,126.229c-3.187,0-5.771,2.584-5.771,5.771s2.584,5.771,5.771,5.771s5.771-2.584,5.771-5.771
			S63.187,126.229,60,126.229z M63,133h-6v-2h6V133z"/>
	</g>
	<g id="plus-sign">
		<path fill="#1D1D1B" d="M36,126.229c-3.187,0-5.771,2.584-5.771,5.771s2.584,5.771,5.771,5.771s5.771-2.584,5.771-5.771
			S39.187,126.229,36,126.229z M39,133h-2v2h-2v-2h-2v-2h2v-2h2v2h2V133z"/>
	</g>
	<g id="chevron-right">
		<polygon fill-rule="evenodd" clip-rule="evenodd" fill="#1D1D1B" points="489.149,112.059 492.677,108.531 489.149,105.003 
			491.129,103.023 496.644,108.523 496.639,108.528 496.646,108.536 491.129,114.038 		"/>
	</g>
	<g id="chevron-left">
		<polygon fill-rule="evenodd" clip-rule="evenodd" fill="#1D1D1B" points="470.854,112.059 467.327,108.531 470.854,105.003 
			468.875,103.023 463.36,108.523 463.365,108.528 463.358,108.536 468.875,114.038 		"/>
	</g>
	<g id="eject">
		<path fill-rule="evenodd" clip-rule="evenodd" fill="#1D1D1B" d="M450,110.5c0-0.276-0.224-0.5-0.5-0.5h-10
			c-0.276,0-0.5,0.224-0.5,0.5v1c0,0.276,0.224,0.5,0.5,0.5h10c0.276,0,0.5-0.224,0.5-0.5V110.5z"/>
		<polygon fill-rule="evenodd" clip-rule="evenodd" fill="#1D1D1B" points="450,109 439,109 444.5,103.359 		"/>
	</g>
	<g id="step-forward">
		<path fill-rule="evenodd" clip-rule="evenodd" fill="#1D1D1B" d="M423.5,103h-1c-0.276,0-0.5,0.224-0.5,0.5v4.375L417,103v11
			l5-4.875v4.375c0,0.276,0.224,0.5,0.5,0.5h1c0.276,0,0.5-0.224,0.5-0.5v-10C424,103.224,423.776,103,423.5,103z"/>
	</g>
	<g id="fast-forward">
		<path fill-rule="evenodd" clip-rule="evenodd" fill="#1D1D1B" d="M401.5,103h-1c-0.276,0-0.5,0.224-0.5,0.5v4.375L395,103v4.875
			L390,103v11l5-4.875V114l5-4.875v4.375c0,0.276,0.224,0.5,0.5,0.5h1c0.276,0,0.5-0.224,0.5-0.5v-10
			C402,103.224,401.776,103,401.5,103z"/>
	</g>
	<g id="forward">
		<polygon fill-rule="evenodd" clip-rule="evenodd" fill="#1D1D1B" points="376.641,108.5 371,103 371,107.875 366,103 366,114 
			371,109.125 371,114 		"/>
	</g>
	<g id="stop">
		<path fill-rule="evenodd" clip-rule="evenodd" fill="#1D1D1B" d="M353,112.5c0,0.275-0.225,0.5-0.5,0.5h-8
			c-0.275,0-0.5-0.225-0.5-0.5v-8c0-0.275,0.225-0.5,0.5-0.5h8c0.275,0,0.5,0.225,0.5,0.5V112.5z"/>
	</g>
	<g id="pause">
		<path fill-rule="evenodd" clip-rule="evenodd" fill="#1D1D1B" d="M323,112.5c0,0.276-0.224,0.5-0.5,0.5h-2
			c-0.276,0-0.5-0.224-0.5-0.5v-8c0-0.276,0.224-0.5,0.5-0.5h2c0.276,0,0.5,0.224,0.5,0.5V112.5z"/>
		<path fill-rule="evenodd" clip-rule="evenodd" fill="#1D1D1B" d="M327,112.5c0,0.276-0.224,0.5-0.5,0.5h-2
			c-0.276,0-0.5-0.224-0.5-0.5v-8c0-0.276,0.224-0.5,0.5-0.5h2c0.276,0,0.5,0.224,0.5,0.5V112.5z"/>
	</g>
	<g id="play">
		<polygon fill-rule="evenodd" clip-rule="evenodd" fill="#1D1D1B" points="296,114 296,103 305,108.5 		"/>
	</g>
	<g id="backward">
		<polygon fill-rule="evenodd" clip-rule="evenodd" fill="#1D1D1B" points="282,103 277,107.875 277,103 271.359,108.5 277,114 
			277,109.125 282,114 		"/>
	</g>
	<g id="fast-backward">
		<path fill-rule="evenodd" clip-rule="evenodd" fill="#1D1D1B" d="M258,103l-5,4.875V103l-5,4.875V103.5c0-0.276-0.224-0.5-0.5-0.5
			h-1c-0.276,0-0.5,0.224-0.5,0.5v10c0,0.276,0.224,0.5,0.5,0.5h1c0.276,0,0.5-0.224,0.5-0.5v-4.375l5,4.875v-4.875l5,4.875V103z"/>
	</g>
	<g id="step-backward">
		<path fill-rule="evenodd" clip-rule="evenodd" fill="#1D1D1B" d="M231,103l-5,4.875V103.5c0-0.276-0.224-0.5-0.5-0.5h-1
			c-0.276,0-0.5,0.224-0.5,0.5v10c0,0.276,0.224,0.5,0.5,0.5h1c0.276,0,0.5-0.224,0.5-0.5v-4.375l5,4.875V103z"/>
	</g>
	<g id="move">
		<polygon fill="#1D1D1B" points="210,107.976 207,105.024 207,107 205,107 205,105 206.951,105 204,102 201,105 203,105 203,107 
			201,107 201,105.024 198,107.976 201,110.976 201,109 203,109 203,111 201,111 204,114 206.951,111 205,111 205,109 207,109 
			207,110.976 		"/>
	</g>
	<g id="check">
		<polygon fill="#1D1D1B" points="177.422,107.684 178.785,106.321 180.25,107.787 184.553,103.484 185.915,104.848 
			180.252,110.516 		"/>
		<path fill="#1D1D1B" d="M183,110.309V111c0,0.55-0.45,1-1,1h-5c-0.55,0-1-0.45-1-1v-5c0-0.55,0.45-1,1-1h3.492l1.774-1.774
			c-0.4-0.135-0.821-0.226-1.266-0.226h-3c-2.2,0-4,1.8-4,4v3c0,2.2,1.8,4,4,4h3c2.2,0,4-1.8,4-4v-1.691L183,110.309z"/>
	</g>
	<g id="share_1_">
		<path fill="#1D1D1B" d="M158.129,107.601c0,0-2.819-0.187-3.902,1.158c0.565-3.276,3.913-3.328,3.913-3.328l-0.006-2.165
			l3.592,3.188l-3.597,3.239V107.601z"/>
		<path fill="#1D1D1B" d="M159,110.998V111c0,0.55-0.45,1-1,1h-5c-0.55,0-1-0.45-1-1v-5c0-0.55,0.45-1,1-1h1.449
			c0.521-0.543,1.222-0.969,2.176-1.204L156.609,103H154c-2.2,0-4,1.8-4,4v3c0,2.2,1.8,4,4,4h3c2.2,0,4-1.8,4-4v-0.525L159,110.998z
			"/>
	</g>
	<g id="edit">
		<path fill="#1D1D1B" d="M130.906,108.894l4.053-4.052l1.131,1.131l-4.118,4.118l-1.61,0.499L130.906,108.894z M135.949,103.852
			l1.131-1.131L138,103l0.212,0.852l-1.132,1.131L135.949,103.852z"/>
		<path fill="#1D1D1B" d="M135,109.75V111c0,0.55-0.45,1-1,1h-5c-0.55,0-1-0.45-1-1v-5c0-0.55,0.45-1,1-1h3.113l1.864-1.864
			C133.663,103.056,130,103,130,103c-2.2,0-4,1.8-4,4v3c0,2.2,1.8,4,4,4h3c2.2,0,4-1.8,4-4v-2.25L135,109.75z"/>
	</g>
	<g id="tint">
		<path fill="#1D1D1B" d="M107.542,101.054c-1.108,3.556-4.371,5.514-4.371,8.892c0,2.474,2.155,3.907,4.371,4.021
			c2.079-0.114,4.371-1.575,4.371-4.052C111.913,106.541,108.604,104.609,107.542,101.054z M106.55,111.041
			c0,0-0.097,0.611-0.161,0.981c-1.271-0.37-1.776-1.124-1.961-2.163c-0.185-1.04,0.063-1.891,1.318-3.402
			c0,0-0.386,1.802-0.048,3.169C105.923,110.539,106.55,111.041,106.55,111.041z"/>
	</g>
	<g id="adjust">
		<path fill="#1D1D1B" d="M84,102.229c-3.187,0-5.771,2.584-5.771,5.771s2.584,5.771,5.771,5.771s5.771-2.584,5.771-5.771
			S87.187,102.229,84,102.229z M79.729,108c0-2.355,1.916-4.271,4.271-4.271v8.543C81.645,112.271,79.729,110.355,79.729,108z"/>
	</g>
	<g id="map-marker">
		<path fill="#1D1D1B" d="M64.779,106.699c0,0.843-0.28,1.73-0.696,2.585c-1.568,2.435-3.552,4.669-3.552,4.669
			s-2.281-2.156-3.739-4.713c-0.365-0.798-0.604-1.643-0.604-2.488c0-2.377,1.922-4.441,4.295-4.441S64.779,104.322,64.779,106.699z
			 M62.737,106.478c0-1.225-0.992-2.215-2.214-2.215s-2.214,0.99-2.214,2.215c0,1.224,0.992,2.214,2.214,2.214
			S62.737,107.701,62.737,106.478z"/>
	</g>
	<g id="pencil">
		<path fill="#1D1D1B" d="M30.94,110.814l2.229,2.229l-3.327,1.114L30.94,110.814z M31.843,110l6.142-6.142L40.126,106l-6.142,6.142
			L31.843,110z M38.844,103.001l0.941-0.966c0.087-0.087,0.203-0.135,0.327-0.135c0.123,0,0.239,0.048,0.326,0.134l1.53,1.53
			c0.179,0.18,0.179,0.473,0,0.651l-0.986,0.923L38.844,103.001z"/>
	</g>
	<g id="picture_1_">
		<path id="picture_4_" fill="#1D1D1B" d="M498,79.438c0-0.241-0.195-0.438-0.438-0.438h-11.125c-0.242,0-0.438,0.196-0.438,0.438
			v10.125c0,0.241,0.195,0.438,0.438,0.438h11.125c0.242,0,0.438-0.196,0.438-0.438V79.438z M497,85l-2.359-2.875l-2.932,3.178
			l0.744,1.557l-2.984-1.312L487,87.375V80h10V85z M490.762,82.498c0-0.742-0.602-1.342-1.342-1.342s-1.342,0.6-1.342,1.342
			s0.602,1.342,1.342,1.342S490.762,83.24,490.762,82.498z"/>
	</g>
	<g id="facetime-video">
		<path fill="#1D1D1B" d="M471,84.434v-0.867V80.75c0-0.412-0.338-0.75-0.75-0.75h-7.5c-0.412,0-0.75,0.338-0.75,0.75v6.5
			c0,0.412,0.338,0.75,0.75,0.75h7.5c0.412,0,0.75-0.338,0.75-0.75V84.434z"/>
		<polygon fill="#1D1D1B" points="474,81 471,84 474,87 		"/>
	</g>
	<g id="indent-right">
		<path fill-rule="evenodd" clip-rule="evenodd" fill="#1D1D1B" d="M440,80.5c0,0.275-0.225,0.5-0.5,0.5h-1
			c-0.275,0-0.5-0.225-0.5-0.5v-1c0-0.275,0.225-0.5,0.5-0.5h1c0.275,0,0.5,0.225,0.5,0.5V80.5z"/>
		<path fill-rule="evenodd" clip-rule="evenodd" fill="#1D1D1B" d="M444,83.5c0,0.275-0.225,0.5-0.5,0.5h-5
			c-0.275,0-0.5-0.225-0.5-0.5v-1c0-0.275,0.225-0.5,0.5-0.5h5c0.275,0,0.5,0.225,0.5,0.5V83.5z"/>
		<path fill-rule="evenodd" clip-rule="evenodd" fill="#1D1D1B" d="M442,86.5c0,0.275-0.225,0.5-0.5,0.5h-3
			c-0.275,0-0.5-0.225-0.5-0.5v-1c0-0.275,0.225-0.5,0.5-0.5h3c0.275,0,0.5,0.225,0.5,0.5V86.5z"/>
		<path fill-rule="evenodd" clip-rule="evenodd" fill="#1D1D1B" d="M445,89.5c0,0.275-0.225,0.5-0.5,0.5h-6
			c-0.275,0-0.5-0.225-0.5-0.5v-1c0-0.275,0.225-0.5,0.5-0.5h6c0.275,0,0.5,0.225,0.5,0.5V89.5z"/>
		<rect x="446" y="79" fill-rule="evenodd" clip-rule="evenodd" fill="#1D1D1B" width="1" height="11"/>
		<polygon fill="#1D1D1B" points="447.334,84.5 449,83.25 449,84 451,84 451,85 449,85 449,85.75 		"/>
	</g>
	<g id="indent-left">
		<path fill-rule="evenodd" clip-rule="evenodd" fill="#1D1D1B" d="M421,80.5c0,0.275-0.225,0.5-0.5,0.5h-1
			c-0.275,0-0.5-0.225-0.5-0.5v-1c0-0.275,0.225-0.5,0.5-0.5h1c0.275,0,0.5,0.225,0.5,0.5V80.5z"/>
		<path fill-rule="evenodd" clip-rule="evenodd" fill="#1D1D1B" d="M425,83.5c0,0.275-0.225,0.5-0.5,0.5h-5
			c-0.275,0-0.5-0.225-0.5-0.5v-1c0-0.275,0.225-0.5,0.5-0.5h5c0.275,0,0.5,0.225,0.5,0.5V83.5z"/>
		<path fill-rule="evenodd" clip-rule="evenodd" fill="#1D1D1B" d="M423,86.5c0,0.275-0.225,0.5-0.5,0.5h-3
			c-0.275,0-0.5-0.225-0.5-0.5v-1c0-0.275,0.225-0.5,0.5-0.5h3c0.275,0,0.5,0.225,0.5,0.5V86.5z"/>
		<path fill-rule="evenodd" clip-rule="evenodd" fill="#1D1D1B" d="M426,89.5c0,0.275-0.225,0.5-0.5,0.5h-6
			c-0.275,0-0.5-0.225-0.5-0.5v-1c0-0.275,0.225-0.5,0.5-0.5h6c0.275,0,0.5,0.225,0.5,0.5V89.5z"/>
		<rect x="417" y="79" fill-rule="evenodd" clip-rule="evenodd" fill="#1D1D1B" width="1" height="11"/>
		<polygon fill="#1D1D1B" points="416.666,84.5 415,83.25 415,84 413,84 413,85 415,85 415,85.75 		"/>
	</g>
	<g id="list">
		<path fill-rule="evenodd" clip-rule="evenodd" fill="#1D1D1B" d="M390,89.5c0,0.275,0.225,0.5,0.5,0.5h1
			c0.275,0,0.5-0.225,0.5-0.5v-1c0-0.275-0.225-0.5-0.5-0.5h-1c-0.275,0-0.5,0.225-0.5,0.5V89.5z"/>
		<path fill-rule="evenodd" clip-rule="evenodd" fill="#1D1D1B" d="M390,86.5c0,0.275,0.225,0.5,0.5,0.5h1
			c0.275,0,0.5-0.225,0.5-0.5v-1c0-0.275-0.225-0.5-0.5-0.5h-1c-0.275,0-0.5,0.225-0.5,0.5V86.5z"/>
		<path fill-rule="evenodd" clip-rule="evenodd" fill="#1D1D1B" d="M390,83.5c0,0.275,0.225,0.5,0.5,0.5h1
			c0.275,0,0.5-0.225,0.5-0.5v-1c0-0.275-0.225-0.5-0.5-0.5h-1c-0.275,0-0.5,0.225-0.5,0.5V83.5z"/>
		<path fill-rule="evenodd" clip-rule="evenodd" fill="#1D1D1B" d="M390,80.5c0,0.275,0.225,0.5,0.5,0.5h1
			c0.275,0,0.5-0.225,0.5-0.5v-1c0-0.275-0.225-0.5-0.5-0.5h-1c-0.275,0-0.5,0.225-0.5,0.5V80.5z"/>
		<path fill-rule="evenodd" clip-rule="evenodd" fill="#1D1D1B" d="M393,89.5c0,0.275,0.225,0.5,0.5,0.5h8
			c0.275,0,0.5-0.225,0.5-0.5v-1c0-0.275-0.225-0.5-0.5-0.5h-8c-0.275,0-0.5,0.225-0.5,0.5V89.5z"/>
		<path fill-rule="evenodd" clip-rule="evenodd" fill="#1D1D1B" d="M393,86.5c0,0.275,0.225,0.5,0.5,0.5h8
			c0.275,0,0.5-0.225,0.5-0.5v-1c0-0.275-0.225-0.5-0.5-0.5h-8c-0.275,0-0.5,0.225-0.5,0.5V86.5z"/>
		<path fill-rule="evenodd" clip-rule="evenodd" fill="#1D1D1B" d="M393,83.5c0,0.275,0.225,0.5,0.5,0.5h8
			c0.275,0,0.5-0.225,0.5-0.5v-1c0-0.275-0.225-0.5-0.5-0.5h-8c-0.275,0-0.5,0.225-0.5,0.5V83.5z"/>
		<path fill-rule="evenodd" clip-rule="evenodd" fill="#1D1D1B" d="M393,80.5c0,0.275,0.225,0.5,0.5,0.5h8
			c0.275,0,0.5-0.225,0.5-0.5v-1c0-0.275-0.225-0.5-0.5-0.5h-8c-0.275,0-0.5,0.225-0.5,0.5V80.5z"/>
	</g>
	<g id="align-justify">
		<path fill-rule="evenodd" clip-rule="evenodd" fill="#1D1D1B" d="M366,89.5c0,0.275,0.225,0.5,0.5,0.5h11
			c0.275,0,0.5-0.225,0.5-0.5v-1c0-0.275-0.225-0.5-0.5-0.5h-11c-0.275,0-0.5,0.225-0.5,0.5V89.5z"/>
		<path fill-rule="evenodd" clip-rule="evenodd" fill="#1D1D1B" d="M366,86.5c0,0.275,0.225,0.5,0.5,0.5h11
			c0.275,0,0.5-0.225,0.5-0.5v-1c0-0.275-0.225-0.5-0.5-0.5h-11c-0.275,0-0.5,0.225-0.5,0.5V86.5z"/>
		<path fill-rule="evenodd" clip-rule="evenodd" fill="#1D1D1B" d="M366,83.5c0,0.275,0.225,0.5,0.5,0.5h11
			c0.275,0,0.5-0.225,0.5-0.5v-1c0-0.275-0.225-0.5-0.5-0.5h-11c-0.275,0-0.5,0.225-0.5,0.5V83.5z"/>
		<path fill-rule="evenodd" clip-rule="evenodd" fill="#1D1D1B" d="M366,80.5c0,0.275,0.225,0.5,0.5,0.5h11
			c0.275,0,0.5-0.225,0.5-0.5v-1c0-0.275-0.225-0.5-0.5-0.5h-11c-0.275,0-0.5,0.225-0.5,0.5V80.5z"/>
	</g>
	<g id="align_x5F_right">
		<path fill-rule="evenodd" clip-rule="evenodd" fill="#1D1D1B" d="M347,80.5c0,0.275,0.225,0.5,0.5,0.5h6
			c0.275,0,0.5-0.225,0.5-0.5v-1c0-0.275-0.225-0.5-0.5-0.5h-6c-0.275,0-0.5,0.225-0.5,0.5V80.5z"/>
		<path fill-rule="evenodd" clip-rule="evenodd" fill="#1D1D1B" d="M343,83.5c0,0.275,0.225,0.5,0.5,0.5h10
			c0.275,0,0.5-0.225,0.5-0.5v-1c0-0.275-0.225-0.5-0.5-0.5h-10c-0.275,0-0.5,0.225-0.5,0.5V83.5z"/>
		<path fill-rule="evenodd" clip-rule="evenodd" fill="#1D1D1B" d="M345,86.5c0,0.275,0.225,0.5,0.5,0.5h8
			c0.275,0,0.5-0.225,0.5-0.5v-1c0-0.275-0.225-0.5-0.5-0.5h-8c-0.275,0-0.5,0.225-0.5,0.5V86.5z"/>
		<path fill-rule="evenodd" clip-rule="evenodd" fill="#1D1D1B" d="M342,89.5c0,0.275,0.225,0.5,0.5,0.5h11
			c0.275,0,0.5-0.225,0.5-0.5v-1c0-0.275-0.225-0.5-0.5-0.5h-11c-0.275,0-0.5,0.225-0.5,0.5V89.5z"/>
	</g>
	<g id="align-center">
		<path fill-rule="evenodd" clip-rule="evenodd" fill="#1D1D1B" d="M328,80.5c0,0.275-0.225,0.5-0.5,0.5h-7
			c-0.275,0-0.5-0.225-0.5-0.5v-1c0-0.275,0.225-0.5,0.5-0.5h7c0.275,0,0.5,0.225,0.5,0.5V80.5z"/>
		<path fill-rule="evenodd" clip-rule="evenodd" fill="#1D1D1B" d="M328,86.5c0,0.275-0.225,0.5-0.5,0.5h-7
			c-0.275,0-0.5-0.225-0.5-0.5v-1c0-0.275,0.225-0.5,0.5-0.5h7c0.275,0,0.5,0.225,0.5,0.5V86.5z"/>
		<path fill-rule="evenodd" clip-rule="evenodd" fill="#1D1D1B" d="M330,89.5c0,0.275-0.225,0.5-0.5,0.5h-11
			c-0.275,0-0.5-0.225-0.5-0.5v-1c0-0.275,0.225-0.5,0.5-0.5h11c0.275,0,0.5,0.225,0.5,0.5V89.5z"/>
		<path fill-rule="evenodd" clip-rule="evenodd" fill="#1D1D1B" d="M330,83.5c0,0.275-0.225,0.5-0.5,0.5h-11
			c-0.275,0-0.5-0.225-0.5-0.5v-1c0-0.275,0.225-0.5,0.5-0.5h11c0.275,0,0.5,0.225,0.5,0.5V83.5z"/>
	</g>
	<g id="align-left">
		<path fill-rule="evenodd" clip-rule="evenodd" fill="#1D1D1B" d="M301,80.5c0,0.275-0.225,0.5-0.5,0.5h-6
			c-0.275,0-0.5-0.225-0.5-0.5v-1c0-0.275,0.225-0.5,0.5-0.5h6c0.275,0,0.5,0.225,0.5,0.5V80.5z"/>
		<path fill-rule="evenodd" clip-rule="evenodd" fill="#1D1D1B" d="M305,83.5c0,0.275-0.225,0.5-0.5,0.5h-10
			c-0.275,0-0.5-0.225-0.5-0.5v-1c0-0.275,0.225-0.5,0.5-0.5h10c0.275,0,0.5,0.225,0.5,0.5V83.5z"/>
		<path fill-rule="evenodd" clip-rule="evenodd" fill="#1D1D1B" d="M303,86.5c0,0.275-0.225,0.5-0.5,0.5h-8
			c-0.275,0-0.5-0.225-0.5-0.5v-1c0-0.275,0.225-0.5,0.5-0.5h8c0.275,0,0.5,0.225,0.5,0.5V86.5z"/>
		<path fill-rule="evenodd" clip-rule="evenodd" fill="#1D1D1B" d="M306,89.5c0,0.275-0.225,0.5-0.5,0.5h-11
			c-0.275,0-0.5-0.225-0.5-0.5v-1c0-0.275,0.225-0.5,0.5-0.5h11c0.275,0,0.5,0.225,0.5,0.5V89.5z"/>
	</g>
	<g id="text-width">
		<path fill="#1D1D1B" d="M279.5,78H276h-3.5c-0.567,0-1.5,0-1.5,0v3c0,0,0,0,0.498,0c0.002-1,0.617-1,1.502-1h2v6.5l-1,0.5v1h2h2
			v-1l-1-0.5V80h2c0.885,0,1.5,0,1.502,1C281,81,281,81,281,81v-3C281,78,280.067,78,279.5,78z"/>
		<polygon fill="#1D1D1B" points="272,88.25 270.334,89.5 272,90.75 272,90 280,90 280,90.75 281.666,89.5 280,88.25 280,89 272,89 
					"/>
	</g>
	<g id="text-height">
		<path fill="#1D1D1B" d="M257.5,78H254h-3.5c-0.567,0-1.5,0-1.5,0v3c0,0,0,0,0.498,0c0.002-1,0.617-1,1.502-1h2v8.5l-1,0.5v1h2h2
			v-1l-1-0.5V80h2c0.885,0,1.5,0,1.502,1C259,81,259,81,259,81v-3C259,78,258.067,78,257.5,78z"/>
		<polygon fill="#1D1D1B" points="247.75,80 246.5,78.334 245.25,80 246,80 246,88 245.25,88 246.5,89.666 247.75,88 247,88 247,80 
					"/>
	</g>
	<g id="italic_2_">
		<path fill="#1D1D1B" d="M230.786,78.572L230.774,78h-2.359h-1.899v0.572c1,0.269,1.37,0.3,1.219,1.162L226,88.219
			c-0.114,0.646-1,1.12-2,1.209V90h5v-0.572c-1-0.089-1.208-0.531-1.094-1.178l1.281-8.25C229.188,80,229.596,78.841,230.786,78.572
			z"/>
	</g>
	<g id="bold_2_">
		<path fill="#1D1D1B" d="M205.634,83.75c0,0,1.137-0.63,1.137-2.58c0-1.955-1.562-3.16-3.062-3.16L199,78v0.715
			c1,0.235,1,0.391,1,1.145v8.275c0,0.565-0.5,0.895-1,0.975V90h5c1.55,0,3.625-1.281,3.625-3.061
			C207.625,84.439,205.634,83.75,205.634,83.75z M202,79c2.109,0,3.229,0.672,3.229,2c0,0.988-0.802,2-1.838,2S202,83,202,83
			S202,79.391,202,79z M203.609,88H202v-4c0,0,0.329,0,1.594,0s2.187,1.014,2.187,2.188C205.781,87.357,204.719,88,203.609,88z"/>
	</g>
	<g id="font">
		<path id="XMLID_2_" fill="#1D1D1B" d="M186,89.338V90h-4.17c0,0,0-0.355,0-0.662c0.75,0,1.002-0.771,0.799-1.321
			c-0.148-0.403-0.824-2.22-0.824-2.22h-3.91c0,0-0.574,1.455-0.918,2.348c-0.344,0.895,0.462,1.193,1.203,1.193
			c0,0.418,0,0.662,0,0.662h-3.649v-0.662c0,0,0.562-0.24,0.838-0.515c0.276-0.276,0.517-0.75,0.517-0.75l3.995-10.063h0.931
			l3.849,9.978c0,0,0.201,0.504,0.6,0.925C185.662,89.332,186,89.338,186,89.338z M181.56,84.787L180.4,81.62l-0.457-1.399
			l-1.787,4.566H181.56z"/>
	</g>
	<g id="camera">
		<path fill="#1D1D1B" d="M157.062,85c0,0.586-0.477,1.062-1.062,1.062s-1.062-0.477-1.062-1.062s0.477-1.062,1.062-1.062
			S157.062,84.414,157.062,85z M162,82v6c0,0.55-0.45,1-1,1h-10c-0.55,0-1-0.45-1-1v-6c0-0.55,0.45-1,1-1h1.5c0,0,1.016-2,2.5-2
			c0,0,0.5,0,2,0s2.5,2,2.5,2h1.5C161.55,81,162,81.45,162,82z M158.438,85c0-1.344-1.094-2.438-2.438-2.438
			s-2.438,1.094-2.438,2.438s1.094,2.438,2.438,2.438S158.438,86.344,158.438,85z M160,82h-1v1h1V82z"/>
		<rect x="159" y="82" opacity="0.5" fill="#1D1D1B" width="1" height="1"/>
	</g>
	<g id="print">
		<path fill="#1D1D1B" d="M135.474,81.708l-0.625,1.245h-5.922l-0.4-1.245l0.947-3.46c0.015-0.137,0.139-0.248,0.276-0.248h4.5
			c0.138,0,0.262,0.111,0.276,0.248L135.474,81.708z"/>
		<path fill="#1D1D1B" d="M134.811,88.242C134.777,88.109,134.638,88,134.5,88h-5c-0.138,0-0.277,0.109-0.311,0.242l-0.379,1.516
			C128.777,89.891,128.862,90,129,90h6c0.138,0,0.223-0.109,0.189-0.242L134.811,88.242z"/>
		<polygon fill="#1D1D1B" points="136,82 135,84 129,84 128,82 126,82 126,89 128,89 128,87 136,87 136.003,89 138,89 138,82 		"/>
	</g>
	<g id="bookmark_1_">
		<path id="bookmark_4_" fill="#1D1D1B" d="M104,78.5c0-0.275,0.225-0.5,0.5-0.5h8c0.275,0,0.5,0.225,0.5,0.5V90l-4.5-4.438
			l-4.5,4.444V78.5z"/>
	</g>
	<g id="book_2_">
		<polygon fill="#1D1D1B" points="80.75,78 79,79.75 79,90 88,90 88,80 80.5,80 81.5,79 89,79 89,89 90,88 90,78 		"/>
	</g>
	<g id="tags">
		<g id="tag_1_">
			<path id="tag_2_" fill="#1D1D1B" d="M59,78h-4.735c-0.139,0-0.254,0.112-0.254,0.252L54,83l7,7l5-5L59,78z M57.197,81.183
				c-0.394,0.395-1.032,0.395-1.425,0c-0.394-0.394-0.394-1.03,0-1.425c0.394-0.394,1.031-0.394,1.425,0
				C57.591,80.152,57.591,80.789,57.197,81.183z"/>
		</g>
		<polygon fill="#1D1D1B" points="62,78 61,78 68,85 63.5,89.5 64,90 69,85 		"/>
	</g>
	<g id="tag_3_">
		<path id="tag_4_" fill="#1D1D1B" d="M35,78h-4.735c-0.139,0-0.254,0.112-0.254,0.252L30,83l7,7l5-5L35,78z M33.197,81.183
			c-0.394,0.395-1.032,0.395-1.425,0c-0.394-0.394-0.394-1.03,0-1.425c0.394-0.394,1.031-0.394,1.425,0
			C33.591,80.152,33.591,80.789,33.197,81.183z"/>
	</g>
	<g id="barcode">
		<path fill="#1D1D1B" d="M487,64h-1V54h1V64z M491,66h1v-0.906h-1V66z M489,54h-1v10h1V54z M493,54h-2v10h2V54z M487,65v1h3v-1H487
			z M493,66h1v-0.906h-1V66z M495,65.094V66h2v-0.906H495z M497,54h-1v10h1h1V54H497z M495,54h-1v10h1V54z"/>
	</g>
	<g id="qrcode">
		<path fill="#1D1D1B" d="M464,56h1v1h-1V56z M472,59v1h2v1v1h-3v-1v-1v-1h-2v-3h-1v-2h1h5v5H472z M473,58v-3h-3v3H473z M471,57h1
			v-1h-1V57z M465,63h-1v1h1V63z M468,66h1v-1h-1V66z M465,61h2v5h-5v-5h2v-1h1V61z M463,62v3h3v-3H463z M463,60h-1v-1v-5h5v3h1v1
			h-1v1h-4V60z M463,58h3v-3h-3V58z M473,64h1v-1h-1V64z M471,65v1h2h1v-1h-1H471z M472,64v-1h-2v-1v-1v-1h-1h-2v1h2v1v1h-1v1h1v1h1
			h1v-1H472z"/>
	</g>
	<g id="volume-up">
		<path fill="#1D1D1B" d="M449.225,60.016c0,1.466-0.506,2.904-1.424,4.051l-0.063,0.079l-0.803-0.658l0.062-0.077
			c0.768-0.962,1.191-2.168,1.191-3.395c0-1.249-0.437-2.472-1.228-3.443l-0.065-0.08l0.82-0.635l0.062,0.076
			C448.711,57.085,449.225,58.535,449.225,60.016z M445.021,57.427c0.581,0.698,0.931,1.594,0.931,2.569
			c0,0.934-0.324,1.795-0.862,2.479l0.673,0.549c0.662-0.832,1.059-1.886,1.059-3.028c0-1.177-0.418-2.256-1.113-3.099
			L445.021,57.427z M438,58v4h3l3,2v-8l-3,2H438z"/>
	</g>
	<g id="volume-down">
		<path fill="#1D1D1B" d="M417,58l3-2v8l-3-2h-3v-4H417z M421.687,56.897L421,57.427c0.58,0.698,0.932,1.594,0.932,2.569
			c0,0.934-0.324,1.795-0.863,2.479l0.674,0.549c0.66-0.832,1.057-1.886,1.057-3.028C422.799,58.819,422.382,57.74,421.687,56.897z"
			/>
	</g>
	<g id="volume-off">
		<path fill="#1D1D1B" d="M393,58l3-2v8l-3-2h-3v-4H393z M401.121,58.586l-0.707-0.707L399,59.293l-1.414-1.415l-0.707,0.708
			L398.293,60l-1.414,1.414l0.707,0.707L399,60.707l1.414,1.414l0.707-0.707L399.707,60L401.121,58.586z"/>
	</g>
	<g id="headphones">
		<path fill="#1D1D1B" d="M378,60.25v0.25v2.75c0,0.138-0.112,0.25-0.25,0.25h-0.5c-0.138,0-0.25-0.112-0.25-0.25V60.5v-0.25
			c0-2.619-2.381-4.5-5-4.5s-5,1.881-5,4.5v0.25v2.75c0,0.138-0.112,0.25-0.25,0.25h-0.5c-0.138,0-0.25-0.112-0.25-0.25V60.5v-0.25
			c0-3.17,2.83-6,6-6S378,57.08,378,60.25z M370,61.2c0-0.11-0.09-0.2-0.2-0.2h-1.6c-0.11,0-0.2,0.09-0.2,0.2v4.6
			c0,0.11,0.09,0.2,0.2,0.2h1.6c0.11,0,0.2-0.09,0.2-0.2V61.2z M376,61.2c0-0.11-0.09-0.2-0.2-0.2h-1.6c-0.11,0-0.2,0.09-0.2,0.2
			v4.6c0,0.11,0.09,0.2,0.2,0.2h1.6c0.11,0,0.2-0.09,0.2-0.2V61.2z"/>
	</g>
	<g id="flag">
		<path fill="#1D1D1B" d="M353,55c0,1,0,2,0,5c-2,4-5-1-8,2c0-2,0-3,0-5C346,53,351,59,353,55z M344,55h-1v11h1V55z"/>
	</g>
	<g id="lock">
		<path fill="#1D1D1B" d="M328,58h-1v-2c0-1.1-0.9-2-2-2h-3c-1.1,0-2,0.9-2,2v2h-1c-0.55,0-1,0.45-1,1v6c0,0.55,0.45,1,1,1h9
			c0.55,0,1-0.45,1-1v-6C329,58.45,328.55,58,328,58z M322,56.5c0-0.275,0.225-0.5,0.5-0.5h2c0.275,0,0.5,0.225,0.5,0.5V58h-3V56.5z
			"/>
	</g>
	<g id="list-alt">
		<path fill="#1D1D1B" d="M304,64h-5v-1h5V64z M304,57h-5v1h5V57z M304,59h-5v1h5V59z M298,57h-1v1h1V57z M304,61h-5v1h5V61z
			 M306,54v2v9v1h-11v-1v-9v-2H306z M305,56h-9v9h9V56z M298,63h-1v1h1V63z M298,59h-1v1h1V59z M298,61h-1v1h1V61z"/>
	</g>
	<g id="refresh">
		<path fill="#1D1D1B" d="M276,64.271c-0.923,0-1.772-0.301-2.471-0.801l1.47-1.471H271v2v2l1.453-1.454
			c0.979,0.766,2.208,1.226,3.547,1.226c3.187,0,5.771-2.584,5.771-5.771h-1.5C280.271,62.355,278.355,64.271,276,64.271z"/>
		<path fill="#1D1D1B" d="M276,55.729c0.922,0,1.772,0.301,2.471,0.801L277,58h4v-4l-1.454,1.453
			c-0.979-0.765-2.208-1.225-3.546-1.225c-3.187,0-5.771,2.584-5.771,5.771h1.5C271.729,57.645,273.645,55.729,276,55.729z"/>
	</g>
	<g id="repeat">
		<path fill="#1D1D1B" d="M257.771,60c0,3.188-2.584,5.771-5.771,5.771s-5.771-2.584-5.771-5.771s2.584-5.771,5.771-5.771
			c1.339,0,2.57,0.458,3.548,1.224L257,54v4h-4l1.463-1.463c-0.694-0.503-1.539-0.809-2.463-0.809c-2.355,0-4.271,1.916-4.271,4.271
			s1.916,4.271,4.271,4.271s4.271-1.916,4.271-4.271H257.771z"/>
	</g>
	<g id="play-circle">
		<path fill="#1D1D1B" d="M228,55.729c2.355,0,4.271,1.916,4.271,4.271s-1.916,4.271-4.271,4.271s-4.271-1.916-4.271-4.271
			S225.645,55.729,228,55.729 M228,54.229c-3.187,0-5.771,2.584-5.771,5.771s2.584,5.771,5.771,5.771s5.771-2.584,5.771-5.771
			S231.187,54.229,228,54.229L228,54.229z"/>
		<polygon fill-rule="evenodd" clip-rule="evenodd" fill="#1D1D1B" points="227,62.027 227,58.018 229.969,60.022 		"/>
	</g>
	<g id="inbox_3_">
		<path fill="#1D1D1B" d="M210,61c-0.001,0-2-7-2-7h-8c0,0-1.99,7-1.991,7L198,65.75c0,0.138,0.112,0.25,0.25,0.25h11.5
			c0.138,0,0.25-0.112,0.25-0.25V61z M200.969,56h6.062L208,61h-2l-0.5,2h-3l-0.5-2h-2L200.969,56z"/>
	</g>
	<g id="upload">
		<path fill="#1D1D1B" d="M180,54.229c-3.188,0-5.771,2.584-5.771,5.771s2.583,5.771,5.771,5.771c3.187,0,5.771-2.584,5.771-5.771
			S183.187,54.229,180,54.229z M180,64.271c-2.355,0-4.271-1.916-4.271-4.271s1.916-4.271,4.271-4.271s4.271,1.916,4.271,4.271
			S182.355,64.271,180,64.271z"/>
		<g id="XMLID_1_">
			<g>
				<polygon fill="#1D1D1B" points="180,57 182.5,60 181,60 181,63 179,63 179,60 177.5,60 				"/>
			</g>
			<g>
			</g>
		</g>
	</g>
	<g id="download">
		<path fill="#1D1D1B" d="M156,54.229c-3.188,0-5.771,2.584-5.771,5.771s2.583,5.771,5.771,5.771c3.187,0,5.771-2.584,5.771-5.771
			S159.187,54.229,156,54.229z M156,64.271c-2.355,0-4.271-1.916-4.271-4.271s1.916-4.271,4.271-4.271s4.271,1.916,4.271,4.271
			S158.355,64.271,156,64.271z"/>
		<polygon fill="#1D1D1B" points="157,57 155,57 155,60 153.5,60 156,63 158.5,60 157,60 		"/>
	</g>
	<g id="download-alt">
		<path fill="#1D1D1B" d="M132.104,62L135,59h-2v-5h-3v5h-2l2.896,3H126v4h11v-4H132.104z M135.875,64h-1.75v-1h1.75V64z"/>
	</g>
	<g id="road_2_">
		<path fill="#1D1D1B" d="M109.615,66H115l-4.308-12h-2.083l0.198,3h-1.615l0.203-3h-2.088L101,66h5.385l0.403-4h2.424L109.615,66z
			 M106.878,61l0.27-3h1.705l0.27,3H106.878z"/>
	</g>
	<g id="time">
		<polygon fill="#1D1D1B" points="84,57 83,57 83,61 86,61 86,60 84,60 		"/>
		<path fill="#1D1D1B" d="M84,54.229c-3.187,0-5.771,2.584-5.771,5.771s2.584,5.771,5.771,5.771s5.771-2.584,5.771-5.771
			S87.187,54.229,84,54.229z M84,64.271c-2.355,0-4.271-1.916-4.271-4.271s1.916-4.271,4.271-4.271s4.271,1.916,4.271,4.271
			S86.355,64.271,84,64.271z"/>
	</g>
	<g id="file">
		<polygon fill="#1D1D1B" points="61,55 61,58 64,58 		"/>
		<path fill="#1D1D1B" d="M60,54h-4.75C55.112,54,55,54.112,55,54.25v11.5c0,0.138,0.112,0.25,0.25,0.25h8.5
			c0.138,0,0.25-0.112,0.25-0.25V59h-4V54z"/>
	</g>
	<g id="home">
		<polygon fill="#1D1D1B" points="36.562,53.562 30,60 32,60 32,66 35,66 35,62 38,62 38,66 41,66 41,60 43,60 		"/>
	</g>
	<g id="trash">
		<path fill="#1D1D1B" d="M497.75,31H495v-1c0-0.55-0.45-1-1-1h-3c-0.55,0-1,0.45-1,1v1h-2.75c-0.138,0-0.25,0.112-0.25,0.25v0.5
			c0,0.138,0.112,0.25,0.25,0.25h10.5c0.138,0,0.25-0.112,0.25-0.25v-0.5C498,31.112,497.888,31,497.75,31z M491.021,31H491v-1h3v1
			H491.021z M488,41c0,0.55,0.45,1,1,1h7c0.55,0,1-0.45,1-1v-8h-9V41z M495,34h1v7h-1V34z M493,34h1v7h-1V34z M491,34h1v7h-1V34z
			 M489,34h1v7h-1V34z"/>
		<path opacity="0.5" fill="#1D1D1B" d="M490,41h-1v-7h1V41z M492,34h-1v7h1V34z M494,34h-1v7h1V34z M496,34h-1v7h1V34z"/>
	</g>
	<g id="cog">
		<path fill="#1D1D1B" d="M468,41.732c-0.25,0-0.496-0.021-0.738-0.053l-0.379-1.515l-0.056-0.016
			c-0.326-0.093-0.641-0.224-0.935-0.387l-0.051-0.028l-1.337,0.803c-0.421-0.331-0.756-0.671-1.046-1.047l0.802-1.337l-0.028-0.051
			c-0.165-0.297-0.295-0.611-0.385-0.934l-0.016-0.056l-1.516-0.379c-0.034-0.278-0.053-0.507-0.053-0.74
			c0-0.25,0.021-0.496,0.053-0.738l1.516-0.379l0.016-0.056c0.09-0.321,0.22-0.636,0.386-0.935l0.028-0.051l-0.803-1.338
			c0.328-0.417,0.667-0.752,1.047-1.045l1.337,0.802l0.051-0.028c0.297-0.165,0.611-0.295,0.934-0.385l0.056-0.016l0.379-1.516
			c0.278-0.034,0.507-0.053,0.738-0.053c0.252,0,0.496,0.021,0.74,0.053l0.379,1.516l0.056,0.016c0.322,0.09,0.637,0.22,0.934,0.385
			l0.051,0.028l1.336-0.802c0.421,0.331,0.757,0.669,1.048,1.045l-0.803,1.338l0.028,0.051c0.163,0.294,0.294,0.608,0.387,0.935
			l0.016,0.056l1.515,0.379c0.034,0.278,0.053,0.507,0.053,0.738c0,0.252-0.021,0.498-0.053,0.74l-1.515,0.379l-0.016,0.056
			c-0.094,0.326-0.224,0.641-0.387,0.934l-0.027,0.051l0.802,1.336c-0.331,0.421-0.669,0.757-1.045,1.048l-1.337-0.804l-0.051,0.028
			c-0.293,0.163-0.607,0.294-0.936,0.388l-0.056,0.016l-0.379,1.515C468.461,41.714,468.233,41.732,468,41.732z M468,33.848
			c-1.184,0-2.146,0.963-2.146,2.146c0,1.185,0.963,2.148,2.146,2.148c1.185,0,2.148-0.964,2.148-2.148
			C470.148,34.811,469.185,33.848,468,33.848z"/>
	</g>
	<g id="signal">
		<path fill="#1D1D1B" d="M441,42h-2v-3h2V42z M444,37h-2v5h2V37z M447,34h-2v8h2V34z M450,30h-2v12h2V30z"/>
	</g>
	<g id="off">
		<path fill="#1D1D1B" d="M421,34.5c0,0.276-0.224,0.5-0.5,0.5h-1c-0.276,0-0.5-0.224-0.5-0.5v-4c0-0.276,0.224-0.5,0.5-0.5h1
			c0.276,0,0.5,0.224,0.5,0.5V34.5z M422,30.592v1.657c1.345,0.72,2.271,2.122,2.271,3.751c0,2.355-1.916,4.271-4.271,4.271
			s-4.271-1.916-4.271-4.271c0-1.629,0.927-3.031,2.271-3.751v-1.657c-2.2,0.814-3.771,2.925-3.771,5.408
			c0,3.188,2.584,5.771,5.771,5.771s5.771-2.584,5.771-5.771C425.771,33.517,424.2,31.406,422,30.592z"/>
	</g>
	<g id="zoom-out">
		<g id="search_7_">
			<path id="search_8_" fill="#1D1D1B" d="M402.131,40.684l-2.996-2.996c0.486-0.757,0.773-1.653,0.773-2.615
				c0-2.67-2.171-4.841-4.84-4.841c-2.668,0-4.84,2.171-4.84,4.841c0,2.668,2.172,4.838,4.84,4.838c0.964,0,1.861-0.286,2.616-0.773
				l2.996,2.996c0.1,0.1,0.264,0.1,0.363,0l1.087-1.087C402.23,40.947,402.23,40.783,402.131,40.684z M391.766,35.072
				c0-1.822,1.482-3.304,3.303-3.304c1.822,0,3.303,1.481,3.303,3.304c0,1.82-1.48,3.302-3.303,3.302
				C393.248,38.374,391.766,36.893,391.766,35.072z"/>
		</g>
		<rect x="393" y="34" fill="#1D1D1B" width="4" height="2"/>
	</g>
	<g id="zoom-in">
		<path fill="#1D1D1B" d="M378.131,40.684l-2.996-2.996c0.486-0.757,0.773-1.653,0.773-2.615c0-2.67-2.171-4.841-4.84-4.841
			c-2.668,0-4.84,2.171-4.84,4.841c0,2.668,2.172,4.838,4.84,4.838c0.964,0,1.861-0.286,2.616-0.773l2.996,2.996
			c0.1,0.1,0.264,0.1,0.363,0l1.087-1.087C378.23,40.947,378.23,40.783,378.131,40.684z M371.068,38.374
			c-1.82,0-3.303-1.481-3.303-3.302c0-1.822,1.482-3.304,3.303-3.304c1.822,0,3.303,1.481,3.303,3.304
			C374.371,36.893,372.891,38.374,371.068,38.374z"/>
		<polygon fill="#1D1D1B" points="372,33 370,33 370,34 369,34 369,36 370,36 370,37 372,37 372,36 373,36 373,34 372,34 		"/>
	</g>
	<g id="remove_1_">
		<polygon fill="#1D1D1B" points="352.94,38.82 350.119,35.999 352.939,33.179 350.821,31.06 348,33.881 345.18,31.061 
			343.061,33.178 345.882,35.999 343.061,38.82 345.179,40.939 348,38.118 350.822,40.939 		"/>
	</g>
	<g id="ok_1_">
		<polygon fill="#1D1D1B" points="318.28,37.464 320.402,35.343 322.469,37.41 328.536,31.343 330.657,33.465 322.473,41.656 		"/>
	</g>
	<g id="th-list">
		<path fill-rule="evenodd" clip-rule="evenodd" fill="#1D1D1B" d="M297,37.5c0,0.275-0.225,0.5-0.5,0.5h-2
			c-0.275,0-0.5-0.225-0.5-0.5v-2c0-0.275,0.225-0.5,0.5-0.5h2c0.275,0,0.5,0.225,0.5,0.5V37.5z M297,39.5
			c0-0.275-0.225-0.5-0.5-0.5h-2c-0.275,0-0.5,0.225-0.5,0.5v2c0,0.275,0.225,0.5,0.5,0.5h2c0.275,0,0.5-0.225,0.5-0.5V39.5z
			 M297,31.5c0-0.275-0.225-0.5-0.5-0.5h-2c-0.275,0-0.5,0.225-0.5,0.5v2c0,0.275,0.225,0.5,0.5,0.5h2c0.275,0,0.5-0.225,0.5-0.5
			V31.5z M306,35.5c0-0.275-0.225-0.5-0.5-0.5h-7c-0.275,0-0.5,0.225-0.5,0.5v2c0,0.275,0.225,0.5,0.5,0.5h7
			c0.275,0,0.5-0.225,0.5-0.5V35.5z M306,39.5c0-0.275-0.225-0.5-0.5-0.5h-7c-0.275,0-0.5,0.225-0.5,0.5v2
			c0,0.275,0.225,0.5,0.5,0.5h7c0.275,0,0.5-0.225,0.5-0.5V39.5z M306,31.5c0-0.275-0.225-0.5-0.5-0.5h-7
			c-0.275,0-0.5,0.225-0.5,0.5v2c0,0.275,0.225,0.5,0.5,0.5h7c0.275,0,0.5-0.225,0.5-0.5V31.5z"/>
	</g>
	<g id="th">
		<path fill-rule="evenodd" clip-rule="evenodd" fill="#1D1D1B" d="M281,31.5c0-0.275-0.225-0.5-0.5-0.5h-2
			c-0.275,0-0.5,0.225-0.5,0.5v2c0,0.275,0.225,0.5,0.5,0.5h2c0.275,0,0.5-0.225,0.5-0.5V31.5z M281,35.5c0-0.275-0.225-0.5-0.5-0.5
			h-2c-0.275,0-0.5,0.225-0.5,0.5v2c0,0.275,0.225,0.5,0.5,0.5h2c0.275,0,0.5-0.225,0.5-0.5V35.5z M281,39.5
			c0-0.275-0.225-0.5-0.5-0.5h-2c-0.275,0-0.5,0.225-0.5,0.5v2c0,0.275,0.225,0.5,0.5,0.5h2c0.275,0,0.5-0.225,0.5-0.5V39.5z
			 M277,31.5c0-0.275-0.225-0.5-0.5-0.5h-2c-0.275,0-0.5,0.225-0.5,0.5v2c0,0.275,0.225,0.5,0.5,0.5h2c0.275,0,0.5-0.225,0.5-0.5
			V31.5z M277,35.5c0-0.275-0.225-0.5-0.5-0.5h-2c-0.275,0-0.5,0.225-0.5,0.5v2c0,0.275,0.225,0.5,0.5,0.5h2
			c0.275,0,0.5-0.225,0.5-0.5V35.5z M277,39.5c0-0.275-0.225-0.5-0.5-0.5h-2c-0.275,0-0.5,0.225-0.5,0.5v2
			c0,0.275,0.225,0.5,0.5,0.5h2c0.275,0,0.5-0.225,0.5-0.5V39.5z M273,31.5c0-0.275-0.225-0.5-0.5-0.5h-2
			c-0.275,0-0.5,0.225-0.5,0.5v2c0,0.275,0.225,0.5,0.5,0.5h2c0.275,0,0.5-0.225,0.5-0.5V31.5z M273,35.5c0-0.275-0.225-0.5-0.5-0.5
			h-2c-0.275,0-0.5,0.225-0.5,0.5v2c0,0.275,0.225,0.5,0.5,0.5h2c0.275,0,0.5-0.225,0.5-0.5V35.5z M273,39.5
			c0-0.275-0.225-0.5-0.5-0.5h-2c-0.275,0-0.5,0.225-0.5,0.5v2c0,0.275,0.225,0.5,0.5,0.5h2c0.275,0,0.5-0.225,0.5-0.5V39.5z"/>
	</g>
	<g id="th-large">
		<path fill-rule="evenodd" clip-rule="evenodd" fill="#1D1D1B" d="M257,31.5c0-0.275-0.225-0.5-0.5-0.5h-4
			c-0.275,0-0.5,0.225-0.5,0.5v4c0,0.275,0.225,0.5,0.5,0.5h4c0.275,0,0.5-0.225,0.5-0.5V31.5z M257,37.5c0-0.275-0.225-0.5-0.5-0.5
			h-4c-0.275,0-0.5,0.225-0.5,0.5v4c0,0.275,0.225,0.5,0.5,0.5h4c0.275,0,0.5-0.225,0.5-0.5V37.5z M251,31.5
			c0-0.275-0.225-0.5-0.5-0.5h-4c-0.275,0-0.5,0.225-0.5,0.5v4c0,0.275,0.225,0.5,0.5,0.5h4c0.275,0,0.5-0.225,0.5-0.5V31.5z
			 M251,37.5c0-0.275-0.225-0.5-0.5-0.5h-4c-0.275,0-0.5,0.225-0.5,0.5v4c0,0.275,0.225,0.5,0.5,0.5h4c0.275,0,0.5-0.225,0.5-0.5
			V37.5z"/>
	</g>
	<g id="film">
		<path fill="#1D1D1B" d="M222,31v11h12V31H222z M224,41h-1v-1h1V41z M224,39h-1v-1h1V39z M224,37h-1v-1h1V37z M224,35h-1v-1h1V35z
			 M224,33h-1v-1h1V33z M231,41h-6v-4h6V41z M231,36h-6v-4h6V36z M233,41h-1v-1h1V41z M233,39h-1v-1h1V39z M233,37h-1v-1h1V37z
			 M233,35h-1v-1h1V35z M233,33h-1v-1h1V33z"/>
		<rect x="225" y="32" opacity="0.3" fill="#1D1D1B" width="6" height="4"/>
		<rect x="225" y="37" opacity="0.3" fill="#1D1D1B" width="6" height="4"/>
	</g>
	<g id="user">
		<path fill="#1D1D1B" d="M206,38v-1c0.55,0,1-1.45,1-2v-2c0-1.65-1.35-3-3-3s-3,1.35-3,3v2c0,0.55,0.45,2,1,2v1l-4,2.574
			c0,0,0,1.281,0,1.426h12c0-0.145,0-1.426,0-1.426L206,38z"/>
	</g>
	<g id="star-empty">
		<path fill="#1D1D1B" d="M185.734,34h-4.719l-1.461-4h-0.016l-1.47,4h-4.788l3.879,2.803l-1.457,4.478l-0.016,0.015l3.84-2.777
			l3.84,2.753l-1.455-4.489L185.734,34z M179.525,37.285l-1.923,1.391l0.734-2.257L176.373,35h2.395l0.777-2.114L180.316,35h2.344
			l-1.923,1.399l0.741,2.286L179.525,37.285z"/>
	</g>
	<g id="star_1_">
		<path id="star_4_" fill="#1D1D1B" d="M161.734,34l-3.822,2.781l1.455,4.489l-3.84-2.753l-3.84,2.777l0.016-0.015l1.457-4.478
			L149.281,34h4.788l1.47-4h0.016l1.461,4H161.734z"/>
	</g>
	<g id="heart_2_">
		<path fill="#1D1D1B" d="M132.495,32.511c-1.859-2.847-5.5-0.98-5.5,1.646c0,2.023,3.165,3.768,5.5,6.96
			c2.334-3.192,5.499-4.937,5.499-6.96C137.994,31.53,134.47,29.664,132.495,32.511z"/>
	</g>
	<g id="envelope_2_">
		<path fill="#1D1D1B" d="M108,37.031L102,31h12L108,37.031z M108,39l-2-2l-4,4h12l-4-4L108,39z M111,36l3,3v-6L111,36z M102,33v6
			l3-3L102,33z"/>
	</g>
	<g id="search_1_">
		<path id="search_4_" fill="#1D1D1B" d="M90.131,40.684l-2.997-2.996c0.487-0.757,0.774-1.653,0.774-2.615
			c0-2.67-2.171-4.841-4.84-4.841c-2.669,0-4.84,2.171-4.84,4.841c0,2.668,2.171,4.838,4.84,4.838c0.963,0,1.86-0.286,2.616-0.773
			l2.996,2.996c0.1,0.1,0.264,0.1,0.363,0l1.087-1.087C90.231,40.947,90.231,40.783,90.131,40.684z M79.766,35.072
			c0-1.822,1.482-3.304,3.303-3.304c1.821,0,3.302,1.481,3.302,3.304c0,1.82-1.48,3.302-3.302,3.302
			C81.248,38.374,79.766,36.893,79.766,35.072z"/>
	</g>
	<g id="music_1_">
		<path id="music_4_" fill="#1D1D1B" d="M65,30.192c0,0,0,8.042,0,8.808s-0.639,1.301-1.527,1.589
			c-1.053,0.341-2.098,0.026-2.335-0.704c-0.236-0.729,0.425-1.598,1.479-1.939c0.49-0.159,0.978-0.174,1.384-0.073v-5.209l-6,1.551
			c0,0,0,5.364,0,6.06c0,0.539-0.639,1.301-1.527,1.589c-1.053,0.341-2.098,0.026-2.335-0.704c-0.236-0.729,0.425-1.598,1.479-1.939
			c0.49-0.159,0.978-0.174,1.384-0.073v-6.89c0-0.139,0.108-0.28,0.241-0.316l7.518-1.931C64.892,29.972,65,30.055,65,30.192z"/>
	</g>
	<g id="glass_1_">
		<polygon id="glass" fill="#1D1D1B" points="37,35.5 42,30 30,30 35,35.5 35,41 32,41 32,42 40,42 40,41 37,41 		"/>
	</g>
</g>
</svg>
