<?xml version="1.0" standalone="no"?>
<!DOCTYPE svg PUBLIC "-//W3C//DTD SVG 1.1//EN" "http://www.w3.org/Graphics/SVG/1.1/DTD/svg11.dtd" >
<svg xmlns="http://www.w3.org/2000/svg">
<metadata>Generated by IcoMoon</metadata>
<defs>
<font id="lilicon" horiz-adv-x="1024">
<font-face units-per-em="1024" ascent="870.4" descent="-153.6" />
<missing-glyph horiz-adv-x="1024" />
<glyph unicode="&#x20;" horiz-adv-x="512" d="" />
<glyph unicode="&#xe900;" glyph-name="deals" d="M1005.67 542.976l-169.165 201.626c-16.179 19.251-41.062 29.594-68.608 28.262-23.859-1.126-47.821-10.854-67.482-27.341v0c-16.282-13.619-27.853-30.515-34.406-48.23-91.75 8.602-167.014 0.307-233.779-25.907l-31.949-12.493c-4.506-1.741-8.704-4.198-12.8-6.554-7.68 4.301-15.258 8.602-22.528 12.698-0.102 6.144-0.819 12.493-2.253 18.842-5.325 23.245-19.046 45.261-38.707 61.747-43.827 36.762-104.96 36.454-136.192-0.819l-169.472-201.626c-16.282-19.354-22.016-45.773-15.974-72.602 5.325-23.245 19.046-45.261 38.707-61.747v0c17.818-14.95 38.4-23.347 58.778-26.112 10.854-14.848 21.914-31.232 33.69-49.152 59.392-89.293 140.698-211.558 351.539-359.731l26.931-18.842c2.765-1.946 5.837-3.379 8.909-4.403l7.578-4.915c15.462-10.035 32.768-14.848 49.971-14.848 30.208 0 59.699 14.746 77.414 41.882 5.12 7.782 8.397 16.282 10.957 25.088 10.138-3.686 20.582-5.632 31.027-5.632 30.208 0 59.699 14.746 77.414 41.882 8.192 12.595 12.595 26.726 14.029 41.267 28.262 1.638 55.501 16.077 72.192 41.574 11.776 18.125 15.872 38.707 14.029 58.675 20.992 6.246 39.014 19.149 51.098 37.581 13.312 20.582 17.92 45.158 12.8 69.222s-19.251 44.749-39.834 58.061l-7.782 5.018 32.256 36.864c20.992 2.765 41.779 11.674 59.187 26.214 19.661 16.486 33.382 38.4 38.707 61.747 5.734 27.034-0.102 53.453-16.282 72.704zM750.49 685.926c12.083 10.035 24.064 10.138 26.317 8.704l169.062-201.421c1.229-2.765-0.922-14.541-13.005-24.678s-24.064-10.138-26.317-8.704l-2.765 3.379-166.298 198.042c-1.126 2.56 0.922 12.493 10.24 21.811 1.024 0.922 1.638 1.843 2.765 2.867zM239.616 685.722l7.373 8.806c2.15 1.434 11.469 1.126 21.811-5.325 1.638-1.024 3.277-1.843 4.915-3.174 12.083-10.138 14.234-21.914 13.21-24.474l-0.717-0.922-41.677-49.766-126.669-150.835c-2.56-1.638-14.541-1.536-26.624 8.499-12.083 10.138-14.234 22.016-13.21 24.474l161.587 192.717zM804.147 154.061c-7.066-10.854-22.221-14.029-32.973-7.066l-160.256 82.534c-7.885 5.12-18.432 2.867-23.552-5.018s-2.867-18.432 5.018-23.552l115.302-94.106c1.126-0.922 2.15-1.843 3.379-2.662 5.325-3.482 8.909-8.806 10.24-15.053s0.205-12.698-3.277-17.92c-7.066-10.854-22.221-14.029-33.075-7.066l-117.555 55.091c-7.885 5.12-18.432 2.867-23.552-5.018s-2.867-18.432 5.018-23.552l39.219-44.646c1.126-1.024 2.253-2.048 3.584-2.867 5.325-3.482 8.909-8.806 10.24-15.053s0.205-12.698-3.277-17.92c-7.066-10.854-22.221-14.029-33.075-7.066l-41.574 26.931c-200.090 140.493-277.299 256.614-333.619 341.299-7.168 10.752-14.029 20.992-20.89 30.925 2.662 2.355 5.53 4.506 7.885 7.373l161.075 192c1.126-0.614 2.355-1.331 3.584-1.946-9.421-24.986-9.011-52.019 1.638-76.698 20.89-48.026 74.24-72.499 124.314-56.832l57.037 17.818c12.186 3.789 25.395 0.512 34.406-8.602 1.843-1.843 3.994-3.584 6.246-4.915l211.149-132.096 85.402-54.989c5.325-3.482 8.909-8.806 10.24-15.053s0.205-12.698-3.277-17.92c-3.482-5.325-8.806-9.011-15.053-10.342s-12.698-0.205-17.92 3.277l-180.122 95.437c-7.885 5.12-18.432 2.867-23.552-5.018s-2.867-18.432 5.018-23.552l157.491-121.446c0.717-0.512 1.331-1.126 2.048-1.638 11.059-7.27 14.234-22.016 7.066-33.075zM800.563 404.122c-0.512 0.307-1.126 0.512-1.741 0.922l-194.048 121.344c-26.931 25.088-64.922 33.894-100.25 22.733l-57.037-17.818c-16.589-5.222-34.406 2.97-41.37 18.944-3.686 8.602-3.789 18.022-0.205 26.624s10.342 15.258 19.046 18.637l31.949 12.493c58.368 22.835 125.747 29.594 210.022 20.89 2.765-6.144 6.246-12.083 10.752-17.51l169.267-201.728c1.638-1.946 3.686-3.482 5.53-5.222l-18.637-21.299-20.89 13.005-12.39 7.987z" />
<glyph unicode="&#xe901;" glyph-name="deals-filled" d="M1014.067 552.602l-183.194 218.317c-18.842 22.426-58.368 20.582-87.859-4.198v0c-8.806-7.373-15.462-15.974-20.378-25.088-119.603 16.691-214.323 9.523-297.062-22.835l-34.611-13.517c-5.325-2.048-10.138-4.915-15.053-7.68-23.962 11.059-46.694 17.92-66.458 21.914-2.867 16.691-12.493 33.997-28.365 47.309-29.594 24.781-69.12 26.726-88.064 4.301l-183.091-218.317c-18.842-22.426-10.035-61.133 19.456-85.914 12.698-10.65 27.136-16.794 41.062-18.842 16.998-22.016 32.563-49.562 51.2-82.637 57.754-102.912 136.909-243.917 361.267-401.408l29.082-20.48c2.97-2.15 6.246-3.584 9.626-4.71l8.192-5.325c16.282-10.547 34.918-16.077 53.965-16.077 6.963 0 14.029 0.717 20.992 2.253 26.112 5.53 48.435 20.89 62.874 43.11 5.53 8.499 9.114 17.613 11.878 27.034 10.752-3.891 22.016-6.144 33.485-6.144 6.963 0 14.029 0.717 20.992 2.253 26.112 5.53 48.435 20.89 62.874 43.11 9.114 13.926 13.722 29.389 15.155 44.851 5.018 0.307 10.138 0.512 15.155 1.638 26.112 5.53 48.435 20.89 62.874 43.11 12.39 19.046 17.306 41.165 15.155 63.488 22.733 6.758 42.291 20.685 55.296 40.755 29.901 46.080 16.794 107.93-29.286 137.83l-14.746 9.523 45.978 79.667c11.059 3.072 22.221 8.602 32.154 16.998 29.594 24.678 38.298 63.283 19.456 85.709zM828.211 158.771c-3.686-5.734-9.523-9.728-16.282-11.162-6.758-1.536-13.722-0.205-19.456 3.482l-173.363 89.395c-8.499 5.53-19.968 3.072-25.6-5.427-5.53-8.499-3.072-19.968 5.427-25.6l124.826-101.888c1.126-1.024 2.253-2.048 3.584-2.867 11.981-7.782 15.36-23.757 7.578-35.738-3.686-5.734-9.523-9.728-16.282-11.162s-13.722-0.205-19.456 3.584l-127.181 59.392c-8.499 5.53-19.968 3.072-25.6-5.427-5.53-8.499-3.072-19.968 5.427-25.6l42.496-48.333c1.229-1.024 2.458-2.15 3.789-3.072 5.734-3.686 9.626-9.523 11.162-16.282 1.434-6.758 0.205-13.722-3.482-19.456s-9.523-9.728-16.282-11.162c-6.758-1.434-13.722-0.205-19.456 3.584l-44.954 29.184c-210.432 147.968-284.774 280.474-339.046 377.139-17.203 30.618-32.973 58.163-50.586 82.534l139.571 166.298c13.824-1.536 31.949-4.915 52.019-12.186-9.011-26.214-8.499-54.272 2.662-79.974 22.63-52.019 80.384-78.336 134.554-61.542l61.747 19.354c13.21 4.096 27.546 0.614 37.274-9.318 2.048-2.048 4.301-3.891 6.758-5.325l229.069-143.36 92.058-59.187c11.981-7.782 15.36-23.757 7.578-35.738-3.686-5.734-9.523-9.728-16.282-11.162s-13.722-0.205-19.456 3.584l-194.97 103.424c-8.499 5.53-19.968 3.072-25.6-5.427-5.53-8.602-3.072-19.968 5.427-25.6l170.496-131.379c0.819-0.614 1.434-1.331 2.253-1.843 5.734-3.686 9.626-9.523 11.162-16.282 1.434-6.861 0.102-13.722-3.584-19.456zM824.32 429.414c-0.614 0.41-1.331 0.614-2.048 1.024l-209.92 131.379c-29.082 27.136-70.246 36.659-108.442 24.576l-61.645-19.354c-18.125-5.53-37.274 3.174-44.749 20.48-3.994 9.318-4.096 19.456-0.205 28.877 3.891 9.318 11.162 16.486 20.582 20.173l34.611 13.517c71.885 28.16 156.467 33.69 266.138 17.715l20.48-5.427 154.624-184.218-39.219-67.789-15.872 9.933-14.336 9.114z" />
<glyph unicode="&#xe902;" glyph-name="outgoing" d="M596.173 778.598c-0.307-12.083 4.608-24.166 13.414-32.87 8.704-8.704 20.787-13.619 32.87-13.414l150.938-0.307-181.043-180.941c-18.534-18.534-14.643-45.466 2.867-62.976l32.87-32.87c17.51-17.51 44.442-21.299 62.976-2.867l181.043 181.043v-150.63c0-12.39 4.915-24.474 13.619-33.178s20.787-13.619 33.178-13.619l38.298 0.307c12.39 0 24.166 4.608 32.87 13.414 8.704 8.704 13.619 20.787 13.619 33.178l0.307 334.541c-0.307 12.083-5.12 24.166-13.926 32.87-8.704 8.602-20.787 13.414-32.666 13.414l-334.95 0.307c-12.083-0.307-24.166-5.12-32.87-13.926-8.704-8.704-13.619-20.787-13.619-32.666l0.205-38.81z" />
<glyph unicode="&#xe903;" glyph-name="incomming" d="M1023.693 521.267c0.307 12.083-4.608 24.166-13.414 32.87-8.704 8.704-20.787 13.619-32.87 13.414l-150.938 0.307 181.043 181.043c18.534 18.432 14.643 45.466-2.765 62.874l-32.973 32.973c-17.51 17.408-44.442 21.299-62.976 2.765l-181.043-180.941v150.63c0 12.39-4.915 24.474-13.619 33.178s-20.787 13.619-33.178 13.619l-38.298-0.307c-12.39 0-24.166-4.608-32.87-13.414-8.704-8.704-13.619-20.787-13.619-33.178l-0.307-334.541c0.307-12.083 5.12-24.166 13.926-32.87 8.704-8.704 20.787-13.619 32.666-13.619l335.053-0.307c12.083 0.307 24.166 5.12 32.87 13.926 8.704 8.704 13.619 20.787 13.619 32.666l-0.307 38.912z" />
<glyph unicode="&#xe904;" glyph-name="incomming-down" d="M840.192 454.502c-11.264 11.878-27.546 18.739-44.339 18.637-16.691 0-32.973-6.861-44.339-18.637l-144.998-144.384v347.136c0.102 35.43-29.594 57.651-62.874 57.651h-63.386c-33.485-0.102-62.976-22.221-62.976-57.754l-0.102-347.034-144.384 144.384c-11.878 11.878-28.16 18.739-44.851 18.739s-32.973-6.861-44.851-18.739l-36.454-36.966c-11.878-11.878-18.739-27.546-18.637-44.339 0-16.691 6.861-32.973 18.739-44.851l320.41-321.024c11.878-11.264 28.058-18.227 44.851-18.125 16.691 0 32.973 6.861 44.339 18.227l321.434 320.922c11.264 11.878 18.227 28.058 18.125 44.851 0 16.691-6.861 32.973-18.227 44.339l-37.478 36.966z" />
<glyph unicode="&#xe905;" glyph-name="outgoing-up" d="M877.773 286.464c11.366 11.366 18.227 27.648 18.227 44.339 0.102 16.794-6.861 32.973-18.125 44.851l-321.536 320.922c-11.366 11.366-27.648 18.227-44.339 18.227-16.794 0.102-32.973-6.861-44.851-18.125l-320.41-321.024c-11.878-11.878-18.739-28.16-18.739-44.851-0.102-16.794 6.758-32.461 18.637-44.339l36.454-36.966c11.878-11.878 28.16-18.739 44.851-18.739s32.973 6.861 44.851 18.739l144.384 144.384 0.102-347.034c0-35.533 29.594-57.651 62.976-57.754h63.181c33.382 0 62.976 22.221 62.874 57.651v347.136l144.998-144.384c11.366-11.776 27.648-18.637 44.339-18.637 16.794-0.102 33.075 6.758 44.339 18.637l37.786 36.966z" />
<glyph unicode="&#xe906;" glyph-name="phone-filled" d="M114.176 841.472c-35.635-15.258-58.88-56.013-77.107-88.781-23.245-42.906-37.069-86.528-37.069-135.27 0-67.686 27.648-128.717 50.176-190.566 15.974-44.339 35.635-87.245 60.314-127.283 76.39-123.597 225.485-272.691 349.184-348.979 40.038-24.678 82.944-44.339 127.283-60.314 61.85-22.528 122.88-50.176 190.566-50.176 48.742 0 92.365 13.824 135.27 37.069 32.768 18.227 73.421 41.472 88.678 77.107 10.957 23.962 22.528 74.957 22.528 101.069 0 5.12 0 10.138-2.15 15.258-5.12 15.258-40.755 31.232-55.296 38.502-41.472 23.245-83.661 45.773-124.416 69.837-18.944 11.674-42.189 33.485-64.717 33.485-44.339 0-109.056-131.686-148.378-131.686-19.661 0-45.056 18.227-62.566 28.365-132.301 73.421-223.949 165.069-297.37 297.472-10.138 17.408-28.365 42.906-28.365 62.566 0 39.322 131.686 104.038 131.686 148.378 0 22.528-21.811 45.773-33.485 64.717-23.962 40.755-46.592 82.944-69.837 124.314-7.27 14.541-23.245 50.176-38.502 55.296-5.12 2.15-10.138 2.15-15.258 2.15-26.214 0-77.21-11.674-101.171-22.528z" />
<glyph unicode="&#xe907;" glyph-name="asterix" d="M789.811 244.275c-4.506 16.691-15.155 30.618-30.003 39.219l-118.784 68.608 118.682 68.608c14.95 8.602 25.6 22.528 30.106 39.219 4.403 16.691 2.15 33.997-6.451 48.845-8.602 14.95-22.528 25.6-39.219 30.106-16.691 4.403-33.997 2.15-48.845-6.451l-118.784-68.71v137.114c0 35.533-28.979 64.512-64.512 64.512s-64.512-28.979-64.512-64.512v-137.011l-118.682 68.608c-14.95 8.602-32.256 10.854-48.947 6.451-16.691-4.506-30.515-15.155-39.117-30.003-8.602-14.95-10.854-32.256-6.451-48.947 4.506-16.691 15.155-30.515 30.003-39.117l118.682-68.813-118.682-68.608c-14.95-8.602-25.6-22.528-30.106-39.219s-2.15-34.099 6.451-48.947c11.571-19.866 32.973-32.256 55.91-32.256 11.264 0 22.426 2.97 32.154 8.704l118.784 68.608v-137.114c0-35.533 28.979-64.512 64.512-64.512s64.512 28.979 64.512 64.512v137.011l118.682-68.608c9.83-5.632 20.992-8.704 32.154-8.704 5.734 0 11.469 0.717 16.794 2.253 16.691 4.506 30.618 15.155 39.117 30.003 8.704 15.155 11.059 32.563 6.554 49.152z" />
<glyph unicode="&#xe908;" glyph-name="edit" d="M281.395 120.371c10.547-10.547 14.541-25.293 11.776-39.014l459.981 459.981-50.79 50.79-459.981-459.878c13.722 2.662 28.467-1.229 39.014-11.878zM1016.627 657.562c-15.974 43.93-52.634 80.691-84.992 112.947-32.358 32.358-69.018 69.018-112.947 84.992-69.427 25.293-125.542-10.854-160.256-45.67l-50.79-50.79 312.422-312.422 50.79 50.79c34.816 34.816 70.963 90.829 45.773 160.154zM738.406 729.856c25.293 25.293 35.533 21.606 41.574 19.456 20.378-7.373 48.845-35.84 71.68-58.675s51.302-51.302 58.675-71.68c2.253-6.042 5.939-16.179-19.456-41.574l-152.474 152.474zM804.045 490.547l-478.822-478.822c-6.963-6.963-15.462-11.776-23.962-13.517l-97.997-20.275v64.307h-64.41l20.275 97.997c1.741 8.499 6.554 16.998 13.517 23.962l478.822 478.822-79.974 79.974-478.72-478.822c-22.63-22.63-37.99-50.688-44.237-80.998l-45.568-220.058c-6.042-28.979 2.458-58.368 22.63-78.541s49.562-28.672 78.541-22.63l220.058 45.568c30.31 6.246 58.266 21.606 80.998 44.237l478.822 478.822-79.974 79.974z" />
<glyph unicode="&#xe909;" glyph-name="edit-line" d="M281.395 120.371c10.547-10.547 14.541-25.293 11.776-39.014l459.981 459.981-50.79 50.79-459.981-459.878c13.722 2.662 28.467-1.229 39.014-11.878zM1016.627 657.562c-15.974 43.93-52.634 80.691-84.992 112.947-32.358 32.358-69.018 69.018-112.947 84.992-69.427 25.293-125.542-10.854-160.256-45.67l-50.79-50.79 312.422-312.422 50.79 50.79c34.816 34.816 70.963 90.829 45.773 160.154zM738.406 729.856c25.293 25.293 35.533 21.606 41.574 19.456 20.378-7.373 48.845-35.84 71.68-58.675s51.302-51.302 58.675-71.68c2.253-6.042 5.939-16.179-19.456-41.574l-152.474 152.474zM804.045 490.547l-478.822-478.822c-6.963-6.963-15.462-11.776-23.962-13.517l-97.997-20.275v64.307h-64.41l20.275 97.997c1.741 8.499 6.554 16.998 13.517 23.962l478.822 478.822-79.974 79.974-478.72-478.822c-22.63-22.63-37.99-50.688-44.237-80.998l-45.568-220.058c-6.042-28.979 2.458-58.368 22.63-78.541s49.562-28.672 78.541-22.63l220.058 45.568c30.31 6.246 58.266 21.606 80.998 44.237l478.822 478.822-79.974 79.974zM987.034-160h-493.568c-20.378 0-36.966 16.486-36.966 36.966 0 20.378 16.486 36.966 36.966 36.966h493.568c20.378 0 36.966-16.486 36.966-36.966s-16.486-36.966-36.966-36.966z" />
<glyph unicode="&#xe90a;" glyph-name="trashcan" d="M936.55 704.154h-224.768c0 89.907-69.939 159.846-159.846 159.846h-79.872c-89.907 0-159.846-69.939-159.846-159.846h-224.768c-30.003 0-49.971-19.968-49.971-49.971s19.968-49.971 49.971-49.971h30.003v-714.342c0-30.003 19.968-49.971 49.971-49.971h689.357c30.003 0 49.971 19.968 49.971 49.971v714.342h30.003c30.003 0 49.971 19.968 49.971 49.971s-20.173 49.971-50.176 49.971zM477.082 764.058h79.872c34.918 0 59.904-24.986 59.904-59.904h-199.782c0 34.918 24.986 59.904 60.006 59.904zM811.725-55.142h-589.414v664.371h589.414v-664.371zM362.189 544.307c-30.003 0-49.971-19.968-49.971-49.971v-444.518c0-30.003 19.968-49.971 49.971-49.971s49.971 19.968 49.971 49.971v444.518c-0.102 30.003-20.070 49.971-49.971 49.971zM661.811 544.307c-30.003 0-49.971-19.968-49.971-49.971v-444.518c0-30.003 19.968-49.971 49.971-49.971s49.971 19.968 49.971 49.971v444.518c0 30.003-19.968 49.971-49.971 49.971zM512 544.307c-30.003 0-49.971-19.968-49.971-49.971v-444.518c0-30.003 19.968-49.971 49.971-49.971s49.971 19.968 49.971 49.971v444.518c0 30.003-19.968 49.971-49.971 49.971z" />
<glyph unicode="&#xe90b;" glyph-name="calender" d="M743.526 761.6h-34.099v53.658c0 29.286-19.456 48.742-48.742 48.742s-48.742-19.456-48.742-48.742v-53.658h-199.987v53.658c0 29.286-19.456 48.742-48.742 48.742s-48.845-19.456-48.845-48.742v-53.658h-34.099c-87.757 0-160.87-73.114-160.87-160.87v-599.757c0-87.757 73.114-160.87 160.87-160.87h463.258c87.757 0 160.87 73.114 160.87 160.87v599.757c4.915 87.757-68.198 160.87-160.87 160.87zM743.526-67.328h-463.258c-34.099 0-63.386 29.286-63.386 63.386v555.827h594.944v-555.93c-0.102-34.099-29.286-63.283-68.301-63.283zM524.083 498.33h-19.456c-29.286 0-48.742-19.456-48.742-48.742s19.456-48.742 48.742-48.742h19.456c29.286 0 48.742 19.456 48.742 48.742 0 29.184-24.371 48.742-48.742 48.742zM694.784 498.33h-19.456c-29.286 0-48.742-19.456-48.742-48.742s19.456-48.742 48.742-48.742h19.456c29.286 0 48.742 19.456 48.742 48.742 0 29.184-19.558 48.742-48.742 48.742zM348.57 356.915h-19.456c-29.286 0-48.742-19.456-48.742-48.742s19.456-48.742 48.742-48.742h19.456c29.286 0 48.742 19.456 48.742 48.742 0 29.184-19.558 48.742-48.742 48.742zM524.083 356.915h-19.456c-29.286 0-48.742-19.456-48.742-48.742s19.456-48.742 48.742-48.742h19.456c29.286 0 48.742 19.456 48.742 48.742 0 29.184-24.371 48.742-48.742 48.742zM694.784 356.915h-19.456c-29.286 0-48.742-19.456-48.742-48.742s19.456-48.742 48.742-48.742h19.456c29.286 0 48.742 19.456 48.742 48.742 0 29.184-19.558 48.742-48.742 48.742zM348.57 220.314h-19.456c-29.286 0-48.742-19.456-48.742-48.742s19.456-48.742 48.742-48.742h19.456c29.286 0 48.742 19.456 48.742 48.742s-19.558 48.742-48.742 48.742zM524.083 220.314h-19.456c-29.286 0-48.742-19.456-48.742-48.742s19.456-48.742 48.742-48.742h19.456c29.286 0 48.742 19.456 48.742 48.742s-24.371 48.742-48.742 48.742zM694.784 220.314h-19.456c-29.286 0-48.742-19.456-48.742-48.742s19.456-48.742 48.742-48.742h19.456c29.286 0 48.742 19.456 48.742 48.742s-19.558 48.742-48.742 48.742zM348.57 83.814h-19.456c-29.286 0-48.742-19.456-48.742-48.742s19.456-48.742 48.742-48.742h19.456c29.286 0 48.742 19.456 48.742 48.742 0 29.184-19.558 48.742-48.742 48.742zM524.083 83.814h-19.456c-29.286 0-48.742-19.456-48.742-48.742s19.456-48.742 48.742-48.742h19.456c29.286 0 48.742 19.456 48.742 48.742 0 29.184-24.371 48.742-48.742 48.742z" />
<glyph unicode="&#xe90c;" glyph-name="firstday" d="M743.526 761.6h-34.099v53.658c0 29.286-19.456 48.742-48.742 48.742s-48.742-19.456-48.742-48.742v-53.658h-199.987v53.658c0 29.286-19.456 48.742-48.742 48.742s-48.845-19.456-48.845-48.742v-53.658h-34.099c-87.757 0-160.87-73.114-160.87-160.87v-599.757c0-87.757 73.114-160.87 160.87-160.87h463.258c87.757 0 160.87 73.114 160.87 160.87v599.757c4.915 87.757-68.198 160.87-160.87 160.87zM743.526-67.328h-463.258c-34.099 0-63.386 29.286-63.386 63.386v555.827h594.944v-555.93c-0.102-34.099-29.286-63.283-68.301-63.283zM570.675 468.019h-60.826c-1.126 0-1.946-0.922-1.946-1.946 0 0 0 0 0 0 0-35.738-38.707-64.922-86.938-65.843-1.126 0-1.946-0.922-1.946-1.946v-88.781c0-1.126 0.922-1.946 1.946-1.946h26.726c10.854 0 21.197 0.614 30.72 1.843 10.138 1.331 19.763 3.482 28.672 6.451 0 0 0 0 0.102 0v-270.643c0-1.126 0.922-1.946 1.946-1.946h94.003c1.126 0 1.946 0.922 1.946 1.946v420.864c0 1.126-0.922 1.946-1.946 1.946h-32.461z" />
<glyph unicode="&#xe90d;" glyph-name="tomorrow" d="M765.85 761.6h-34.099v53.658c0 29.286-19.456 48.742-48.742 48.742s-48.742-19.456-48.742-48.742v-53.658h-200.090v53.658c0 29.286-19.456 48.742-48.742 48.742s-48.742-19.456-48.742-48.742v-53.658h-34.099c-87.757 0-160.87-73.114-160.87-160.87v-179.2h97.485v130.355h594.944v-555.93c0-34.099-29.286-63.386-68.301-63.386h-463.258c-34.099 0-63.386 29.286-63.386 63.386v67.072h-97.485v-62.157c0-87.757 73.114-160.87 160.87-160.87h463.258c87.757 0 160.87 73.114 160.87 160.87v599.859c4.915 87.757-68.301 160.87-160.87 160.87zM337.306 23.91v138.24h-226.611c-7.373 0-13.722 6.349-13.722 13.722v132.813c0 7.373 6.349 13.619 13.722 13.619h226.509v138.24c0 7.373 5.018 9.626 10.752 5.222l278.323-215.347c5.837-4.506 5.734-11.878 0-16.282l-278.221-215.347c-5.734-4.506-10.752-2.15-10.752 5.12z" />
<glyph unicode="&#xe90e;" glyph-name="cog" d="M969.728 406.272l-90.624 23.859c-2.765 12.8-6.144 25.395-10.138 37.581l66.56 65.946c21.402 22.733 34.816 48.23 19.866 74.24-14.95 25.907-45.568 27.136-74.24 19.866l-90.419-24.678c-8.704 9.728-17.92 18.842-27.546 27.546l24.576 90.419c7.168 30.413 6.042 59.187-19.968 74.24-25.907 14.95-53.043 0.717-74.138-19.968l-65.946-66.458c-12.186 3.994-24.883 7.066-37.581 9.83l-23.757 91.034c-9.011 29.798-24.371 54.272-54.272 54.272-30.003 0-46.285-25.907-54.374-54.272l-23.859-90.829c-12.698-2.662-25.395-5.837-37.581-9.83l-65.946 66.56c-22.733 21.402-48.23 34.816-74.24 19.866-25.907-15.053-27.136-45.568-19.866-74.24l24.678-90.419c-9.728-8.704-18.842-17.92-27.546-27.546l-90.419 24.678c-30.31 7.168-59.187 6.042-74.138-19.866-14.95-26.010-0.717-53.146 19.866-74.24l66.458-65.946c-3.994-12.288-7.373-24.883-10.035-37.683l-90.829-23.962c-29.901-9.011-54.272-24.371-54.272-54.272 0-30.003 25.907-46.285 54.272-54.272l90.624-23.859c2.662-12.8 6.042-25.293 10.035-37.581l-66.458-65.946c-21.402-22.733-34.816-48.333-19.866-74.24 14.95-26.010 45.568-27.136 74.138-19.866l90.419 24.576c8.704-9.626 17.92-18.842 27.546-27.546l-24.678-90.419c-7.168-30.31-6.042-59.187 19.866-74.138 26.010-15.053 53.043-0.819 74.138 19.866l65.946 66.56c12.288-3.994 24.883-7.475 37.683-10.138l23.859-90.522c9.011-29.901 24.371-54.272 54.374-54.272 29.901 0 46.285 25.907 54.272 54.272l23.859 90.624c12.8 2.662 25.395 6.042 37.683 10.138l65.946-66.56c22.733-21.402 48.23-34.918 74.24-19.866 25.907 14.95 27.034 45.568 19.866 74.138l-24.678 90.419c9.728 8.704 18.842 17.92 27.546 27.546l90.419-24.576c30.413-7.168 59.29-6.042 74.24 19.866 14.95 26.010 0.717 53.043-19.866 74.24l-66.56 65.946c3.994 12.288 7.373 24.781 10.138 37.581l90.726 23.757c29.901 9.011 54.272 24.371 54.272 54.272 0 30.003-25.907 46.285-54.272 54.272zM512 196.864c-85.709 0-155.136 69.427-155.136 155.136s69.427 155.136 155.136 155.136 155.136-69.427 155.136-155.136-69.427-155.136-155.136-155.136z" />
<glyph unicode="&#xe90f;" glyph-name="postpone" d="M751.923 600.832c-16.384 16.384-43.008 16.282-59.29-0.205l-164.966-165.888c-5.018 1.024-10.342 1.638-15.667 1.638-26.931 0-50.688-13.926-64.41-34.918h-152.064c-23.142 0-41.984-18.739-41.984-41.984 0-23.142 18.739-41.984 41.984-41.984h152.064c13.722-20.992 37.376-34.918 64.41-34.918 42.394 0 76.8 34.406 76.8 76.8 0 5.53-0.614 10.854-1.741 16.077l164.966 165.888c16.384 16.589 16.384 43.11-0.102 59.494zM976.794 555.878c-25.395 60.109-61.747 113.971-108.134 160.358-46.285 46.285-100.25 82.637-160.358 108.134-62.157 26.317-128.205 39.629-196.301 39.629s-134.144-13.312-196.403-39.629c-60.109-25.395-113.971-61.747-160.358-108.134s-82.637-100.25-108.032-160.358c-26.317-62.157-39.629-128.205-39.629-196.301s13.312-134.144 39.629-196.403c25.395-60.109 61.747-113.971 108.134-160.358 46.285-46.285 100.25-82.637 160.358-108.134 62.259-26.317 128.307-39.629 196.403-39.629 85.197 0 169.37 21.606 243.507 62.566 0.512 0.307 1.126 0.614 1.638 0.922l45.363-75.674c2.662-4.506 9.523-3.789 11.162 1.229l68.198 204.902c1.229 3.584-1.126 7.373-4.813 7.987l-212.89 36.25c-5.222 0.922-9.011-4.71-6.349-9.216l45.363-75.571c-58.266-31.846-124.314-48.64-191.181-48.64-106.701 0-207.053 41.574-282.522 117.043s-117.043 175.821-117.043 282.522c0 106.701 41.574 207.053 117.043 282.522 75.366 75.674 175.718 117.248 282.419 117.248s207.053-41.574 282.522-117.043c75.469-75.469 117.043-175.821 117.043-282.522 0-10.138-0.41-20.275-1.126-30.31-2.15-28.877 19.456-54.067 48.333-56.218s54.067 19.456 56.218 48.333c0.922 12.595 1.434 25.498 1.434 38.195 0 68.096-13.312 134.144-39.629 196.301z" />
<glyph unicode="&#xe910;" glyph-name="user" d="M830.771 325.478c-57.856 69.939-129.331 118.272-207.667 141.722 61.747 37.376 102.707 105.062 102.707 183.091 0 118.682-95.027 213.709-213.811 213.709-106.906 0-213.811-95.027-213.811-213.811 0-78.029 40.96-145.715 102.707-183.091-78.438-23.45-149.914-71.782-207.667-141.722-80.691-97.587-125.133-226.509-125.133-363.008 0-42.189 34.202-76.39 76.39-76.39s76.39 34.202 76.39 76.39c0 96.358 29.389 184.115 77.414 249.754v-270.336c0-56.218 45.568-101.786 101.786-101.786h223.949c56.218 0 101.786 45.568 101.786 101.786v270.336c48.026-65.741 77.414-153.498 77.414-249.754 0-42.189 34.202-76.39 76.39-76.39s76.39 34.202 76.39 76.39c-0.102 136.499-44.544 265.421-125.235 363.11z" />
<glyph unicode="&#xe911;" glyph-name="mail" d="M1024 553.216c0 91.75-76.39 168.141-168.141 168.141h-687.718c-91.75 0-168.141-76.39-168.141-168.141v-407.552c0-91.648 76.39-163.021 168.141-163.021v0h687.718c91.75 0 168.141 76.39 168.141 163.021v407.552zM922.112 553.216v-407.552c0-35.635-30.618-61.133-66.253-61.133h-687.718c-35.635 0-66.253 30.618-66.253 66.253v412.672l407.552-356.659 407.552 356.659c5.12-5.12 5.12-5.12 5.12-10.24zM835.482 619.469l-315.802-280.166-315.904 280.166h631.706z" />
<glyph unicode="&#xe912;" glyph-name="case" d="M896 600.32h-204.8v71.68c0 66.56-51.2 117.76-117.76 117.76h-122.88c-66.56 0-117.76-51.2-117.76-117.76v-71.68h-204.8c-71.68 0-128-56.32-128-128v-430.080c0-71.68 56.32-128 128-128h768c71.68 0 128 56.32 128 128v430.080c-5.12 71.68-61.44 128-128 128zM435.2 672c0 10.24 5.12 15.36 15.36 15.36h122.88c10.24 0 15.36-5.12 15.36-15.36v-71.68h-153.6v71.68zM916.48 42.24c0-15.36-10.24-25.6-25.6-25.6h-768c-15.36 0-25.6 10.24-25.6 25.6v430.080c0 15.36 10.24 25.6 25.6 25.6h768c15.36 0 25.6-10.24 25.6-25.6v-430.080z" />
<glyph unicode="&#xe913;" glyph-name="person" d="M511.898 479.693c107.315 0 189.030 86.835 189.030 189.030s-86.938 189.030-189.030 189.030c-107.315 0-189.030-86.835-189.030-189.030s86.835-189.030 189.030-189.030zM511.898 765.798c51.098 0 91.955-40.858 91.955-91.955s-40.858-91.955-91.955-91.955-91.955 40.858-91.955 91.955 45.978 91.955 91.955 91.955zM1022.771 198.707c-5.12 40.858-20.48 76.595-51.098 102.195l-163.533 137.933c-30.618 25.498-81.715 40.858-127.693 40.858-51.098 0-86.835-15.36-117.453-45.978-15.36-20.48-30.618-51.098-51.098-51.098v0c-20.48 0-35.738 30.618-51.098 51.098-25.498 30.618-66.458 45.978-117.453 45.978s-97.075-15.36-127.693-40.858l-163.635-137.933c-30.618-25.498-50.995-61.338-50.995-102.195-5.12-40.858 10.24-76.595 35.738-107.315 30.618-35.738 71.475-51.098 112.435-51.098 35.738 0 71.475 10.24 97.075 35.738l25.498 20.48v-86.835c0-97.075 97.075-163.533 240.128-163.533v0 0 0 0c143.053 0 240.128 66.458 240.128 163.533v86.835l25.498-20.48c25.498-20.48 61.338-35.738 97.075-35.738 45.978 0 86.835 20.48 112.435 51.098 30.618 30.72 40.858 71.578 35.738 107.315zM915.456 157.85c-10.24-10.24-20.48-15.36-35.738-15.36-10.24 0-20.48 0-30.618 10.24l-107.315 91.955c-15.36 15.36-35.738 15.36-56.218 5.12s-25.498-30.618-25.498-51.098v-189.030c0-35.738-71.475-61.338-137.933-61.338s-137.933 25.498-137.933 61.338v189.030c0 20.48-10.24 40.858-25.498 51.098-20.48 10.24-40.858 5.12-56.218-5.12l-107.315-91.955c-10.24-10.24-25.498-10.24-30.618-10.24-15.36 0-25.498 5.12-35.738 15.36s-10.24 20.48-10.24 35.738c0 15.36 5.12 25.498 15.36 30.618 0 0 168.55 143.053 173.67 143.053 10.24 10.24 25.498 15.36 45.978 15.36 15.36 0 25.498-5.12 35.738-10.24s25.498-20.48 30.618-25.498c40.858-45.978 56.218-71.475 107.315-71.475v0c51.098 0 66.458 30.618 107.315 71.475 5.12 5.12 20.48 20.48 30.618 25.498 10.24 5.12 25.498 10.24 35.738 10.24 15.36 0 30.618-5.12 45.978-15.36 5.12 0 173.67-143.053 173.67-143.053 10.24-10.24 15.36-20.48 15.36-30.618-10.24-15.258-15.36-25.498-20.48-35.738z" />
<glyph unicode="&#xe914;" glyph-name="note" d="M743.526-160h-463.258c-87.757 0-160.87 73.114-160.87 160.87v702.259c0 87.757 73.114 160.87 160.87 160.87h463.258c87.757 0 160.87-73.114 160.87-160.87v-697.344c4.915-92.672-68.198-165.786-160.87-165.786zM280.269 766.515c-34.099 0-63.386-29.286-63.386-63.386v-697.344c0-34.099 29.286-63.386 63.386-63.386h463.258c34.099 0 63.386 29.286 63.386 63.386v697.344c0 34.099-29.286 63.386-63.386 63.386h-463.258zM694.784 352h-365.773c-29.286 0-48.742 19.456-48.742 48.742s19.456 48.742 48.742 48.742h365.67c29.286 0 48.742-19.456 48.742-48.742s-19.456-48.742-48.64-48.742zM694.784 551.885h-365.773c-29.286 0-48.742 19.456-48.742 48.742s19.456 48.742 48.742 48.742h365.67c29.286 0 48.742-19.456 48.742-48.742s-19.456-48.742-48.64-48.742zM694.784 156.928h-365.773c-29.286 0-48.742 19.456-48.742 48.742s19.456 48.742 48.742 48.742h365.67c29.286 0 48.742-19.456 48.742-48.742s-19.456-48.742-48.64-48.742z" />
<glyph unicode="&#xe915;" glyph-name="home" d="M1024 328.346c0 56.32-15.36 76.8-40.96 102.4l-230.4 225.28-174.080 163.84c-35.84 35.84-97.28 35.84-133.12 0l-404.48-384c-25.6-25.6-40.96-46.080-40.96-102.4v-348.16c0-71.68 56.32-128 128-128h768c71.68 0 128 56.32 128 128v343.040zM588.8-45.414h-148.48v378.88c0 10.24 5.12 15.36 15.36 15.36h122.88c10.24 0 15.36-5.12 15.36-15.36v-378.88h-5.12zM901.12-45.414h-204.8v378.88c0 66.56-51.2 117.76-117.76 117.76h-122.88c-66.56 0-117.76-51.2-117.76-117.76v-378.88h-204.8c-15.36 0-25.6 10.24-25.6 25.6v348.16c0 15.36 0 20.48 0 20.48v0c0 0 5.12 5.12 10.24 10.24l399.36 378.88 168.96-158.72 230.4-220.16c5.12-5.12 10.24-5.12 10.24-10.24 0 0 0-5.12 0-20.48v-348.16c-5.12-15.36-15.36-25.6-25.6-25.6z" />
<glyph unicode="&#xe916;" glyph-name="company" d="M909.414 734.259c0 72.704-56.934 129.741-129.741 129.741h-533.811c-72.704 0-129.741-57.037-129.741-129.741l1.536-764.416c0-72.806 57.037-129.741 129.741-129.741h517.939c35.738 0 72.294 13.722 100.25 37.786 29.286 25.088 45.363 57.754 45.363 91.955v355.635l-1.536 408.781zM815.923-36.506c-5.734-17.101-17.51-28.57-29.389-28.57h-533.811c-17.408 0-29.491 12.083-29.491 29.491l-1.536 775.066c0 17.408 12.083 29.491 29.491 29.491h533.914c11.878 0 23.654-11.469 29.389-28.57l0.102-0.41 1.536-776.090-0.205-0.41zM637.44-100.198h-89.907v219.034h-68.096v-219.034h-89.907v241.664c0 39.629 27.648 67.277 67.277 67.277h113.357c39.629 0 67.277-27.648 67.277-67.277v-241.664zM717.619 335.616v-11.878c0-14.848-7.475-22.323-22.323-22.323h-123.29c-14.848 0-22.323 7.475-22.323 22.323v115.917c0 14.848 7.475 22.323 22.323 22.323h123.392c14.848 0 22.323-7.475 22.323-22.323v-104.038zM477.389 335.616v-11.878c0-14.848-7.475-22.323-22.323-22.323h-123.29c-14.848 0-22.323 7.475-22.323 22.323v115.917c0 14.848 7.475 22.323 22.323 22.323h123.392c14.848 0 22.323-7.475 22.323-22.323v-104.038zM717.619 573.901v-11.878c0-14.848-7.475-22.323-22.323-22.323h-123.29c-14.848 0-22.323 7.475-22.323 22.323v115.917c0 14.848 7.475 22.323 22.323 22.323h123.392c14.848 0 22.323-7.475 22.323-22.323v-104.038zM477.389 573.901v-11.878c0-14.848-7.475-22.323-22.323-22.323h-123.29c-14.848 0-22.323 7.475-22.323 22.323v115.917c0 14.848 7.475 22.323 22.323 22.323h123.392c14.848 0 22.323-7.475 22.323-22.323v-104.038z" />
<glyph unicode="&#xe917;" glyph-name="stats" d="M95.437-160c-50.995 0-92.365 41.37-92.365 92.365v209.715c0 50.995 41.37 92.365 92.365 92.365s92.365-41.37 92.365-92.365v-209.818c0-50.893-41.37-92.262-92.365-92.262zM372.429-160c-50.995 0-92.365 41.37-92.365 92.365v393.728c0 50.995 41.37 92.365 92.365 92.365s92.365-41.37 92.365-92.365v-393.728c0-50.995-41.37-92.365-92.365-92.365zM928.563-160c-50.995 0-92.365 41.37-92.365 92.365v839.27c0 50.995 41.37 92.365 92.365 92.365s92.365-41.37 92.365-92.365v-839.373c-0.102-50.893-41.37-92.262-92.365-92.262zM651.571-160c-50.995 0-92.365 41.37-92.365 92.365v593.51c0 50.995 41.37 92.365 92.365 92.365s92.365-41.37 92.365-92.365v-593.613c-0.102-50.893-41.37-92.262-92.365-92.262z" />
<glyph unicode="&#xe918;" glyph-name="paperclip" d="M249.856-159.693c-66.048 0-128.512 26.112-175.923 73.421-98.611 98.611-98.611 253.133 0 351.744 18.33 18.33 47.923 18.33 66.15 0 18.33-18.33 18.33-47.923 0-66.15-61.44-61.542-61.44-157.798 0-219.341 59.29-59.29 160.051-59.29 219.341 0l524.288 524.288c61.44 61.542 61.44 157.901 0 219.341s-157.798 61.44-219.341 0l-322.253-322.458c-23.859-23.859-23.859-69.12 0-92.979s69.018-23.859 92.979 0l228.762 228.762c18.33 18.33 47.923 18.33 66.15 0 18.33-18.33 18.33-47.923 0-66.15l-228.659-228.762c-60.006-60.006-165.376-60.006-225.382 0s-60.006 165.376 0 225.382l322.355 322.355c98.611 98.611 253.133 98.611 351.744 0s98.611-253.133 0-351.744l-524.288-524.288c-47.411-47.411-109.875-73.421-175.923-73.421z" />
<glyph unicode="&#xe919;" glyph-name="options" d="M266.24 352c0-73.52-59.6-133.12-133.12-133.12s-133.12 59.6-133.12 133.12c0 73.52 59.6 133.12 133.12 133.12s133.12-59.6 133.12-133.12zM1024 352c0-73.52-59.6-133.12-133.12-133.12s-133.12 59.6-133.12 133.12c0 73.52 59.6 133.12 133.12 133.12s133.12-59.6 133.12-133.12zM645.12 352c0-73.52-59.6-133.12-133.12-133.12s-133.12 59.6-133.12 133.12c0 73.52 59.6 133.12 133.12 133.12s133.12-59.6 133.12-133.12z" />
<glyph unicode="&#xe91a;" glyph-name="low-prio" d="M875.52 864h-727.040c-82.022 0-148.48-66.458-148.48-148.48v-727.040c0-82.022 66.458-148.48 148.48-148.48h727.040c82.022 0 148.48 66.458 148.48 148.48v727.040c0 82.022-66.458 148.48-148.48 148.48zM816.64 260.864c-11.878-18.432-31.642-28.262-51.814-28.262-12.39 0-24.883 3.686-35.738 11.469 0 0-153.907 109.875-202.752 144.691-8.704 6.246-20.48 6.246-29.184 0l-202.445-144.589c-27.853-19.968-66.765-13.21-86.323 15.155-19.251 27.955-10.957 66.56 16.691 86.221l251.085 179.302c21.402 15.36 50.278 15.36 71.68 0l251.187-179.405c26.931-19.354 35.635-56.73 17.613-84.582z" />
<glyph unicode="&#xe91b;" glyph-name="normal-prio" d="M875.52 864h-727.040c-82.022 0-148.48-66.458-148.48-148.48v-727.040c0-82.022 66.458-148.48 148.48-148.48h727.040c82.022 0 148.48 66.458 148.48 148.48v727.040c0 82.022-66.458 148.48-148.48 148.48zM816.64 115.354c-11.878-18.432-31.642-28.262-51.814-28.262-12.39 0-24.883 3.686-35.738 11.469 0 0-153.907 109.875-202.752 144.691-8.704 6.246-20.48 6.246-29.184 0l-202.445-144.691c-27.853-19.968-66.765-13.21-86.323 15.155-19.251 27.955-10.957 66.56 16.691 86.221l251.085 179.405c21.402 15.36 50.278 15.36 71.68 0l251.187-179.405c26.931-19.354 35.635-56.73 17.613-84.582zM816.64 406.374c-11.878-18.432-31.642-28.262-51.814-28.262-12.39 0-24.883 3.686-35.738 11.469 0 0-153.907 109.875-202.752 144.691-8.704 6.246-20.48 6.246-29.184 0l-202.445-144.589c-27.853-19.968-66.765-13.21-86.323 15.155-19.251 27.955-10.957 66.56 16.691 86.221l251.085 179.302c21.402 15.36 50.278 15.36 71.68 0l251.187-179.405c26.931-19.354 35.635-56.73 17.613-84.582z" />
<glyph unicode="&#xe91c;" glyph-name="high-prio" d="M875.52 864h-727.040c-82.022 0-148.48-66.458-148.48-148.48v-727.040c0-82.022 66.458-148.48 148.48-148.48h727.040c82.022 0 148.48 66.458 148.48 148.48v727.040c0 82.022-66.458 148.48-148.48 148.48zM816.64-52.275c-11.878-18.432-31.642-28.262-51.814-28.262-12.39 0-24.883 3.686-35.738 11.469 0 0-153.907 109.875-202.752 144.691-8.704 6.246-20.48 6.246-29.184 0l-202.445-144.691c-27.853-19.968-66.765-13.21-86.323 15.155-19.251 27.955-10.957 66.56 16.691 86.221l251.085 179.302c21.402 15.36 50.278 15.36 71.68 0l251.187-179.405c26.931-19.251 35.635-56.627 17.613-84.48zM816.64 228.506c-11.878-18.432-31.642-28.262-51.814-28.262-12.39 0-24.883 3.686-35.738 11.469 0 0-153.907 109.875-202.752 144.691-8.704 6.246-20.48 6.246-29.184 0l-202.445-144.691c-27.853-19.968-66.765-13.21-86.323 15.155-19.251 27.955-10.957 66.56 16.691 86.221l251.085 179.302c21.402 15.36 50.278 15.36 71.68 0l251.187-179.405c26.931-19.251 35.635-56.627 17.613-84.48zM816.64 509.082c-11.878-18.432-31.642-28.262-51.814-28.262-12.39 0-24.883 3.686-35.738 11.469 0 0-153.907 109.875-202.752 144.691-8.704 6.246-20.48 6.246-29.184 0l-202.445-144.589c-27.853-19.968-66.765-13.21-86.323 15.155-19.251 27.955-10.957 66.56 16.691 86.221l251.085 179.302c21.402 15.36 50.278 15.36 71.68 0l251.187-179.405c26.931-19.354 35.635-56.73 17.613-84.582z" />
<glyph unicode="&#xe91d;" glyph-name="critical-prio" d="M875.52 864h-727.040c-82.022 0-148.48-66.458-148.48-148.48v-727.040c0-82.022 66.458-148.48 148.48-148.48h727.040c82.022 0 148.48 66.458 148.48 148.48v727.040c0 82.022-66.458 148.48-148.48 148.48zM577.024 58.624c-15.36-14.234-36.864-21.402-64.614-21.402-27.955 0-49.869 7.168-65.638 21.402s-23.757 34.099-23.757 59.494c0 25.702 7.578 45.67 22.835 59.904s37.376 21.402 66.458 21.402c28.774 0 50.586-7.168 65.434-21.402s22.221-34.202 22.221-59.904c0.205-25.498-7.578-45.261-22.938-59.494zM600.781 600.115l-14.746-274.022c-1.843-33.587-29.594-59.802-63.181-59.802h-19.866c-33.587 0-61.338 26.317-63.181 59.802l-14.746 274.022c-1.946 36.25 26.931 66.662 63.181 66.662h49.357c36.25 0 65.126-30.413 63.181-66.662z" />
<glyph unicode="&#xe91e;" glyph-name="toggle-right" d="M219.136 831.642c-38.093-41.062-35.738-105.165 5.325-143.258l362.394-336.384-362.394-336.384c-41.062-38.093-43.418-102.195-5.325-143.258s102.195-43.418 143.258-5.325l437.146 405.811c21.504 19.968 32.358 47.104 32.358 74.342 0 1.638-0.102 3.174-0.205 4.813 0.102 1.638 0.205 3.174 0.205 4.813 0 27.238-10.854 54.374-32.358 74.342l-437.146 405.811c-40.96 38.093-105.165 35.635-143.258-5.325z" />
<glyph unicode="&#xe91f;" glyph-name="toggle-left" d="M804.864-127.642c38.093 41.062 35.738 105.165-5.325 143.258l-362.394 336.384 362.291 336.384c41.062 38.093 43.418 102.195 5.325 143.258s-102.195 43.418-143.258 5.325l-437.043-405.811c-21.504-19.968-32.358-47.104-32.358-74.342 0-1.638 0.102-3.174 0.205-4.813-0.102-1.638-0.205-3.174-0.205-4.813 0-27.238 10.854-54.374 32.358-74.342l437.146-405.811c40.96-38.093 105.165-35.635 143.258 5.325z" />
<glyph unicode="&#xe920;" glyph-name="toggle-up" d="M32.358 59.136c41.062-38.093 105.165-35.738 143.258 5.325l336.384 362.394 336.384-362.291c38.093-41.062 102.195-43.418 143.258-5.325s43.418 102.195 5.325 143.258l-405.811 437.043c-19.968 21.504-47.104 32.358-74.342 32.358-1.638 0-3.174-0.102-4.813-0.205-1.638 0.102-3.174 0.205-4.813 0.205-27.238 0-54.374-10.854-74.342-32.358l-405.811-437.146c-38.093-40.96-35.635-105.165 5.325-143.258z" />
<glyph unicode="&#xe921;" glyph-name="toggle-down" d="M991.642 644.864c-41.062 38.093-105.165 35.738-143.258-5.325l-336.384-362.394-336.384 362.394c-38.093 41.062-102.195 43.418-143.258 5.325s-43.418-102.195-5.325-143.258l405.811-437.146c19.968-21.504 47.104-32.358 74.342-32.358 1.638 0 3.174 0.102 4.813 0.205 1.638-0.102 3.174-0.205 4.813-0.205 27.238 0 54.374 10.854 74.342 32.358l405.811 437.146c38.093 40.96 35.635 105.165-5.325 143.258z" />
<glyph unicode="&#xe922;" glyph-name="close" d="M674.611 352l315.699 315.699c44.954 44.954 44.954 117.658 0 162.611-44.851 44.954-117.658 44.954-162.509 0l-315.802-315.699-315.802 315.699c-44.851 44.954-117.658 44.954-162.509 0-44.954-44.851-44.954-117.658 0-162.611l315.699-315.699-315.699-315.699c-44.954-44.954-44.954-117.658 0-162.611 22.426-22.426 51.814-33.69 81.306-33.69 29.389 0 58.88 11.264 81.306 33.69l315.699 315.699 315.802-315.802c22.426-22.426 51.814-33.69 81.306-33.69s58.88 11.264 81.306 33.69c44.851 44.851 44.851 117.658 0 162.611l-315.802 315.802z" />
<glyph unicode="&#xe923;" glyph-name="arrow-right" d="M240.23 858.778l571.597-490.496c10.035-8.602 10.035-24.064 0-32.666l-571.597-490.496c-13.926-11.981-35.533-2.048-35.533 16.282v981.094c0 18.33 21.606 28.262 35.533 16.282z" />
<glyph unicode="&#xe924;" glyph-name="arrow-left" d="M783.77 858.778l-571.597-490.496c-10.035-8.602-10.035-24.064 0-32.666l571.597-490.496c13.926-11.981 35.533-2.048 35.533 16.282v981.094c0 18.33-21.606 28.262-35.533 16.282z" />
<glyph unicode="&#xe925;" glyph-name="arrow-up" d="M1018.778 80.23l-490.496 571.597c-8.602 10.035-24.064 10.035-32.666 0l-490.394-571.597c-11.981-13.926-2.048-35.533 16.282-35.533h980.992c18.33 0 28.262 21.606 16.282 35.533z" />
<glyph unicode="&#xe926;" glyph-name="arrow-down" d="M1018.778 623.77l-490.496-571.597c-8.602-10.035-24.064-10.035-32.666 0l-490.394 571.597c-11.981 13.926-2.048 35.533 16.282 35.533h980.992c18.33 0 28.262-21.606 16.282-35.533z" />
<glyph unicode="&#xe927;" glyph-name="arrow-right-smll" d="M308.224 732.211l428.646-367.923c7.578-6.451 7.578-18.125 0-24.576l-428.646-367.821c-10.445-9.114-26.726-1.536-26.726 12.288v735.744c0 13.824 16.282 21.197 26.726 12.288z" />
<glyph unicode="&#xe928;" glyph-name="arrow-left-smll" d="M715.878 732.211l-428.646-367.923c-7.475-6.451-7.475-18.125 0-24.576l428.646-367.923c10.445-9.114 26.624-1.536 26.624 12.288v735.846c0.102 13.824-16.179 21.197-26.624 12.288z" />
<glyph unicode="&#xe929;" glyph-name="arrow-up-smll" d="M892.109 148.224l-367.821 428.646c-6.451 7.475-18.125 7.475-24.474 0l-367.821-428.646c-9.011-10.445-1.536-26.726 12.083-26.726h735.744c13.824 0.102 21.197 16.282 12.288 26.726z" />
<glyph unicode="&#xe92a;" glyph-name="arrow-down-smll" d="M892.109 555.878l-367.821-428.646c-6.451-7.578-18.125-7.578-24.371 0l-367.923 428.646c-9.011 10.445-1.536 26.522 12.083 26.522h735.744c13.824 0.205 21.197-16.077 12.288-26.522z" />
<glyph unicode="&#xe92b;" glyph-name="pin" d="M996.454 577.28l-258.662 258.662c-20.378 20.378-48.23 30.413-76.39 27.648-38.707-3.891-70.554-30.515-81.203-67.891l-15.872-55.808c-7.782-27.238-22.426-52.224-42.496-72.294l-120.832-120.934c-25.395-25.395-58.982-42.189-94.515-47.206l-64.205-9.114c-34.816-4.915-63.898-28.262-75.878-60.826-12.595-34.304-4.096-73.216 21.811-99.021l124.621-124.621-281.6-281.498c-6.451-6.451-11.264-14.438-14.029-23.245l-16.998-54.682c-1.229-3.891 2.458-7.475 6.246-6.246l54.682 16.998c8.704 2.765 16.691 7.475 23.245 14.029l281.6 281.498 124.006-124.006c23.142-23.142 55.706-32.87 87.142-26.010 38.298 8.294 67.686 39.936 73.216 78.746l9.216 64.922c5.018 35.533 21.811 69.12 47.206 94.515l120.934 120.934c20.070 20.070 44.954 34.714 72.294 42.496l55.808 15.872c31.949 9.114 56.934 34.714 65.331 66.867 8.192 32.154-1.229 66.765-24.678 90.214zM873.165 498.125c-43.213-12.288-82.842-35.533-114.586-67.277l-120.832-120.934c-40.243-40.243-66.867-93.389-74.854-149.811l-8.294-58.163-292.659 292.762 58.163 8.294c56.32 7.987 109.568 34.611 149.811 74.854l120.934 120.73c31.744 31.744 54.989 71.373 67.379 114.586l14.336 50.176 250.88-250.88-50.278-14.336z" />
<glyph unicode="&#xe92c;" glyph-name="phone" d="M948.531 140.544c-22.733 21.709-49.357 46.694-77.722 70.144-18.534 15.258-38.912 28.877-60.621 40.448-55.091 29.389-110.797 23.859-156.672-15.155-18.432-15.667-36.045-32.358-53.658-49.152l-5.427-5.12c-9.421-9.011-15.77-9.728-24.269-7.68-20.992 4.813-39.936 18.432-57.242 32.461-42.701 34.611-77.926 76.698-103.834 109.568-20.992 26.624-42.086 55.808-53.965 89.088-10.65 29.901-4.096 38.502 12.083 49.664 22.323 15.36 42.291 33.382 60.518 50.483 33.792 31.744 47.718 74.957 39.424 121.856-5.12 29.184-16.794 57.549-36.557 89.293l-10.547 17.101c-19.763 32.358-40.243 65.843-70.656 95.13-46.080 44.237-103.219 47.104-152.986 7.578-9.728-7.782-19.149-15.872-28.57-23.859l-15.36-13.107c-59.597-49.971-97.587-113.357-112.845-188.416-2.97-14.336-4.608-28.877-6.246-43.418l-2.458-20.173 1.741-38.912c1.024-11.264 2.15-22.323 3.891-33.382 10.854-71.578 37.683-140.8 84.378-217.6 44.442-73.114 100.352-143.565 171.008-215.45 63.693-64.717 126.157-112.947 190.874-147.456 68.608-36.557 134.758-54.374 202.342-54.477h0.614c60.928 0 118.374 15.462 170.598 45.978 39.322 22.938 70.042 52.838 99.738 81.92l4.813 4.71c36.352 35.533 42.291 84.173 15.974 130.048-6.451 11.162-15.462 25.6-28.365 37.888zM895.795 39.168l-4.813-4.71c-26.829-26.214-52.122-50.995-81.51-68.096-38.4-22.426-78.848-33.28-123.699-33.28h-0.512c-51.917 0.102-103.936 14.336-158.72 43.622-57.037 30.31-110.49 71.782-168.346 130.458-65.536 66.662-117.248 131.584-157.798 198.451-40.038 66.048-62.976 124.314-71.987 183.398-1.434 9.421-2.355 18.944-3.277 28.365l-1.229 12.493 1.843 27.238c1.331 11.776 2.56 23.552 4.915 35.123 11.162 54.682 37.888 99.123 81.51 135.68l16.179 13.722c8.602 7.475 17.203 14.848 26.112 21.811 12.288 9.933 17.306 10.752 30.413-1.946 21.709-20.89 38.298-47.821 55.706-76.493l10.957-17.818c13.312-21.299 20.89-39.219 23.859-56.218 2.867-16.282-0.512-27.546-11.469-37.786-15.565-14.643-32.461-29.798-49.664-41.677-37.683-26.010-76.39-74.342-46.899-157.389 16.384-46.182 43.827-84.48 68.608-115.712 28.877-36.659 68.506-83.763 118.272-124.211 24.781-20.070 55.398-41.779 95.027-50.893 40.448-9.421 78.234 1.434 109.261 31.13l5.427 5.12c16.282 15.462 32.461 31.027 49.664 45.568 11.981 10.24 26.624 17.92 52.736 3.994 16.179-8.602 31.232-18.739 45.056-30.106 26.112-21.504 51.2-45.261 72.704-65.741 4.301-4.096 8.806-11.571 11.878-16.896 6.349-10.957 3.994-13.21-0.205-17.203z" />
</font>
</defs>
</svg>
