<svg xmlns="http://www.w3.org/2000/svg" width="193" height="140">
  <path fill="#e75a4d" d="M177.6272.0001c8.7186 0 15.8524 7.1338 15.8524 15.8524v4.5955l-22.024 15.7321-74.98 51.6501-74.9798-52.174V140h-5.6434C7.1338 140 0 132.8662 0 124.1476V15.8568C0 7.1382 7.1338.0044 15.8524.0044l80.6233 59.776L177.6229.0044z"/>
  <path fill="#e7e4d7" d="M21.4958 35.6561V140h149.964V36.1801L96.4757 87.8302z"/>
  <path fill="#b8b7ae" d="M96.1364 87.5897l-74.6406 51.2636V140l74.9799-52.1698z"/>
  <path fill="#b7b6ad" d="M171.5027 140l-75.027-52.1698 74.9841-51.65z"/>
  <path fill="#b2392f" d="M193.4796 20.448l.0258 103.7125c-.378 11.5275-5.373 15.642-22.0027 15.8352l-.0429-103.8199 22.024-15.7321z"/>
  <path fill="#f7f5ed" d="M96.4757 59.7761L177.6272.0001H15.8524z"/>
</svg>
