<svg xmlns="http://www.w3.org/2000/svg" id="Layer_1" viewBox="0 0 1000 1000">
  <path d="M1000 333H888.9v166.7c2.2 30.7-20.9 57.3-51.6 59.5-30.7 2.2-57.3-20.9-59.5-51.6-.2-2.6-.2-5.3 0-7.9V333H666.7v166.7c.2 92 74.7 166.4 166.7 166.7 30.8 0 55.7 24.9 55.7 55.7 0 30.8-24.9 55.7-55.7 55.7-30.8 0-55.7-24.9-55.7-55.7h-111c-.3 92.1 74.1 166.9 166.2 167.2 92.1.3 166.9-74.1 167.2-166.2.1-41.4-15.2-81.4-42.9-112.1 27.5-30.5 42.7-70.1 42.7-111.1V333h.1zM222.2 111.8h111.1v111.1H222.2zM111.1 499.7V110.8H0v388.9c0 92 74.6 166.6 166.7 166.7V555.2c-30.7-.1-55.5-24.9-55.6-55.5zM333.3 499.7V333H222.2v166.7c0 92 74.6 166.7 166.7 166.7V555.2c-30.6-.1-55.5-24.9-55.6-55.5zM555.6 499.7V110.8H444.4v388.9c0 92 74.6 166.7 166.7 166.7V555.2c-30.6-.1-55.4-24.9-55.5-55.5z" class="st0"/>
</svg>
