<?xml version="1.0" encoding="utf-8"?>
<!-- Generator: Adobe Illustrator 19.2.1, SVG Export Plug-In . SVG Version: 6.00 Build 0)  -->
<svg version="1.1" id="Layer_1" xmlns="http://www.w3.org/2000/svg" xmlns:xlink="http://www.w3.org/1999/xlink" x="0px" y="0px"
	 viewBox="0 0 685.8 884.3" style="enable-background:new 0 0 685.8 884.3;" xml:space="preserve">
<style type="text/css">
	.st0{fill:none;stroke:#27244C;stroke-miterlimit:10;}
	.st1{fill:#27244C;}
</style>
<g>
	<g>
		<g>
			<polygon class="st0" points="1547.9,454.7 1547.9,360.7 1501.2,279.5 1420.1,232.4 1326.2,232.4 1244.5,279.4 1196.9,360.7 
				1196.9,454.6 1244.4,536.1 1326.2,583.4 1420.1,583.4 1501.1,536.2 			"/>
			<polygon class="st0" points="1548.2,454.7 1620.1,407.7 1548.2,360.7 1587,284.2 1501.3,279.7 1496.6,193.9 1420.1,232.7 
				1373.2,160.8 1326.2,232.7 1249.7,193.9 1244.6,279.5 1159.4,284.2 1197.2,360.7 1126.3,407.7 1197.2,454.6 1159.4,531.1 
				1244.5,536.2 1249.7,621.5 1326.2,583.7 1373.2,654.6 1420.1,583.7 1496.6,621.5 1501.2,536.4 1587,531.1 			"/>
			<polygon class="st0" points="1620.1,407.3 1587.4,283.9 1497,193.5 1373.5,160.8 1250.1,194.2 1159.7,284.6 1126.6,407.7 
				1159.7,530.8 1250.1,621.2 1373.2,654.3 1496.3,621.2 1586.7,530.8 			"/>
		</g>
		<g>
			
				<rect x="1550.6" y="545.8" transform="matrix(0.7071 -0.7071 0.7071 0.7071 13.9738 1331.6807)" class="st0" width="127.8" height="206.4"/>
			<polyline class="st0" points="1553.4,533.7 1714.6,694.8 1660.3,749.1 1499.2,587.9 			"/>
			<line class="st0" x1="1660.3" y1="749.1" x2="1496.3" y2="621.2"/>
			<line class="st0" x1="1714.6" y1="694.8" x2="1586.7" y2="530.8"/>
		</g>
	</g>
	<circle class="st1" cx="1714.6" cy="694.8" r="5"/>
	<circle class="st1" cx="1660.3" cy="749.1" r="5"/>
	<circle class="st1" cx="1642.1" cy="767.9" r="5"/>
	<circle class="st1" cx="1732.6" cy="676.2" r="5"/>
	<circle class="st1" cx="1586.7" cy="530.8" r="5"/>
	<circle class="st1" cx="1496.3" cy="621.2" r="5"/>
	<circle class="st1" cx="1499.2" cy="589.6" r="5"/>
	<circle class="st1" cx="1501.3" cy="535.8" r="5"/>
	<circle class="st1" cx="1419.5" cy="583.4" r="5"/>
	<circle class="st1" cx="1326.1" cy="583.4" r="5"/>
	<circle class="st1" cx="1244.2" cy="535.8" r="5"/>
	<circle class="st1" cx="1196.9" cy="454.7" r="5"/>
	<circle class="st1" cx="1196.9" cy="360.8" r="5"/>
	<circle class="st1" cx="1244.2" cy="278.7" r="5"/>
	<circle class="st1" cx="1326.1" cy="232.4" r="5"/>
	<circle class="st1" cx="1419.5" cy="232.4" r="5"/>
	<circle class="st1" cx="1501.3" cy="278.7" r="5"/>
	<circle class="st1" cx="1548.7" cy="360.8" r="5"/>
	<circle class="st1" cx="1547.9" cy="454.7" r="5"/>
	<circle class="st1" cx="1620.1" cy="407.5" r="5"/>
	<circle class="st1" cx="1586.7" cy="283.7" r="5"/>
	<circle class="st1" cx="1496.3" cy="194" r="5"/>
	<circle class="st1" cx="1373.4" cy="160.8" r="5"/>
	<circle class="st1" cx="1249.2" cy="194" r="5"/>
	<circle class="st1" cx="1158.7" cy="283.7" r="5"/>
	<circle class="st1" cx="1126.6" cy="407.5" r="5"/>
	<circle class="st1" cx="1160.5" cy="530.8" r="5"/>
	<circle class="st1" cx="1249.2" cy="621.2" r="5"/>
	<circle class="st1" cx="1373.4" cy="654.6" r="5"/>
	<circle class="st1" cx="1553.7" cy="533.7" r="5"/>
	<circle class="st1" cx="1481.2" cy="411.7" r="3"/>
	<circle class="st1" cx="1521.2" cy="403.7" r="3"/>
	<circle class="st1" cx="1491.2" cy="373.7" r="3"/>
	<circle class="st1" cx="1481.2" cy="463.7" r="3"/>
	<circle class="st1" cx="1421.2" cy="403.7" r="3"/>
	<circle class="st1" cx="1430.2" cy="301.7" r="3"/>
	<circle class="st1" cx="1312.2" cy="464.8" r="3"/>
	<circle class="st1" cx="1352.2" cy="456.8" r="3"/>
	<circle class="st1" cx="1322.2" cy="426.8" r="3"/>
	<circle class="st1" cx="1312.2" cy="516.8" r="3"/>
	<circle class="st1" cx="1252.2" cy="456.8" r="3"/>
	<circle class="st1" cx="1261.2" cy="354.8" r="3"/>
	<circle class="st1" cx="1299.2" cy="299.5" r="0.8"/>
	<circle class="st1" cx="1316.2" cy="377.5" r="0.8"/>
	<circle class="st1" cx="1336.2" cy="347.5" r="0.8"/>
	<circle class="st1" cx="1306.2" cy="347.5" r="0.8"/>
	<circle class="st1" cx="1346.2" cy="297.5" r="0.8"/>
	<circle class="st1" cx="1296.2" cy="437.5" r="0.8"/>
	<circle class="st1" cx="1447.2" cy="447.5" r="0.8"/>
	<circle class="st1" cx="1466.2" cy="347.5" r="0.8"/>
	<circle class="st1" cx="1373.2" cy="329.5" r="0.8"/>
	<circle class="st1" cx="1390.2" cy="407.5" r="0.8"/>
	<circle class="st1" cx="1410.2" cy="377.5" r="0.8"/>
	<circle class="st1" cx="1380.2" cy="377.5" r="0.8"/>
	<circle class="st1" cx="1420.2" cy="327.5" r="0.8"/>
	<circle class="st1" cx="1650.6" cy="390.7" r="0.8"/>
	<circle class="st1" cx="1667.6" cy="468.7" r="0.8"/>
	<circle class="st1" cx="1657.6" cy="438.7" r="0.8"/>
	<circle class="st1" cx="1647.6" cy="528.7" r="0.8"/>
	<circle class="st1" cx="1711.6" cy="528.7" r="0.8"/>
	<circle class="st1" cx="1701.6" cy="498.7" r="0.8"/>
	<circle class="st1" cx="1738" cy="220.5" r="1"/>
	<path class="st1" d="M1629,284.6"/>
	<circle class="st1" cx="1613" cy="254.3" r="0.8"/>
	<circle class="st1" cx="1667" cy="224.3" r="0.8"/>
	<path class="st1" d="M1749,482"/>
	
		<ellipse transform="matrix(0.6521 -0.7581 0.7581 0.6521 403.6737 1213.8082)" class="st1" cx="1524.5" cy="167" rx="0.8" ry="0.8"/>
	
		<ellipse transform="matrix(0.6521 -0.7581 0.7581 0.6521 398.2122 1253.8981)" class="st1" cx="1565.4" cy="193" rx="0.8" ry="0.8"/>
	
		<ellipse transform="matrix(0.6521 -0.7581 0.7581 0.6521 418.3497 1233.6829)" class="st1" cx="1553.5" cy="161" rx="0.8" ry="0.8"/>
	
		<ellipse transform="matrix(0.6521 -0.7581 0.7581 0.6521 439.1648 1224.5315)" class="st1" cx="1553.9" cy="133.7" rx="0.8" ry="0.8"/>
	
		<ellipse transform="matrix(0.6521 -0.7581 0.7581 0.6521 210.0461 1513.2073)" class="st1" cx="1753.9" cy="527.7" rx="0.8" ry="0.8"/>
	
		<ellipse transform="matrix(0.6521 -0.7581 0.7581 0.6521 376.6946 1418.903)" class="st1" cx="1734.5" cy="299" rx="0.8" ry="0.8"/>
	
		<ellipse transform="matrix(0.6521 -0.7581 0.7581 0.6521 352.6477 1411.9827)" class="st1" cx="1714.9" cy="321.7" rx="0.8" ry="0.8"/>
	<ellipse transform="matrix(0.9374 -0.3482 0.3482 0.9374 46.03 526.4156)" class="st1" cx="1487.8" cy="135.1" rx="0.8" ry="0.8"/>
	
		<ellipse transform="matrix(0.9374 -0.3482 0.3482 0.9374 40.6343 517.2779)" class="st1" cx="1459.6" cy="145.6" rx="0.8" ry="0.8"/>
	
		<ellipse transform="matrix(0.6521 -0.7581 0.7581 0.6521 31.5825 1025.6892)" class="st1" cx="1133.4" cy="478.4" rx="0.8" ry="0.8"/>
	
		<ellipse transform="matrix(0.6521 -0.7581 0.7581 0.6521 46.2585 1045.5637)" class="st1" cx="1162.4" cy="472.4" rx="0.8" ry="0.8"/>
	
		<ellipse transform="matrix(0.6521 -0.7581 0.7581 0.6521 67.0736 1036.4125)" class="st1" cx="1162.9" cy="445.1" rx="0.8" ry="0.8"/>
	
		<ellipse transform="matrix(0.9374 -0.3482 0.3482 0.9374 -86.8455 409.7589)" class="st1" cx="1096.7" cy="446.5" rx="0.8" ry="0.8"/>
	
		<ellipse transform="matrix(0.9374 -0.3482 0.3482 0.9374 -93.5684 415.2354)" class="st1" cx="1108.6" cy="468" rx="0.8" ry="0.8"/>
	<circle class="st1" cx="1734" cy="500.3" r="0.8"/>
	<circle class="st1" cx="1674" cy="300.3" r="1"/>
	<circle class="st1" cx="1326" cy="611.5" r="1"/>
	<circle class="st1" cx="1295" cy="615.3" r="0.8"/>
	
		<ellipse transform="matrix(0.6521 -0.7581 0.7581 0.6521 -51.9796 1246.6819)" class="st1" cx="1332.5" cy="680" rx="0.8" ry="0.8"/>
	
		<ellipse transform="matrix(0.6521 -0.7581 0.7581 0.6521 -87.0861 1235.6592)" class="st1" cx="1302.9" cy="712.7" rx="0.8" ry="0.8"/>
	<circle class="st1" cx="1292" cy="661.3" r="1"/>
	
		<ellipse transform="matrix(0.6521 -0.7581 0.7581 0.6521 -29.4091 1497.3562)" class="st1" cx="1616.9" cy="780.7" rx="0.8" ry="0.8"/>
	
		<ellipse transform="matrix(0.9374 -0.3482 0.3482 0.9374 -174.0306 595.7892)" class="st1" cx="1570.8" cy="782.1" rx="0.8" ry="0.8"/>
	
		<ellipse transform="matrix(0.9374 -0.3482 0.3482 0.9374 -179.4263 586.6516)" class="st1" cx="1542.6" cy="792.6" rx="0.8" ry="0.8"/>
</g>
<g>
	<g>
		<circle class="st1" cx="95.8" cy="373.4" r="3"/>
		<circle class="st1" cx="86.8" cy="271.4" r="3"/>
		<circle class="st1" cx="204.8" cy="434.5" r="3"/>
		<circle class="st1" cx="164.8" cy="426.5" r="3"/>
		<circle class="st1" cx="194.8" cy="396.5" r="3"/>
		<circle class="st1" cx="217.8" cy="269.2" r="0.8"/>
		<circle class="st1" cx="200.8" cy="347.2" r="0.8"/>
		<circle class="st1" cx="180.8" cy="317.2" r="0.8"/>
		<circle class="st1" cx="210.8" cy="317.2" r="0.8"/>
		<circle class="st1" cx="170.8" cy="267.2" r="0.8"/>
		<circle class="st1" cx="220.8" cy="407.2" r="0.8"/>
		<circle class="st1" cx="69.8" cy="417.2" r="0.8"/>
		<circle class="st1" cx="50.8" cy="317.2" r="0.8"/>
		<circle class="st1" cx="143.8" cy="299.2" r="0.8"/>
		<circle class="st1" cx="195.6" cy="568.7" r="0.8"/>
		<circle class="st1" cx="178.6" cy="646.7" r="0.8"/>
		<circle class="st1" cx="158.6" cy="616.7" r="0.8"/>
		<circle class="st1" cx="188.6" cy="616.7" r="0.8"/>
		<circle class="st1" cx="148.6" cy="566.7" r="0.8"/>
		<circle class="st1" cx="121.6" cy="598.7" r="0.8"/>
		<circle class="st1" cx="126.8" cy="377.2" r="0.8"/>
		<circle class="st1" cx="106.8" cy="347.2" r="0.8"/>
		<circle class="st1" cx="136.8" cy="347.2" r="0.8"/>
		<circle class="st1" cx="178.1" cy="674.4" r="0.8"/>
		<circle class="st1" cx="161.1" cy="752.4" r="0.8"/>
		<circle class="st1" cx="141.1" cy="722.4" r="0.8"/>
		<circle class="st1" cx="171.1" cy="722.4" r="0.8"/>
		<circle class="st1" cx="131.1" cy="672.4" r="0.8"/>
		<circle class="st1" cx="104.1" cy="704.4" r="0.8"/>
		<circle class="st1" cx="97.1" cy="752.4" r="0.8"/>
		<circle class="st1" cx="96.8" cy="297.2" r="0.8"/>
		<circle class="st1" cx="453" cy="746.3" r="3"/>
		<circle class="st1" cx="404" cy="574.3" r="3"/>
		<circle class="st1" cx="407.9" cy="630.1" r="0.8"/>
		<circle class="st1" cx="463.9" cy="690.1" r="0.8"/>
		<circle class="st1" cx="443.9" cy="660.1" r="0.8"/>
		<circle class="st1" cx="413.9" cy="620.1" r="0.8"/>
	</g>
	<polyline class="st0" points="432.7,218.5 351.6,234.7 270.8,218.6 	"/>
	<line class="st0" x1="343.7" y1="694.9" x2="278.3" y2="681.6"/>
	<line class="st0" x1="425.1" y1="681.6" x2="359.5" y2="694.9"/>
	<line class="st0" x1="343.2" y1="671.2" x2="270.9" y2="654.7"/>
	<line class="st0" x1="432.6" y1="654.7" x2="359.9" y2="671.2"/>
	<g>
		<g>
			<polygon class="st0" points="407.9,366.9 407.9,336.6 392.8,310.5 366.6,295.4 336.3,295.4 309.6,310.4 293.9,336.6 293.9,366.8 
				309.6,393.1 336.3,408.4 366.6,408.4 392.7,393.1 			"/>
			<polygon class="st0" points="407.8,366.9 430.9,351.7 407.8,336.6 420.3,312 392.7,310.5 391.2,282.9 366.6,295.4 351.4,272.2 
				336.3,295.4 311.7,282.9 310,310.5 282.6,312 294.7,336.6 271.9,351.7 294.7,366.8 282.6,391.5 310,393.1 311.7,420.6 
				336.3,408.4 351.4,431.2 366.6,408.4 391.2,420.6 392.7,393.2 420.3,391.5 			"/>
			<polygon class="st0" points="430.9,351.6 420.4,311.9 391.3,282.8 351.5,272.2 311.8,283 282.7,312.1 272,351.7 282.7,391.4 
				311.8,420.5 351.4,431.1 391.1,420.5 420.2,391.4 			"/>
		</g>
	</g>
	<polygon class="st0" points="357.9,789.6 345.3,789.6 339.7,471.2 351.6,459.3 363.4,471.2 	"/>
	<line class="st0" x1="351.7" y1="73" x2="351.7" y2="270.6"/>
	<line class="st0" x1="351.4" y1="431.2" x2="351.4" y2="459.3"/>
	<line class="st0" x1="238.3" y1="450.6" x2="259.1" y2="611.6"/>
	<line class="st0" x1="464.9" y1="450.8" x2="444" y2="611.7"/>
	<polyline class="st0" points="359.1,717.8 418,708 444,611.7 494.5,694.8 504,790.4 524.7,790.4 577.2,544.6 464.9,450.8 
		432.4,218.8 351.7,73.4 351.5,73.4 270.8,218.8 238.3,450.7 125.8,544.6 178.3,790.4 199,790.4 208.5,694.8 259.1,611.5 
		285.2,708.1 344,717.8 	"/>
	<circle class="st1" cx="351.4" cy="272.2" r="3"/>
	<circle class="st1" cx="366.4" cy="295.4" r="3"/>
	<circle class="st1" cx="391.2" cy="282.8" r="3"/>
	<circle class="st1" cx="392.6" cy="310.2" r="3"/>
	<circle class="st1" cx="420.2" cy="312" r="3"/>
	<circle class="st1" cx="407.7" cy="336.5" r="3"/>
	<circle class="st1" cx="430.9" cy="351.7" r="3"/>
	<circle class="st1" cx="407.7" cy="366.8" r="3"/>
	<circle class="st1" cx="420.2" cy="391.5" r="3"/>
	<circle class="st1" cx="392.6" cy="393.1" r="3"/>
	<circle class="st1" cx="391.2" cy="420.3" r="3"/>
	<circle class="st1" cx="366.4" cy="408.4" r="3"/>
	<circle class="st1" cx="351.5" cy="431.1" r="3"/>
	<circle class="st1" cx="336" cy="408.4" r="3"/>
	<circle class="st1" cx="311.7" cy="420.3" r="3"/>
	<circle class="st1" cx="310" cy="393.1" r="3"/>
	<circle class="st1" cx="282.8" cy="391.5" r="3"/>
	<ellipse transform="matrix(0.6558 -0.7549 0.7549 0.6558 -175.6006 348.5488)" class="st1" cx="294.4" cy="366.8" rx="3" ry="3"/>
	<ellipse transform="matrix(0.6558 -0.7549 0.7549 0.6558 -172.0483 326.4968)" class="st1" cx="272" cy="351.9" rx="3" ry="3"/>
	<ellipse transform="matrix(0.6558 -0.7549 0.7549 0.6558 -152.9342 337.5091)" class="st1" cx="293.7" cy="336.5" rx="3" ry="3"/>
	<ellipse transform="matrix(0.6558 -0.7549 0.7549 0.6558 -138.1659 320.9005)" class="st1" cx="282.8" cy="312" rx="3" ry="3"/>
	<ellipse transform="matrix(0.6558 -0.7549 0.7549 0.6558 -127.514 340.7879)" class="st1" cx="310" cy="310.2" rx="3" ry="3"/>
	<ellipse transform="matrix(0.6558 -0.7549 0.7549 0.6558 -106.5808 332.8342)" class="st1" cx="311.7" cy="283.3" rx="3" ry="3"/>
	<ellipse transform="matrix(0.6558 -0.7549 0.7549 0.6558 -107.2034 355.7207)" class="st1" cx="336.5" cy="295.4" rx="3" ry="3"/>
	<circle class="st1" cx="351.7" cy="75.5" r="5"/>
	<circle class="st1" cx="270.8" cy="218.5" r="5"/>
	<circle class="st1" cx="430.9" cy="218.5" r="5"/>
	<circle class="st1" cx="464.9" cy="452.8" r="5"/>
	<circle class="st1" cx="238.3" cy="450.8" r="5"/>
	<circle class="st1" cx="259.1" cy="611.7" r="5"/>
	<circle class="st1" cx="444.1" cy="611.7" r="5"/>
	<circle class="st1" cx="495.3" cy="694.9" r="5"/>
	<circle class="st1" cx="417.6" cy="707.4" r="5"/>
	<circle class="st1" cx="285.6" cy="707.4" r="5"/>
	<circle class="st1" cx="207.9" cy="694.9" r="5"/>
	<circle class="st1" cx="524.6" cy="790.4" r="5"/>
	<circle class="st1" cx="577.2" cy="544.5" r="5"/>
	<circle class="st1" cx="178.6" cy="790.4" r="5"/>
	<circle class="st1" cx="125.8" cy="544.5" r="5"/>
	<circle class="st1" cx="351.7" cy="234.7" r="5"/>
	<circle class="st1" cx="351.6" cy="459.3" r="3"/>
	<circle class="st1" cx="339.7" cy="471.1" r="3"/>
	<circle class="st1" cx="363.4" cy="471.1" r="3"/>
	<circle class="st1" cx="199.1" cy="790.4" r="3"/>
	<circle class="st1" cx="504.1" cy="790.4" r="3"/>
	<circle class="st1" cx="357.8" cy="789.6" r="3"/>
	<circle class="st1" cx="345.1" cy="789.6" r="3"/>
	<circle class="st1" cx="359.5" cy="717.6" r="3"/>
	<circle class="st1" cx="343.7" cy="717.6" r="3"/>
	<circle class="st1" cx="343.7" cy="694.9" r="3"/>
	<circle class="st1" cx="343.2" cy="671.2" r="3"/>
	<circle class="st1" cx="359.9" cy="671.2" r="3"/>
	<circle class="st1" cx="359.5" cy="694.9" r="3"/>
	<circle class="st1" cx="425.1" cy="681.6" r="3"/>
	<circle class="st1" cx="432.1" cy="654.7" r="3"/>
	<circle class="st1" cx="270.9" cy="654.7" r="3"/>
	<circle class="st1" cx="278.1" cy="681.6" r="3"/>
	
		<ellipse transform="matrix(0.9953 -9.661223e-02 9.661223e-02 0.9953 -31.551 59.2081)" class="st1" cx="595.6" cy="355.4" rx="3" ry="3"/>
	
		<ellipse transform="matrix(0.9953 -9.661223e-02 9.661223e-02 0.9953 -21.6629 58.6425)" class="st1" cx="594.7" cy="253" rx="3" ry="3"/>
	
		<ellipse transform="matrix(0.9953 -9.661223e-02 9.661223e-02 0.9953 -38.9248 49.6308)" class="st1" cx="493" cy="426.8" rx="3" ry="3"/>
	
		<ellipse transform="matrix(0.9953 -9.661223e-02 9.661223e-02 0.9953 -37.5995 53.3472)" class="st1" cx="532.1" cy="414.9" rx="3" ry="3"/>
	
		<ellipse transform="matrix(0.9953 -9.661223e-02 9.661223e-02 0.9953 -35.148 50.0563)" class="st1" cx="499.3" cy="388" rx="3" ry="3"/>
	
		<ellipse transform="matrix(0.9953 -9.661223e-02 9.661223e-02 0.9953 -23.2842 46.0786)" class="st1" cx="464.2" cy="263.5" rx="0.8" ry="0.8"/>
	
		<ellipse transform="matrix(0.9953 -9.661223e-02 9.661223e-02 0.9953 -30.5116 48.7969)" class="st1" cx="488.6" cy="339.5" rx="0.8" ry="0.8"/>
	
		<ellipse transform="matrix(0.9953 -9.661223e-02 9.661223e-02 0.9953 -27.3606 50.2913)" class="st1" cx="505.7" cy="307.7" rx="0.8" ry="0.8"/>
	
		<ellipse transform="matrix(0.9953 -9.661223e-02 9.661223e-02 0.9953 -27.7803 47.4201)" class="st1" cx="475.8" cy="310.6" rx="0.8" ry="0.8"/>
	
		<ellipse transform="matrix(0.9953 -9.661223e-02 9.661223e-02 0.9953 -22.4353 50.5489)" class="st1" cx="510.8" cy="257" rx="0.8" ry="0.8"/>
	
		<ellipse transform="matrix(0.9953 -9.661223e-02 9.661223e-02 0.9953 -36.5339 47.7221)" class="st1" cx="474.5" cy="401.1" rx="0.8" ry="0.8"/>
	
		<ellipse transform="matrix(0.9953 -9.661223e-02 9.661223e-02 0.9953 -35.3785 62.3139)" class="st1" cx="625.8" cy="396.5" rx="0.8" ry="0.8"/>
	
		<ellipse transform="matrix(0.9953 -9.661223e-02 9.661223e-02 0.9953 -25.5419 62.7334)" class="st1" cx="635" cy="295.1" rx="0.8" ry="0.8"/>
	
		<ellipse transform="matrix(0.9953 -9.661223e-02 9.661223e-02 0.9953 -25.1202 53.5807)" class="st1" cx="540.7" cy="286.2" rx="0.8" ry="0.8"/>
	
		<ellipse transform="matrix(0.9953 -9.661223e-02 9.661223e-02 0.9953 -12.4122 26.9112)" class="st1" cx="271.7" cy="141.6" rx="0.8" ry="0.8"/>
	
		<ellipse transform="matrix(0.9953 -9.661223e-02 9.661223e-02 0.9953 -16.4886 31.1239)" class="st1" cx="313.2" cy="185.8" rx="0.8" ry="0.8"/>
	
		<ellipse transform="matrix(0.9953 -9.661223e-02 9.661223e-02 0.9953 -17.0486 25.3543)" class="st1" cx="253.3" cy="188.7" rx="0.8" ry="0.8"/>
	
		<ellipse transform="matrix(0.9953 -9.661223e-02 9.661223e-02 0.9953 -13.4487 32.4412)" class="st1" cx="328.3" cy="155.1" rx="0.8" ry="0.8"/>
	
		<ellipse transform="matrix(0.9953 -9.661223e-02 9.661223e-02 0.9953 -14.2482 34.4133)" class="st1" cx="348.2" cy="164.3" rx="0.8" ry="0.8"/>
	
		<ellipse transform="matrix(0.9953 -9.661223e-02 9.661223e-02 0.9953 -32.3476 56.299)" class="st1" cx="565.2" cy="362.2" rx="0.8" ry="0.8"/>
	
		<ellipse transform="matrix(0.9953 -9.661223e-02 9.661223e-02 0.9953 -29.1966 57.7934)" class="st1" cx="582.2" cy="330.4" rx="0.8" ry="0.8"/>
	
		<ellipse transform="matrix(0.9953 -9.661223e-02 9.661223e-02 0.9953 -29.6163 54.9222)" class="st1" cx="552.3" cy="333.3" rx="0.8" ry="0.8"/>
	<ellipse transform="matrix(0.6766 -0.7364 0.7364 0.6766 48.0611 363.4509)" class="st1" cx="437.8" cy="127" rx="0.8" ry="0.8"/>
	<ellipse transform="matrix(0.6766 -0.7364 0.7364 0.6766 71.0839 345.8192)" class="st1" cx="429.2" cy="92" rx="0.8" ry="0.8"/>
	<ellipse transform="matrix(0.6766 -0.7364 0.7364 0.6766 91.6967 310.3654)" class="st1" cx="399.2" cy="50.8" rx="0.8" ry="0.8"/>
	<ellipse transform="matrix(0.6766 -0.7364 0.7364 0.6766 103.9247 341.7411)" class="st1" cx="441" cy="52.6" rx="0.8" ry="0.8"/>
	<ellipse transform="matrix(0.6766 -0.7364 0.7364 0.6766 96.7704 380.0934)" class="st1" cx="481.1" cy="79.9" rx="0.8" ry="0.8"/>
	
		<ellipse transform="matrix(0.6766 -0.7364 0.7364 0.6766 -525.9694 469.5603)" class="st1" cx="271.6" cy="833.5" rx="0.8" ry="0.8"/>
	
		<ellipse transform="matrix(0.6766 -0.7364 0.7364 0.6766 -502.9465 451.9286)" class="st1" cx="263" cy="798.5" rx="0.8" ry="0.8"/>
	
		<ellipse transform="matrix(0.6766 -0.7364 0.7364 0.6766 -482.3337 416.4748)" class="st1" cx="232.9" cy="757.3" rx="0.8" ry="0.8"/>
	
		<ellipse transform="matrix(0.6766 -0.7364 0.7364 0.6766 -470.1057 447.8506)" class="st1" cx="274.8" cy="759.1" rx="0.8" ry="0.8"/>
	
		<ellipse transform="matrix(0.6766 -0.7364 0.7364 0.6766 -477.26 486.2029)" class="st1" cx="314.9" cy="786.4" rx="0.8" ry="0.8"/>
	
		<ellipse transform="matrix(0.9953 -9.661223e-02 9.661223e-02 0.9953 -24.2713 58.051)" class="st1" cx="587.3" cy="279.7" rx="0.8" ry="0.8"/>
</g>
</svg>
