<?xml version="1.0" encoding="utf-8"?>
<!-- Generator: Adobe Illustrator 19.2.1, SVG Export Plug-In . SVG Version: 6.00 Build 0)  -->
<svg version="1.1" id="Layer_1" xmlns="http://www.w3.org/2000/svg" xmlns:xlink="http://www.w3.org/1999/xlink" x="0px" y="0px"
	 viewBox="0 0 758.8 760.5" style="enable-background:new 0 0 758.8 760.5;" xml:space="preserve">
<style type="text/css">
	.st0{fill:none;stroke:#27244C;stroke-miterlimit:10;}
	.st1{fill:#27244C;}
</style>
<g>
	<g>
		<g>
			<polygon class="st0" points="502,371.7 502,277.8 455.3,196.6 374.2,149.4 280.3,149.4 198.6,196.4 151,277.8 151,371.7 
				198.5,453.1 280.3,500.4 374.2,500.4 455.2,453.3 			"/>
			<polygon class="st0" points="502.2,371.7 574.2,324.8 502.2,277.8 541.1,201.3 455.4,196.7 450.7,110.9 374.2,149.8 327.3,77.9 
				280.3,149.8 203.8,110.9 198.7,196.6 113.4,201.3 151.2,277.8 80.4,324.8 151.2,371.7 113.4,448.2 198.6,453.3 203.8,538.6 
				280.3,500.8 327.3,571.7 374.2,500.8 450.7,538.6 455.3,453.4 541.1,448.2 			"/>
			<polygon class="st0" points="574.2,324.4 541.4,201 451.1,110.6 327.6,77.9 204.2,111.3 113.8,201.7 80.7,324.8 113.8,447.9 
				204.1,538.3 327.3,571.3 450.4,538.2 540.7,447.9 			"/>
		</g>
		<g>
			
				<rect x="504.6" y="462.8" transform="matrix(0.7071 -0.7071 0.7071 0.7071 -233.7325 567.8155)" class="st0" width="127.8" height="206.4"/>
			<polyline class="st0" points="507.5,450.7 668.6,611.9 614.4,666.1 453.2,505 			"/>
			<line class="st0" x1="614.4" y1="666.1" x2="450.4" y2="538.2"/>
			<line class="st0" x1="668.6" y1="611.9" x2="540.7" y2="447.9"/>
		</g>
	</g>
	<circle class="st1" cx="668.6" cy="611.9" r="5"/>
	<circle class="st1" cx="614.4" cy="666.1" r="5"/>
	<circle class="st1" cx="596.2" cy="684.9" r="5"/>
	<circle class="st1" cx="686.7" cy="593.3" r="5"/>
	<circle class="st1" cx="540.7" cy="447.9" r="5"/>
	<circle class="st1" cx="450.4" cy="538.2" r="5"/>
	<circle class="st1" cx="453.2" cy="506.6" r="5"/>
	<circle class="st1" cx="455.4" cy="452.9" r="5"/>
	<circle class="st1" cx="373.6" cy="500.4" r="5"/>
	<circle class="st1" cx="280.2" cy="500.4" r="5"/>
	<circle class="st1" cx="198.2" cy="452.9" r="5"/>
	<circle class="st1" cx="151" cy="371.8" r="5"/>
	<circle class="st1" cx="151" cy="277.8" r="5"/>
	<circle class="st1" cx="198.2" cy="195.7" r="5"/>
	<circle class="st1" cx="280.2" cy="149.4" r="5"/>
	<circle class="st1" cx="373.6" cy="149.4" r="5"/>
	<circle class="st1" cx="455.4" cy="195.7" r="5"/>
	<circle class="st1" cx="502.7" cy="277.8" r="5"/>
	<circle class="st1" cx="502" cy="371.8" r="5"/>
	<circle class="st1" cx="574.2" cy="324.6" r="5"/>
	<circle class="st1" cx="540.7" cy="200.7" r="5"/>
	<circle class="st1" cx="450.4" cy="111.1" r="5"/>
	<circle class="st1" cx="327.4" cy="77.9" r="5"/>
	<circle class="st1" cx="203.2" cy="111.1" r="5"/>
	<circle class="st1" cx="112.8" cy="200.7" r="5"/>
	<circle class="st1" cx="80.7" cy="324.6" r="5"/>
	<circle class="st1" cx="114.6" cy="447.9" r="5"/>
	<circle class="st1" cx="203.2" cy="538.2" r="5"/>
	<circle class="st1" cx="327.4" cy="571.7" r="5"/>
	<circle class="st1" cx="507.7" cy="450.7" r="5"/>
	<circle class="st1" cx="435.2" cy="328.7" r="3"/>
	<circle class="st1" cx="475.2" cy="320.7" r="3"/>
	<circle class="st1" cx="445.2" cy="290.7" r="3"/>
	<circle class="st1" cx="435.2" cy="380.7" r="3"/>
	<circle class="st1" cx="375.2" cy="320.7" r="3"/>
	<circle class="st1" cx="384.2" cy="218.7" r="3"/>
	<circle class="st1" cx="266.2" cy="381.8" r="3"/>
	<circle class="st1" cx="306.2" cy="373.8" r="3"/>
	<circle class="st1" cx="276.2" cy="343.8" r="3"/>
	<circle class="st1" cx="266.2" cy="433.8" r="3"/>
	<circle class="st1" cx="206.2" cy="373.8" r="3"/>
	<circle class="st1" cx="215.2" cy="271.8" r="3"/>
	<circle class="st1" cx="253.3" cy="216.5" r="0.8"/>
	<circle class="st1" cx="270.3" cy="294.5" r="0.8"/>
	<circle class="st1" cx="290.3" cy="264.5" r="0.8"/>
	<circle class="st1" cx="260.3" cy="264.5" r="0.8"/>
	<circle class="st1" cx="300.3" cy="214.5" r="0.8"/>
	<circle class="st1" cx="250.3" cy="354.5" r="0.8"/>
	<circle class="st1" cx="401.3" cy="364.5" r="0.8"/>
	<circle class="st1" cx="420.3" cy="264.5" r="0.8"/>
	<circle class="st1" cx="327.3" cy="246.5" r="0.8"/>
	<circle class="st1" cx="344.3" cy="324.5" r="0.8"/>
	<circle class="st1" cx="364.3" cy="294.5" r="0.8"/>
	<circle class="st1" cx="334.3" cy="294.5" r="0.8"/>
	<circle class="st1" cx="374.3" cy="244.5" r="0.8"/>
	<circle class="st1" cx="604.7" cy="307.7" r="0.8"/>
	<circle class="st1" cx="621.7" cy="385.7" r="0.8"/>
	<circle class="st1" cx="611.7" cy="355.7" r="0.8"/>
	<circle class="st1" cx="601.7" cy="445.7" r="0.8"/>
	<circle class="st1" cx="665.7" cy="445.7" r="0.8"/>
	<circle class="st1" cx="655.7" cy="415.7" r="0.8"/>
	<circle class="st1" cx="692.1" cy="137.5" r="1"/>
	<path class="st1" d="M583.1,201.6"/>
	<circle class="st1" cx="567.1" cy="171.3" r="0.8"/>
	<circle class="st1" cx="621.1" cy="141.3" r="0.8"/>
	<path class="st1" d="M703.1,399.1"/>
	<ellipse transform="matrix(0.6521 -0.7581 0.7581 0.6521 102.7064 392.053)" class="st1" cx="478.6" cy="84.1" rx="0.8" ry="0.8"/>
	
		<ellipse transform="matrix(0.6521 -0.7581 0.7581 0.6521 97.2449 432.1428)" class="st1" cx="519.5" cy="110.1" rx="0.8" ry="0.8"/>
	
		<ellipse transform="matrix(0.6521 -0.7581 0.7581 0.6521 117.3823 411.9276)" class="st1" cx="507.6" cy="78.1" rx="0.8" ry="0.8"/>
	<ellipse transform="matrix(0.6521 -0.7581 0.7581 0.6521 138.1974 402.7763)" class="st1" cx="508" cy="50.8" rx="0.8" ry="0.8"/>
	<ellipse transform="matrix(0.6521 -0.7581 0.7581 0.6521 -90.9212 691.4521)" class="st1" cx="708" cy="444.8" rx="0.8" ry="0.8"/>
	
		<ellipse transform="matrix(0.6521 -0.7581 0.7581 0.6521 75.7273 597.1477)" class="st1" cx="688.6" cy="216.1" rx="0.8" ry="0.8"/>
	<ellipse transform="matrix(0.6521 -0.7581 0.7581 0.6521 51.6804 590.2274)" class="st1" cx="669" cy="238.8" rx="0.8" ry="0.8"/>
	<ellipse transform="matrix(0.9374 -0.3482 0.3482 0.9374 9.4662 157.0903)" class="st1" cx="441.8" cy="52.2" rx="0.8" ry="0.8"/>
	<ellipse transform="matrix(0.9374 -0.3482 0.3482 0.9374 4.0705 147.9527)" class="st1" cx="413.7" cy="62.7" rx="0.8" ry="0.8"/>
	
		<ellipse transform="matrix(0.6521 -0.7581 0.7581 0.6521 -269.3848 203.9339)" class="st1" cx="87.5" cy="395.5" rx="0.8" ry="0.8"/>
	
		<ellipse transform="matrix(0.6521 -0.7581 0.7581 0.6521 -254.7088 223.8085)" class="st1" cx="116.5" cy="389.5" rx="0.8" ry="0.8"/>
	
		<ellipse transform="matrix(0.6521 -0.7581 0.7581 0.6521 -233.8937 214.6573)" class="st1" cx="117" cy="362.2" rx="0.8" ry="0.8"/>
	
		<ellipse transform="matrix(0.9374 -0.3482 0.3482 0.9374 -123.4094 40.4337)" class="st1" cx="50.8" cy="363.6" rx="0.8" ry="0.8"/>
	<ellipse transform="matrix(0.9374 -0.3482 0.3482 0.9374 -130.1323 45.9102)" class="st1" cx="62.7" cy="385" rx="0.8" ry="0.8"/>
	<circle class="st1" cx="688.1" cy="417.3" r="0.8"/>
	<circle class="st1" cx="628.1" cy="217.3" r="1"/>
	<circle class="st1" cx="280.1" cy="528.5" r="1"/>
	<circle class="st1" cx="249.1" cy="532.3" r="0.8"/>
	
		<ellipse transform="matrix(0.6521 -0.7581 0.7581 0.6521 -352.9469 424.9267)" class="st1" cx="286.6" cy="597.1" rx="0.8" ry="0.8"/>
	<ellipse transform="matrix(0.6521 -0.7581 0.7581 0.6521 -388.0534 413.904)" class="st1" cx="257" cy="629.8" rx="0.8" ry="0.8"/>
	<circle class="st1" cx="246.1" cy="578.3" r="1"/>
	<ellipse transform="matrix(0.6521 -0.7581 0.7581 0.6521 -330.3764 675.601)" class="st1" cx="571" cy="697.8" rx="0.8" ry="0.8"/>
	
		<ellipse transform="matrix(0.9374 -0.3482 0.3482 0.9374 -210.5945 226.4639)" class="st1" cx="524.8" cy="699.2" rx="0.8" ry="0.8"/>
	
		<ellipse transform="matrix(0.9374 -0.3482 0.3482 0.9374 -215.9902 217.3263)" class="st1" cx="496.7" cy="709.7" rx="0.8" ry="0.8"/>
</g>
</svg>
