<svg version="1" xmlns="http://www.w3.org/2000/svg" width="1334.667" height="1334.667" viewBox="0 0 1001.000000 1001.000000"><path d="M176.3 1.1C141 5.2 103.6 20.8 76 42.9c-3.6 2.8-10.7 9.3-15.9 14.4C25.7 91.1 5.3 134.4 1 182.8c-.7 7.9-1 112.6-.7 325.7C.7 856.3.1 826.7 7 852.8c21.8 81.5 92.8 140.3 177.6 147.3 8.8.7 113.6.9 325.4.6 288.1-.3 313.2-.5 322-2 45.3-8.1 81.8-27.2 112.6-58.8 25-25.8 41.7-55.5 50.3-89.9 6.5-25.7 6.1-3.9 6.1-349.5 0-282-.2-315.6-1.6-326.7-4-31.2-14.6-59.1-32.3-85.4-27.8-41.5-68.6-70.3-117-82.5C825.6-.4 846.3 0 499.7.1c-173.9.1-319.4.5-323.4 1zm8.7 385.1c0 171.6-.2 164.7 5 174.7 2.9 5.7 11.2 14.6 16.8 17.8 5.3 3.1 15.3 6.3 19.8 6.3h3.4v90l-8.2-.6c-43-3.2-80.9-25.1-104.2-60.2-7.5-11.2-12.1-21-16.4-34.3-6.4-19.8-6.2-14.3-6.2-192.3V226h90v160.2zM365 271v45h-90v-90h90v45zm181.2 117.7l.3 162.8 3.2 6.8c3.6 7.6 11.6 16.6 18.1 20.4 5.3 3.1 15.3 6.3 19.8 6.3h3.4v90.1l-7.7-.6c-19.4-1.6-35.4-5.8-51-13.4-14.3-7-24.2-13.9-35.5-24.9-21.2-20.6-34.6-46.2-39.3-75.7-1.3-7.6-1.5-33.6-1.5-171.8V226h90l.2 162.7zM365 474.8c0 75.8 0 75.3 5.6 86.5 3.5 6.8 12.5 15.5 19.9 19.1 3.3 1.6 9 3.4 12.8 4l6.7 1v89.7l-7.2-.6c-11.9-1-24-3.3-32.9-6.1-41.1-13-73.8-45.1-87.4-85.7-6.8-20.4-6.7-19.2-7.2-102.5l-.4-75.2H365v69.8zm361 2.4c0 58.1.3 73.3 1.4 77.4 4.5 17 20.2 30.9 37.6 33.3 23.9 3.3 46.6-13.1 51-36.8.6-3.2 1-33.1 1-75.7V405h89v73.2c0 79.1-.1 81.5-5.5 100.3-3.5 12.5-13.1 31.2-21.5 42.2l-7 9.3 6.8 9c13 17.1 22.1 38.3 25.7 59.9 2.5 14.9 1.7 38.6-1.9 52.8-7.7 31-24.8 57-49.5 75.6-22.7 17.1-47.7 26.1-76.1 27.4-29.5 1.3-56.5-6.4-82.5-23.5-9.1-6-28.7-25.7-35-35.2-13.6-20.5-21-42.1-23-67.3l-.7-8.7H726v3.3c0 8.5 5 19.7 12.3 27.5 9.1 9.5 20.1 14.2 33.3 14.2 22.1 0 40.9-16.2 44.6-38.3 2.8-16.8-5.6-35.3-20.2-44.7-7.2-4.6-14.9-6.6-28.4-7.4-6.6-.4-15.8-1.4-20.5-2.2-46.7-8.1-87-42.5-103-87.8-7.7-21.8-8.1-27.3-8.1-109.3V405h90v72.2z"/></svg>