<?xml version="1.0" encoding="utf-8"?>
<!-- Generator: Adobe Illustrator 19.2.1, SVG Export Plug-In . SVG Version: 6.00 Build 0)  -->
<svg version="1.1" id="Layer_1" xmlns="http://www.w3.org/2000/svg" xmlns:xlink="http://www.w3.org/1999/xlink" x="0px" y="0px"
	 viewBox="0 0 1000 1000" style="enable-background:new 0 0 1000 1000;" xml:space="preserve">
<style type="text/css">
	.st0{fill:#27244C;}
</style>
<title>Untitled-1</title>
<path class="st0" d="M1000,333H888.9v166.7c2.2,30.7-20.9,57.3-51.6,59.5c-30.7,2.2-57.3-20.9-59.5-51.6c-0.2-2.6-0.2-5.3,0-7.9V333
	H666.7v166.7c0.2,92,74.7,166.4,166.7,166.7c30.8,0,55.7,24.9,55.7,55.7c0,30.8-24.9,55.7-55.7,55.7c-30.8,0-55.7-24.9-55.7-55.7
	h-111c-0.3,92.1,74.1,166.9,166.2,167.2c92.1,0.3,166.9-74.1,167.2-166.2c0.1-41.4-15.2-81.4-42.9-112.1
	c27.5-30.5,42.7-70.1,42.7-111.1V333H1000z"/>
<rect x="222.2" y="111.8" class="st0" width="111.1" height="111.1"/>
<path class="st0" d="M111.1,499.7V110.8H0v388.9c0,92,74.6,166.6,166.7,166.7V555.2C136,555.1,111.2,530.3,111.1,499.7z"/>
<path class="st0" d="M333.3,499.7V333H222.2v166.7c0,92,74.6,166.7,166.7,166.7V555.2C358.3,555.1,333.4,530.3,333.3,499.7z"/>
<path class="st0" d="M555.6,499.7V110.8H444.4v388.9c0,92,74.6,166.7,166.7,166.7V555.2C580.5,555.1,555.7,530.3,555.6,499.7z"/>
</svg>
