<?xml version="1.0" standalone="no"?>
<!DOCTYPE svg PUBLIC "-//W3C//DTD SVG 20010904//EN"
 "http://www.w3.org/TR/2001/REC-SVG-20010904/DTD/svg10.dtd">
<svg version="1.0" xmlns="http://www.w3.org/2000/svg"
 width="460.000000pt" height="460.000000pt" viewBox="0 0 460.000000 460.000000"
 preserveAspectRatio="xMidYMid meet">
<metadata>
Created by potrace 1.11, written by Peter Selinger 2001-2013
</metadata>
<g transform="translate(0.000000,460.000000) scale(0.100000,-0.100000)"
fill="#000000" stroke="none">
<path d="M370 2802 c0 -590 4 -958 11 -1012 18 -144 72 -228 179 -278 72 -35
232 -43 331 -18 35 9 67 20 72 25 7 7 49 232 44 237 -1 2 -34 -6 -72 -17 -51
-14 -93 -19 -152 -17 -77 3 -85 5 -113 33 -23 23 -33 45 -40 90 -6 36 -10 427
-10 973 l0 912 -125 0 -125 0 0 -928z"/>
<path d="M2070 2789 c0 -640 4 -963 11 -1012 22 -138 75 -218 179 -266 73 -34
233 -42 331 -17 35 9 67 20 72 25 7 7 49 232 44 237 -1 2 -34 -6 -72 -17 -85
-23 -194 -25 -240 -3 -20 9 -41 31 -52 52 -17 35 -18 90 -21 990 l-2 952 -125
0 -125 0 0 -941z"/>
<path d="M1330 3668 c-24 -13 -52 -35 -63 -49 -41 -56 -40 -173 0 -227 41 -55
69 -67 153 -67 84 0 112 12 153 66 42 57 43 161 3 222 -28 42 -98 77 -156 77
-28 0 -63 -9 -90 -22z"/>
<path d="M1300 2270 l0 -760 125 0 125 0 0 760 0 760 -125 0 -125 0 0 -760z"/>
<path d="M2745 2998 c7 -18 149 -357 315 -753 167 -396 302 -727 302 -735 -1
-36 -122 -303 -156 -344 -95 -117 -272 -121 -395 -11 -23 21 -43 36 -45 34 -2
-2 -22 -49 -45 -103 l-41 -100 27 -28 c74 -77 236 -119 382 -99 191 25 298
125 406 376 21 50 193 474 381 943 l343 853 -137 -3 -137 -3 -92 -250 c-51
-137 -152 -410 -223 -605 -72 -195 -133 -362 -136 -370 -3 -8 -21 29 -41 85
-26 73 -360 951 -428 1128 -6 15 -23 17 -151 17 l-143 0 14 -32z"/>
</g>
</svg>
