<?xml version="1.0" standalone="no"?>
<!DOCTYPE svg PUBLIC "-//W3C//DTD SVG 20010904//EN"
 "http://www.w3.org/TR/2001/REC-SVG-20010904/DTD/svg10.dtd">
<svg version="1.0" xmlns="http://www.w3.org/2000/svg"
 width="1001.000000pt" height="1001.000000pt" viewBox="0 0 1001.000000 1001.000000"
 preserveAspectRatio="xMidYMid meet">
<metadata>
Created by potrace 1.11, written by Peter Selinger 2001-2013
</metadata>
<g transform="translate(0.000000,1001.000000) scale(0.100000,-0.100000)"
fill="#000000" stroke="none">
<path d="M1763 9999 c-353 -41 -727 -197 -1003 -418 -36 -28 -107 -93 -159
-144 -344 -338 -548 -771 -591 -1255 -7 -79 -10 -1126 -7 -3257 4 -3478 -2
-3182 67 -3443 218 -815 928 -1403 1776 -1473 88 -7 1136 -9 3254 -6 2881 3
3132 5 3220 20 453 81 818 272 1126 588 250 258 417 555 503 899 65 257 61 39
61 3495 0 2820 -2 3156 -16 3267 -40 312 -146 591 -323 854 -278 415 -686 703
-1170 825 -245 63 -38 59 -3504 58 -1739 -1 -3194 -5 -3234 -10z m87 -3851 c0
-1716 -2 -1647 50 -1747 29 -57 112 -146 168 -178 53 -31 153 -63 198 -63 l34
0 0 -450 0 -450 -82 6 c-430 32 -809 251 -1042 602 -75 112 -121 210 -164 343
-64 198 -62 143 -62 1923 l0 1616 450 0 450 0 0 -1602z m1800 1152 l0 -450
-450 0 -450 0 0 450 0 450 450 0 450 0 0 -450z m1812 -1177 l3 -1628 32 -68
c36 -76 116 -166 181 -204 53 -31 153 -63 198 -63 l34 0 0 -450 0 -451 -77 6
c-194 16 -354 58 -510 134 -143 70 -242 139 -355 249 -212 206 -346 462 -393
757 -13 76 -15 336 -15 1718 l0 1627 450 0 450 0 2 -1627z m-1812 -861 c0
-758 0 -753 56 -865 35 -68 125 -155 199 -191 33 -16 90 -34 128 -40 l67 -10
0 -449 0 -448 -72 6 c-119 10 -240 33 -329 61 -411 130 -738 451 -874 857 -68
204 -67 192 -72 1025 l-4 752 450 0 451 0 0 -698z m3610 -24 c0 -581 3 -733
14 -774 45 -170 202 -309 376 -333 239 -33 466 131 510 368 6 32 10 331 10
757 l0 704 445 0 445 0 0 -732 c0 -791 -1 -815 -55 -1003 -35 -125 -131 -312
-215 -422 l-70 -93 68 -90 c130 -171 221 -383 257 -599 25 -149 17 -386 -19
-528 -77 -310 -248 -570 -495 -756 -227 -171 -477 -261 -761 -274 -295 -13
-565 64 -825 235 -91 60 -287 257 -350 352 -136 205 -210 421 -230 673 l-7 87
451 0 451 0 0 -33 c0 -85 50 -197 123 -275 91 -95 201 -142 333 -142 221 0
409 162 446 383 28 168 -56 353 -202 447 -72 46 -149 66 -284 74 -66 4 -158
14 -205 22 -467 81 -870 425 -1030 878 -77 218 -81 273 -81 1093 l0 703 450 0
450 0 0 -722z"/>
</g>
</svg>
